<svg xmlns="http://www.w3.org/2000/svg" version="1.1" width="3300" height="2000"><g id="Notes"><style>
    text {
      font-family: monospace;
      text-anchor: middle;
    }
    text.emphasis {
      font-weight:bold;
    }
    text.lanchor {
      text-anchor: start;
    }
  </style><rect height="2200" id="artboard" fill="white" width="3300" x="0" y="0"/><line id="" style="fill:none;stroke:black;stroke-width:0.5;" x1="263" x2="3036" y1="292" y2="292"/><text class="lanchor emphasis" transform="matrix(1 0 0 1 263 322)">Weight/Scale Variations</text><text transform="matrix(1 0 0 1 559.711 322)">Ultralight</text><text transform="matrix(1 0 0 1 856.422 322)">Thin</text><text transform="matrix(1 0 0 1 1153.13 322)">Light</text><text transform="matrix(1 0 0 1 1449.84 322)">Regular</text><text transform="matrix(1 0 0 1 1746.56 322)">Medium</text><text transform="matrix(1 0 0 1 2043.27 322)">Semibold</text><text transform="matrix(1 0 0 1 2339.98 322)">Bold</text><text transform="matrix(1 0 0 1 2636.69 322)">Heavy</text><text transform="matrix(1 0 0 1 2933.4 322)">Black</text><text id="template-version" style="text-anchor: end;" transform="matrix(1 0 0 1 3036 1933)">Template v.1.0</text><text class="lanchor" transform="matrix(1 0 0 1 263 726)">Small</text><text class="lanchor" transform="matrix(1 0 0 1 263 1156)">Medium</text><text class="lanchor" transform="matrix(1 0 0 1 263 1586)">Large</text></g><g id="Guides"><g id="H-reference" style="fill:#27AAE1;stroke:none;" transform="matrix(1 0 0 1 339 696)"><path d="M 54.9316 0 L 57.666 0 L 30.5664 -70.459 L 28.0762 -70.459 L 0.976562 0 L 3.66211 0 L 12.9395 -24.4629 L 45.7031 -24.4629 Z M 29.1992 -67.0898 L 29.4434 -67.0898 L 44.8242 -26.709 L 13.8184 -26.709 Z"/></g><line id="Baseline-S" style="fill:none;stroke:#27AAE1;opacity:1;stroke-width:0.577;" x1="263" x2="3036" y1="696" y2="696"/><line id="Capline-S" style="fill:none;stroke:#27AAE1;opacity:1;stroke-width:0.577;" x1="263" x2="3036" y1="625.541" y2="625.541"/><g id="H-reference" style="fill:#27AAE1;stroke:none;" transform="matrix(1 0 0 1 339 1126)"><path d="M 54.9316 0 L 57.666 0 L 30.5664 -70.459 L 28.0762 -70.459 L 0.976562 0 L 3.66211 0 L 12.9395 -24.4629 L 45.7031 -24.4629 Z M 29.1992 -67.0898 L 29.4434 -67.0898 L 44.8242 -26.709 L 13.8184 -26.709 Z"/></g><line id="Baseline-M" style="fill:none;stroke:#27AAE1;opacity:1;stroke-width:0.577;" x1="263" x2="3036" y1="1126" y2="1126"/><line id="Capline-M" style="fill:none;stroke:#27AAE1;opacity:1;stroke-width:0.577;" x1="263" x2="3036" y1="1055.54" y2="1055.54"/><g id="H-reference" style="fill:#27AAE1;stroke:none;" transform="matrix(1 0 0 1 339 1556)"><path d="M 54.9316 0 L 57.666 0 L 30.5664 -70.459 L 28.0762 -70.459 L 0.976562 0 L 3.66211 0 L 12.9395 -24.4629 L 45.7031 -24.4629 Z M 29.1992 -67.0898 L 29.4434 -67.0898 L 44.8242 -26.709 L 13.8184 -26.709 Z"/></g><line id="Baseline-L" style="fill:none;stroke:#27AAE1;opacity:1;stroke-width:0.577;" x1="263" x2="3036" y1="1556" y2="1556"/><line id="Capline-L" style="fill:none;stroke:#27AAE1;opacity:1;stroke-width:0.577;" x1="263" x2="3036" y1="1485.54" y2="1485.54"/><rect height="119.336" id="left-margin" style="fill:darkred;stroke:none;opacity:0.4;" width="12.4512" x="1394.06" y="1030.79"/><rect height="119.336" id="right-margin" style="fill:darkgreen;stroke:none;opacity:0.4;" width="12.4512" x="1502.5112" y="1030.79"/><rect x="1406.5112" y="1045" width="96" height="96" fill="none" stroke="blue" stroke-dasharray="5"/><rect x="1394.06" y="1030.79" width="120.9024" height="119.336" fill="none" stroke="blue"/></g><g id="Symbols"><g id="Bold-L" transform="matrix(1 0 0 1 2266 1556)"><path d="M77.4 33.30125000000001 Q63.04875 33.30125000000001 50.551875 27.980000000000018 Q38.055 22.658750000000026 28.783125000000002 13.306250000000006 Q19.51125 3.9537500000000136 14.190000000000001 -8.623749999999987 Q8.86875 -21.201249999999987 8.86875 -35.55249999999998 Q8.86875 -49.90374999999999 14.190000000000001 -62.40062499999998 Q19.51125 -74.89749999999998 28.783125000000002 -84.08874999999998 Q38.055 -93.27999999999999 50.551875 -98.60125 Q63.04875 -103.92249999999999 77.4 -103.92249999999999 Q91.75125 -103.92249999999999 104.248125 -98.60125 Q116.745 -93.27999999999999 126.016875 -84.08874999999998 Q135.28875 -74.89749999999998 140.690625 -62.40062499999998 Q146.0925 -49.90374999999999 146.0925 -35.55249999999998 Q146.0925 -21.201249999999987 140.690625 -8.623749999999987 Q135.28875 3.9537500000000136 126.016875 13.306250000000006 Q116.745 22.658750000000026 104.248125 27.980000000000018 Q91.75125 33.30125000000001 77.4 33.30125000000001 Z M77.23875 18.627500000000026 Q82.39875 12.983750000000015 86.1075 5.646875000000023 Q89.81625 -1.6899999999999835 92.39625000000001 -12.009999999999977 H62.565000000000005 Q64.66125 -2.3349999999999795 68.37 5.243750000000006 Q72.07875 12.82250000000002 77.23875 18.627500000000026 Z M64.01625 16.692500000000024 Q59.823750000000004 10.887500000000017 57.163125 3.792500000000018 Q54.502500000000005 -3.3024999999999807 52.5675 -12.009999999999977 H29.025000000000002 Q34.83 -0.7224999999999824 42.73125 5.646875000000023 Q50.6325 12.016250000000014 64.01625 16.692500000000024 Z M90.6225 16.53125000000003 Q101.91 12.983750000000015 111.02062500000001 5.646875000000023 Q120.13125000000001 -1.6899999999999835 125.61375000000001 -12.009999999999977 H102.39375 Q100.2975 -3.463749999999976 97.55625 3.6312500000000227 Q94.815 10.726250000000022 90.6225 16.53125000000003 Z M25.96125 -21.201249999999987 H50.79375 Q50.31 -25.55499999999998 50.229375000000005 -28.941249999999982 Q50.14875 -32.327499999999986 50.14875 -35.55249999999998 Q50.14875 -39.58374999999998 50.31 -42.56687499999998 Q50.471250000000005 -45.54999999999998 50.955 -49.41999999999999 H25.96125 Q24.8325 -45.54999999999998 24.429375 -42.64749999999998 Q24.02625 -39.744999999999976 24.02625 -35.55249999999998 Q24.02625 -31.52124999999998 24.429375 -28.296249999999986 Q24.8325 -25.071249999999978 25.96125 -21.201249999999987 Z M60.791250000000005 -21.201249999999987 H94.17 Q94.65375 -26.19999999999999 94.734375 -29.263749999999987 Q94.815 -32.327499999999986 94.815 -35.55249999999998 Q94.815 -38.77749999999999 94.734375 -41.59937499999998 Q94.65375 -44.421249999999986 94.17 -49.41999999999999 H60.791250000000005 Q60.14625 -44.421249999999986 59.985 -41.59937499999998 Q59.823750000000004 -38.77749999999999 59.823750000000004 -35.55249999999998 Q59.823750000000004 -32.327499999999986 59.985 -29.263749999999987 Q60.14625 -26.19999999999999 60.791250000000005 -21.201249999999987 Z M103.845 -21.201249999999987 H128.6775 Q129.645 -25.071249999999978 130.12875 -28.296249999999986 Q130.6125 -31.52124999999998 130.6125 -35.55249999999998 Q130.6125 -39.744999999999976 130.12875 -42.64749999999998 Q129.645 -45.54999999999998 128.6775 -49.41999999999999 H104.00625000000001 Q104.1675 -43.61499999999998 104.32875 -40.87374999999999 Q104.49000000000001 -38.13249999999998 104.49000000000001 -35.55249999999998 Q104.49000000000001 -32.16624999999998 104.248125 -29.102499999999978 Q104.00625000000001 -26.03874999999998 103.845 -21.201249999999987 Z M102.2325 -58.77249999999998 H125.61375000000001 Q120.45375 -69.57624999999999 111.343125 -76.91312499999998 Q102.2325 -84.24999999999999 90.46125 -87.15249999999997 Q94.65375 -81.34749999999998 97.395 -74.49437499999999 Q100.13625 -67.64124999999999 102.2325 -58.77249999999998 Z M62.565000000000005 -58.77249999999998 H92.5575 Q90.94500000000001 -66.99624999999997 86.7525 -74.97812499999998 Q82.56 -82.95999999999998 77.23875 -88.76499999999999 Q72.5625 -84.57249999999999 69.095625 -77.63874999999999 Q65.62875 -70.70499999999998 62.565000000000005 -58.77249999999998 Z M29.025000000000002 -58.77249999999998 H52.72875 Q54.502500000000005 -67.15749999999998 57.001875 -73.92999999999998 Q59.50125 -80.70249999999999 63.855000000000004 -86.99124999999998 Q51.9225 -84.08874999999998 43.134375 -76.99374999999998 Q34.34625 -69.89874999999998 29.025000000000002 -58.77249999999998 Z"/></g><g id="Semibold-L" transform="matrix(1 0 0 1 1970.27 1556)"><path d="M77.4 31.54862375000002 Q63.3993075 31.54862375000002 51.2178375 26.332508750000017 Q39.03652875 21.116393750000015 30.009915000000003 12.044307500000002 Q20.983462499999998 2.9722212500000182 15.80233875 -9.289712499999979 Q10.62137625 -21.55180749999998 10.62137625 -35.55249999999998 Q10.62137625 -49.55319249999998 15.80233875 -61.699509999999975 Q20.983462499999998 -73.84598874999998 30.009915000000003 -82.82680749999997 Q39.03652875 -91.80778749999999 51.2178375 -96.95375874999998 Q63.3993075 -102.09972999999998 77.4 -102.09972999999998 Q91.4006925 -102.09972999999998 103.58216250000001 -96.95375874999998 Q115.76347125000001 -91.80778749999999 124.79008500000002 -82.82680749999997 Q133.8165375 -73.84598874999998 139.04313375 -61.699509999999975 Q144.26973 -49.55319249999998 144.26973 -35.55249999999998 Q144.26973 -21.55180749999998 139.04313375 -9.289712499999979 Q133.8165375 2.9722212500000182 124.79008500000002 12.044307500000002 Q115.76347125000001 21.116393750000015 103.58216250000001 26.332508750000017 Q91.4006925 31.54862375000002 77.4 31.54862375000002 Z M77.30889375 19.188327500000014 Q82.67916375 13.474433750000031 86.422905 6.06757625000003 Q90.1668075 -1.3394424999999899 92.67666375 -11.659442499999983 H62.284586250000004 Q64.45098 -1.984442499999986 68.19472125 5.664451250000013 Q71.9384625 13.313183750000007 77.30889375 19.188327500000014 Z M63.8759625 17.25332750000001 Q59.753606250000004 11.308201250000025 56.987846250000004 4.213201250000026 Q54.222086250000004 -2.881798749999973 52.28708625000001 -11.659442499999983 H28.4641725 Q34.40929875 -0.3017987499999748 42.3806925 6.137558750000011 Q50.352086250000006 12.577077500000001 63.8759625 17.25332750000001 Z M90.90291375000001 17.092077500000016 Q102.33070125 13.474433750000031 111.51130875 6.102567500000021 Q120.6920775 -1.269298749999976 126.24472125000001 -11.659442499999983 H102.67416375 Q100.57791375000001 -3.0430487499999828 97.80167250000001 4.05195125000003 Q95.02526999999999 11.14695125000003 90.90291375000001 17.092077500000016 Z M25.330278749999998 -21.060962499999988 H50.51333625 Q50.02958625000001 -25.41471249999998 49.94896125 -28.836114999999978 Q49.868336250000006 -32.25735624999999 49.868336250000006 -35.55249999999998 Q49.868336250000006 -39.58374999999998 50.02958625000001 -42.63701874999997 Q50.190836250000004 -45.69028749999998 50.674586250000004 -49.56028749999999 H25.330278749999998 Q24.201528749999998 -45.69028749999998 23.79840375 -42.71764374999998 Q23.39527875 -39.744999999999976 23.39527875 -35.55249999999998 Q23.39527875 -31.451106249999995 23.79840375 -28.191114999999982 Q24.201528749999998 -24.93096249999998 25.330278749999998 -21.060962499999988 Z M60.510836250000004 -21.060962499999988 H94.45041375000001 Q95.0043075 -26.059712499999975 95.11992375 -29.15861499999997 Q95.23570125 -32.25735624999999 95.23570125 -35.55249999999998 Q95.23570125 -38.77749999999999 95.11992375 -41.66951874999998 Q95.0043075 -44.561537499999986 94.45041375000001 -49.56028749999999 H60.510836250000004 Q59.86583625000001 -44.561537499999986 59.704586250000006 -41.66951874999998 Q59.54333625 -38.77749999999999 59.54333625 -35.55249999999998 Q59.54333625 -32.25735624999999 59.704586250000006 -29.15861499999997 Q59.86583625000001 -26.059712499999975 60.510836250000004 -21.060962499999988 Z M104.12541375 -21.060962499999988 H129.378615 Q130.4160975 -24.93096249999998 130.86485625 -28.191114999999982 Q131.313615 -31.451106249999995 131.313615 -35.55249999999998 Q131.313615 -39.744999999999976 130.86485625 -42.71764374999998 Q130.4160975 -45.69028749999998 129.378615 -49.56028749999999 H104.28666375 Q104.58820125000001 -43.825269999999975 104.74945125 -40.97888499999999 Q104.91070125 -38.13249999999998 104.91070125 -35.55249999999998 Q104.91070125 -32.09610624999999 104.66882625000001 -28.997364999999974 Q104.42695125 -25.89846249999998 104.12541375 -21.060962499999988 Z M102.51291375000001 -59.05291374999997 H126.24472125000001 Q121.0145775 -69.99695124999998 111.83380875 -77.36881749999998 Q102.65320125000001 -84.74068374999999 90.74166375 -87.71332749999999 Q94.86402 -81.83818374999998 97.64042250000001 -74.95006749999999 Q100.41666375000001 -68.06195124999998 102.51291375000001 -59.05291374999997 Z M62.284586250000004 -59.05291374999997 H92.83791375000001 Q91.15527 -67.41695124999998 86.96276999999999 -75.39882624999998 Q82.77027 -83.38070124999999 77.30889375 -89.32582749999999 Q72.4222125 -85.06318374999998 68.92034625000001 -78.05945124999998 Q65.41848 -71.05555749999998 62.284586250000004 -59.05291374999997 Z M28.4641725 -59.05291374999997 H52.448336250000004 Q54.222086250000004 -67.57820124999998 56.82659625 -74.38569249999999 Q59.43110625 -81.19318374999997 63.714712500000005 -87.5520775 Q51.712230000000005 -84.57943374999999 42.81897 -77.41445124999998 Q33.92554875 -70.24930749999999 28.4641725 -59.05291374999997 Z"/></g><g id="Medium-L" transform="matrix(1 0 0 1 1674.31 1556)"><path d="M77.4 30.233952500000015 Q63.662144999999995 30.233952500000015 51.71739 25.096850000000018 Q39.772635 19.95958625 30.93016875 11.097770000000025 Q22.087702500000002 2.2361150000000123 17.011875 -9.789264999999972 Q11.9360475 -21.814644999999985 11.9360475 -35.55249999999998 Q11.9360475 -49.29035499999999 17.011875 -61.17367374999999 Q22.087702500000002 -73.05715374999998 30.93016875 -81.88026999999998 Q39.772635 -90.70354749999998 51.71739 -95.71809999999999 Q63.662144999999995 -100.73265249999999 77.4 -100.73265249999999 Q91.137855 -100.73265249999999 103.08261000000002 -95.71809999999999 Q115.027365 -90.70354749999998 123.86983124999999 -81.88026999999998 Q132.7122975 -73.05715374999998 137.807475 -61.17367374999999 Q142.9026525 -49.29035499999999 142.9026525 -35.55249999999998 Q142.9026525 -21.814644999999985 137.807475 -9.789264999999972 Q132.7122975 2.2361150000000123 123.86983124999999 11.097770000000025 Q115.027365 19.95958625 103.08261000000002 25.096850000000018 Q91.137855 30.233952500000015 77.4 30.233952500000015 Z M77.36146125 19.60902875000002 Q82.88943375000001 13.84256750000003 86.65962 6.382981250000029 Q90.429645 -1.0766049999999865 92.88693375 -11.39660499999998 H62.07431625 Q64.29311625 -1.7216049999999825 68.0633025 5.97985625000004 Q71.83332750000001 13.681317500000034 77.36146125 19.60902875000002 Z M63.7708275 17.67402875000002 Q59.701038749999995 11.623606250000023 56.8564275 4.528606250000024 Q54.01181625 -2.5663937499999747 52.07681625 -11.39660499999998 H28.043471250000003 Q34.09389375 0.01360625000003779 42.117855000000006 6.505692500000009 Q50.14181625 12.997778750000009 63.7708275 17.67402875000002 Z M91.11318375 17.512778750000024 Q102.64610625000002 13.84256750000003 111.87944250000001 6.444417500000014 Q121.11277875 -0.9538937499999776 126.71799 -11.39660499999998 H102.88443375 Q100.78818375 -2.72764374999997 97.98565875 4.367356250000029 Q95.18313375000001 11.462356250000028 91.11318375 17.512778750000024 Z M24.85701 -20.95582749999997 H50.30306625 Q49.81931625 -25.309577499999975 49.73869125 -28.757263749999993 Q49.65806625 -32.20478874999999 49.65806625 -35.55249999999998 Q49.65806625 -39.58374999999998 49.81931625 -42.68958624999998 Q49.98056625 -45.79542249999999 50.46431625 -49.66542249999998 H24.85701 Q23.72826 -45.79542249999999 23.325135 -42.770211249999974 Q22.92201 -39.744999999999976 22.92201 -35.55249999999998 Q22.92201 -31.398538749999986 23.325135 -28.112263749999983 Q23.72826 -24.825827499999974 24.85701 -20.95582749999997 Z M60.30056625 -20.95582749999997 H94.66068375 Q95.267145 -25.95457749999997 95.40920625 -29.079763749999984 Q95.55110625000002 -32.20478874999999 95.55110625000002 -35.55249999999998 Q95.55110625000002 -38.77749999999999 95.40920625 -41.722086249999975 Q95.267145 -44.66667249999999 94.66068375 -49.66542249999998 H60.30056625 Q59.65556625 -44.66667249999999 59.49431625 -41.722086249999975 Q59.33306625 -38.77749999999999 59.33306625 -35.55249999999998 Q59.33306625 -32.20478874999999 59.49431625 -29.079763749999984 Q59.65556625 -25.95457749999997 60.30056625 -20.95582749999997 Z M104.33568375 -20.95582749999997 H129.90445125000002 Q130.9946625 -24.825827499999974 131.41697625 -28.112263749999983 Q131.83945125 -31.398538749999986 131.83945125 -35.55249999999998 Q131.83945125 -39.744999999999976 131.41697625 -42.770211249999974 Q130.9946625 -45.79542249999999 129.90445125000002 -49.66542249999998 H104.49693375000001 Q104.90360625000001 -43.98313374999998 105.06485625 -41.05773624999998 Q105.22610625000002 -38.13249999999998 105.22610625000002 -35.55249999999998 Q105.22610625000002 -32.04353874999998 104.98423125000001 -28.91851374999999 Q104.74235625000001 -25.793327499999975 104.33568375 -20.95582749999997 Z M102.72318375 -59.26318374999998 H126.71799 Q121.43527875 -70.31235625 112.2019425 -77.71066749999999 Q102.96860625000001 -85.10881749999999 90.95193375000001 -88.13402874999998 Q95.02188375 -82.20631749999998 97.82440875 -75.29191749999998 Q100.62693375 -68.37735624999999 102.72318375 -59.26318374999998 Z M62.07431625 -59.26318374999998 H93.04818375 Q91.31313375 -67.73235624999998 87.12063375000001 -75.71423124999998 Q82.92813375 -83.69610624999999 77.36146125 -89.74652874999998 Q72.3170775 -85.43131749999998 68.7889275 -78.37485625 Q65.26061625 -71.31839499999998 62.07431625 -59.26318374999998 Z M28.043471250000003 -59.26318374999998 H52.23806625 Q54.01181625 -67.89360624999998 56.69517750000001 -74.7275425 Q59.37853875 -81.56131749999999 63.6095775 -87.97277874999997 Q51.55436625 -84.94756749999999 42.582255 -77.72985624999998 Q33.61014375 -70.51214499999998 28.043471250000003 -59.26318374999998 Z"/></g><g id="Regular-L" transform="matrix(1 0 0 1 1378.56 1556)"><path d="M77.4 29.27000000000001 Q63.855000000000004 29.27000000000001 52.08375 24.19062500000001 Q40.3125 19.111250000000013 31.605 10.40375000000003 Q22.8975 1.6962500000000205 17.89875 -10.155624999999986 Q12.9 -22.00749999999998 12.9 -35.55249999999998 Q12.9 -49.09749999999998 17.89875 -60.78812499999998 Q22.8975 -72.47874999999999 31.605 -81.18624999999999 Q40.3125 -89.89374999999998 52.08375 -94.81187499999999 Q63.855000000000004 -99.72999999999999 77.4 -99.72999999999999 Q90.94500000000001 -99.72999999999999 102.71625 -94.81187499999999 Q114.4875 -89.89374999999998 123.19500000000001 -81.18624999999999 Q131.9025 -72.47874999999999 136.90125 -60.78812499999998 Q141.9 -49.09749999999998 141.9 -35.55249999999998 Q141.9 -22.00749999999998 136.90125 -10.155624999999986 Q131.9025 1.6962500000000205 123.19500000000001 10.40375000000003 Q114.4875 19.111250000000013 102.71625 24.19062500000001 Q90.94500000000001 29.27000000000001 77.4 29.27000000000001 Z M77.4 19.917500000000018 Q83.04375 14.112500000000011 86.833125 6.614375000000024 Q90.6225 -0.8837499999999778 93.04125 -11.203749999999985 H61.92 Q64.1775 -1.528749999999988 67.966875 6.211250000000007 Q71.75625000000001 13.951250000000016 77.4 19.917500000000018 Z M63.69375 17.982500000000016 Q59.6625 11.855000000000018 56.760000000000005 4.760000000000019 Q53.8575 -2.3349999999999795 51.9225 -11.203749999999985 H27.735 Q33.862500000000004 0.24500000000000455 41.925000000000004 6.775625000000019 Q49.987500000000004 13.306250000000006 63.69375 17.982500000000016 Z M91.2675 17.82125000000002 Q102.8775 14.112500000000011 112.149375 6.695000000000022 Q121.42125 -0.7224999999999824 127.065 -11.203749999999985 H103.03875000000001 Q100.94250000000001 -2.496249999999975 98.120625 4.598750000000024 Q95.29875 11.693750000000023 91.2675 17.82125000000002 Z M24.51 -20.878749999999982 H50.14875 Q49.665 -25.232499999999987 49.584375 -28.69937499999999 Q49.503750000000004 -32.16624999999998 49.503750000000004 -35.55249999999998 Q49.503750000000004 -39.58374999999998 49.665 -42.72812499999998 Q49.82625 -45.87249999999999 50.31 -49.74249999999998 H24.51 Q23.38125 -45.87249999999999 22.978125000000002 -42.80874999999999 Q22.575 -39.744999999999976 22.575 -35.55249999999998 Q22.575 -31.359999999999985 22.978125000000002 -28.05437499999998 Q23.38125 -24.748749999999987 24.51 -20.878749999999982 Z M60.14625 -20.878749999999982 H94.815 Q95.46000000000001 -25.877499999999984 95.62125 -29.02187499999998 Q95.7825 -32.16624999999998 95.7825 -35.55249999999998 Q95.7825 -38.77749999999999 95.62125 -41.760624999999976 Q95.46000000000001 -44.74374999999998 94.815 -49.74249999999998 H60.14625 Q59.50125 -44.74374999999998 59.34 -41.760624999999976 Q59.17875 -38.77749999999999 59.17875 -35.55249999999998 Q59.17875 -32.16624999999998 59.34 -29.02187499999998 Q59.50125 -25.877499999999984 60.14625 -20.878749999999982 Z M104.49000000000001 -20.878749999999982 H130.29 Q131.41875000000002 -24.748749999999987 131.821875 -28.05437499999998 Q132.225 -31.359999999999985 132.225 -35.55249999999998 Q132.225 -39.744999999999976 131.821875 -42.80874999999999 Q131.41875000000002 -45.87249999999999 130.29 -49.74249999999998 H104.65125 Q105.135 -44.09874999999998 105.29625 -41.11562499999998 Q105.4575 -38.13249999999998 105.4575 -35.55249999999998 Q105.4575 -32.00499999999998 105.215625 -28.860624999999985 Q104.97375000000001 -25.716249999999988 104.49000000000001 -20.878749999999982 Z M102.8775 -59.41749999999999 H127.065 Q121.74375 -70.54374999999999 112.471875 -77.96124999999998 Q103.2 -85.37874999999998 91.10625 -88.44249999999998 Q95.1375 -82.47625 97.95937500000001 -75.54249999999999 Q100.78125 -68.60874999999999 102.8775 -59.41749999999999 Z M61.92 -59.41749999999999 H93.2025 Q91.42875000000001 -67.96374999999998 87.23625 -75.94562499999998 Q83.04375 -83.92749999999998 77.4 -90.05499999999998 Q72.24000000000001 -85.70124999999999 68.6925 -78.60624999999999 Q65.145 -71.51124999999999 61.92 -59.41749999999999 Z M27.735 -59.41749999999999 H52.08375 Q53.8575 -68.12499999999999 56.59875 -74.97812499999998 Q59.34 -81.83124999999998 63.5325 -88.28124999999999 Q51.43875 -85.21749999999999 42.40875 -77.96124999999998 Q33.378750000000004 -70.70499999999998 27.735 -59.41749999999999 Z"/></g><g id="Light-L" transform="matrix(1 0 0 1 1082.77 1556)"><path d="M77.4 26.044838750000025 Q64.59933 26.044838750000025 53.4172875 21.21346625000001 Q42.235245 16.382255000000015 33.93087 8.108840000000015 Q25.626495000000002 -0.16441374999998004 20.87590875 -11.396121249999979 Q16.12516125 -22.627667499999987 16.12516125 -35.49041874999999 Q16.12516125 -48.29124999999998 20.87590875 -59.42362749999998 Q25.626495000000002 -70.55600499999998 33.93087 -78.82941999999998 Q42.235245 -87.10267374999998 53.4172875 -91.80375624999999 Q64.59933 -96.50483874999998 77.4 -96.50483874999998 Q90.20067 -96.50483874999998 101.38271250000001 -91.80375624999999 Q112.564755 -87.10267374999998 120.86913000000001 -78.82941999999998 Q129.173505 -70.55600499999998 133.92409125 -59.42362749999998 Q138.67483875000002 -48.29124999999998 138.67483875000002 -35.49041874999999 Q138.67483875000002 -22.627667499999987 133.92409125 -11.396121249999979 Q129.173505 -0.16441374999998004 120.86913000000001 8.108840000000015 Q112.564755 16.382255000000015 101.38271250000001 21.21346625000001 Q90.20067 26.044838750000025 77.4 26.044838750000025 Z M77.4 19.049168750000007 Q83.415915 12.561920000000015 87.29833125 4.9707537500000285 Q91.1807475 -2.620412499999972 93.6614175 -12.816411249999973 H61.23775125 Q63.68133375 -2.7692462499999806 67.56375 4.939793750000007 Q71.44616625 12.648672500000032 77.4 19.049168750000007 Z M67.16707500000001 17.734336250000013 Q62.63965875 11.855000000000018 59.147951250000006 4.0467912500000125 Q55.656243749999994 -3.761578749999984 53.6591625 -12.816411249999973 H27.98316375 Q34.17258375 -0.31324749999997437 43.53766125 6.930747500000024 Q52.9025775 14.174581250000017 67.16707500000001 17.734336250000013 Z M87.79417500000001 17.635167500000023 Q100.45858875 14.794748750000025 110.69183625000001 6.881082500000019 Q120.92508375 -1.0325837499999864 126.81683625000001 -12.816411249999973 H101.24000625000001 Q98.8336725 -3.7367462499999817 95.42259000000001 4.009542500000009 Q92.01150750000001 11.755831250000028 87.79417500000001 17.635167500000023 Z M25.626495000000002 -20.13441999999999 H52.31965875 Q51.71174625 -24.550251249999988 51.53808 -28.265128749999988 Q51.36441375 -31.98016749999998 51.36441375 -35.49041874999999 Q51.36441375 -39.39766749999998 51.587745 -42.88324749999998 Q51.811076250000006 -46.36866624999999 52.4188275 -50.42474874999998 H25.626495000000002 Q24.43566375 -46.67874999999998 23.939497499999998 -43.180914999999985 Q23.44333125 -39.682918749999985 23.44333125 -35.49041874999999 Q23.44333125 -31.23599874999998 23.939497499999998 -27.589168749999985 Q24.43566375 -23.94249999999998 25.626495000000002 -20.13441999999999 Z M59.83616625 -20.13441999999999 H95.06316375 Q95.77008375 -25.009168749999986 95.993415 -28.43266749999998 Q96.21674625 -31.856166249999987 96.21674625 -35.49041874999999 Q96.21674625 -38.96358249999999 95.993415 -42.25679124999998 Q95.77008375 -45.54999999999998 95.06316375 -50.42474874999998 H59.83616625 Q59.129085 -45.54999999999998 58.90575375 -42.25679124999998 Q58.68258375 -38.96358249999999 58.68258375 -35.49041874999999 Q58.68258375 -31.856166249999987 58.90575375 -28.43266749999998 Q59.129085 -25.009168749999986 59.83616625 -20.13441999999999 Z M102.3811725 -20.13441999999999 H129.173505 Q130.36433625 -23.94249999999998 130.8605025 -27.589168749999985 Q131.35666875 -31.23599874999998 131.35666875 -35.49041874999999 Q131.35666875 -39.682918749999985 130.8605025 -43.180914999999985 Q130.36433625 -46.67874999999998 129.173505 -50.42474874999998 H102.5424225 Q103.08825375 -45.091082499999985 103.31142375 -41.73579249999999 Q103.534755 -38.38066374999998 103.534755 -35.49041874999999 Q103.534755 -31.880998749999975 103.26192 -28.39541874999999 Q102.98892375000001 -24.909999999999982 102.3811725 -20.13441999999999 Z M101.1408375 -57.74291874999999 H126.81683625000001 Q121.1235825 -70.10950374999999 111.04529625 -77.93028999999999 Q100.96717125 -85.75091499999999 87.63292500000001 -88.25641749999998 Q92.16034125 -82.16616624999997 95.54046375 -74.58112749999998 Q98.92058625 -66.99608874999998 101.1408375 -57.74291874999999 Z M61.23775125 -57.74291874999999 H93.82266750000001 Q91.67691375 -66.84725499999999 87.4532925 -74.92217124999999 Q83.2298325 -82.99708749999999 77.4 -89.31066999999999 Q71.92991625 -84.27467124999998 68.16537375 -76.8695875 Q64.40067 -69.46450374999998 61.23775125 -57.74291874999999 Z M27.98316375 -57.74291874999999 H53.75833125 Q55.780245 -66.69842125 59.07974250000001 -74.202835 Q62.37924 -81.70724874999999 67.005825 -88.15724874999998 Q53.671578749999995 -85.58966499999998 43.7732475 -77.89916874999999 Q33.87491625 -70.20883374999998 27.98316375 -57.74291874999999 Z"/></g><g id="Thin-L" transform="matrix(1 0 0 1 787.282 1556)"><path d="M77.4 22.82000000000002 Q65.34349875 22.82000000000002 54.7505025 18.23679125000001 Q44.1576675 13.653582500000027 36.256417500000005 5.814413750000028 Q28.3551675 -2.0249162499999755 23.85258375 -12.63645624999998 Q19.35 -23.24783499999998 19.35 -35.42849874999999 Q19.35 -47.484999999999985 23.85258375 -58.05929124999999 Q28.3551675 -68.63358249999999 36.256417500000005 -76.47275124999999 Q44.1576675 -84.31208124999998 54.7505025 -88.79612124999998 Q65.34349875 -93.27999999999999 77.4 -93.27999999999999 Q89.45650125 -93.27999999999999 100.0494975 -88.79612124999998 Q110.64233250000001 -84.31208124999998 118.5435825 -76.47275124999999 Q126.4448325 -68.63358249999999 130.94741625 -58.05929124999999 Q135.45000000000002 -47.484999999999985 135.45000000000002 -35.42849874999999 Q135.45000000000002 -23.24783499999998 130.94741625 -12.63645624999998 Q126.4448325 -2.0249162499999755 118.5435825 5.814413750000028 Q110.64233250000001 13.653582500000027 100.0494975 18.23679125000001 Q89.45650125 22.82000000000002 77.4 22.82000000000002 Z M77.4 18.180998750000015 Q83.78791875 11.01150125000001 87.76337625000001 3.327293750000024 Q91.73883375 -4.356752499999985 94.281585 -14.42874999999998 H60.55566375 Q63.185167500000006 -4.009581249999982 67.160625 3.668498750000026 Q71.1360825 11.34641750000003 77.4 18.180998750000015 Z M70.63991625 17.48633375000003 Q65.61633375 11.855000000000018 61.535418750000005 3.3335825000000057 Q57.454665 -5.187834999999978 55.395502500000006 -14.42874999999998 H28.23116625 Q34.4826675 -0.8713337499999767 45.15 7.085708750000009 Q55.8173325 15.04275125000001 70.63991625 17.48633375000003 Z M84.32133375000001 17.449085000000025 Q98.04 15.47683625000002 109.23445875 7.067165000000017 Q120.4289175 -1.3426674999999761 126.56883375000001 -14.42874999999998 H99.441585 Q96.7251675 -4.9770812499999835 92.72503875 3.4203350000000228 Q88.72474875 11.817751250000015 84.32133375000001 17.449085000000025 Z M26.7426675 -19.390251249999977 H54.490083750000004 Q53.75817000000001 -23.86816374999998 53.49162375 -27.831043749999978 Q53.22491625 -31.79408499999998 53.22491625 -35.42849874999999 Q53.22491625 -39.211584999999985 53.5101675 -43.03820874999998 Q53.79541875 -46.86483249999998 54.5273325 -51.106836249999986 H26.7426675 Q25.48991625 -47.484999999999985 24.90070875 -43.55291874999999 Q24.311501250000003 -39.620998749999984 24.311501250000003 -35.42849874999999 Q24.311501250000003 -31.111997499999987 24.90070875 -27.12412374999998 Q25.48991625 -23.136249999999976 26.7426675 -19.390251249999977 Z M59.5260825 -19.390251249999977 H95.31116625 Q96.0801675 -24.14099874999998 96.36541875 -27.84345999999998 Q96.65083125 -31.546082499999983 96.65083125 -35.42849874999999 Q96.65083125 -39.149664999999985 96.36541875 -42.75295749999998 Q96.0801675 -46.35624999999999 95.31116625 -51.106836249999986 H59.5260825 Q58.75708125 -46.35624999999999 58.471668750000006 -42.75295749999998 Q58.186417500000005 -39.149664999999985 58.186417500000005 -35.42849874999999 Q58.186417500000005 -31.546082499999983 58.471668750000006 -27.84345999999998 Q58.75708125 -24.14099874999998 59.5260825 -19.390251249999977 Z M100.2726675 -19.390251249999977 H128.0573325 Q129.31008375 -23.136249999999976 129.89929125 -27.12412374999998 Q130.48849875 -31.111997499999987 130.48849875 -35.42849874999999 Q130.48849875 -39.620998749999984 129.89929125 -43.55291874999999 Q129.31008375 -47.484999999999985 128.0573325 -51.106836249999986 H100.4339175 Q101.04183 -46.08341499999999 101.32708125 -42.35595999999998 Q101.61233250000001 -38.62866624999998 101.61233250000001 -35.42849874999999 Q101.61233250000001 -31.756997499999983 101.30837625000001 -27.930373749999987 Q101.00458125 -24.103749999999977 100.2726675 -19.390251249999977 Z M99.4044975 -56.06849874999999 H126.56883375000001 Q120.503415 -69.67541874999998 109.61904 -77.89916874999999 Q98.734665 -86.12291874999998 84.16008375 -88.07033499999999 Q89.18366625 -81.85608249999999 93.121875 -73.61991624999999 Q97.06008375 -65.38374999999999 99.4044975 -56.06849874999999 Z M60.55566375 -56.06849874999999 H94.442835 Q91.92491625 -65.73108249999999 87.67033500000001 -73.89903999999999 Q83.415915 -82.06699749999999 77.4 -88.56650124999999 Q71.6198325 -82.84841499999999 67.6382475 -75.13324749999998 Q63.656501250000005 -67.41807999999997 60.55566375 -56.06849874999999 Z M28.23116625 -56.06849874999999 H55.43275125 Q57.702667500000004 -65.27216499999997 61.56025125 -73.42770624999999 Q65.417835 -81.58324749999998 70.47866625 -88.03324749999999 Q55.904085 -85.96166874999999 45.137583750000005 -77.83724874999999 Q34.3710825 -69.71266749999998 28.23116625 -56.06849874999999 Z"/></g><g id="Ultralight-L" transform="matrix(1 0 0 1 491.205 1556)"><path d="M77.4 20.88500000000002 Q65.79 20.88500000000002 55.550625000000004 16.45062500000003 Q45.31125 12.016250000000014 37.651875000000004 4.437500000000028 Q29.9925 -3.141249999999985 25.63875 -13.38062499999998 Q21.285 -23.619999999999976 21.285 -35.391249999999985 Q21.285 -47.001249999999985 25.63875 -57.24062499999998 Q29.9925 -67.47999999999999 37.651875000000004 -75.05874999999997 Q45.31125 -82.63749999999999 55.550625000000004 -86.99124999999998 Q65.79 -91.34499999999998 77.4 -91.34499999999998 Q89.01 -91.34499999999998 99.249375 -86.99124999999998 Q109.48875 -82.63749999999999 117.14812500000001 -75.05874999999997 Q124.8075 -67.47999999999999 129.16125 -57.24062499999998 Q133.51500000000001 -47.001249999999985 133.51500000000001 -35.391249999999985 Q133.51500000000001 -23.619999999999976 129.16125 -13.38062499999998 Q124.8075 -3.141249999999985 117.14812500000001 4.437500000000028 Q109.48875 12.016250000000014 99.249375 16.45062500000003 Q89.01 20.88500000000002 77.4 20.88500000000002 Z M77.4 17.660000000000025 Q84.01125 10.081250000000011 88.0425 2.3412500000000307 Q92.07375 -5.398749999999978 94.65375 -15.39624999999998 H60.14625 Q62.8875 -4.753749999999982 66.91875 2.905625000000015 Q70.95 10.565000000000026 77.4 17.660000000000025 Z M72.72375 17.337500000000006 Q67.4025 11.855000000000018 62.968125 2.905625000000015 Q58.533750000000005 -6.043749999999989 56.4375 -15.39624999999998 H28.380000000000003 Q34.66875 -1.206249999999983 46.1175 7.178750000000008 Q57.566250000000004 15.563750000000027 72.72375 17.337500000000006 Z M82.2375 17.337500000000006 Q96.58875 15.886250000000018 108.36 7.178750000000008 Q120.13125000000001 -1.528749999999988 126.42 -15.39624999999998 H98.3625 Q95.46000000000001 -5.7212499999999835 91.10625 3.0668750000000102 Q86.7525 11.855000000000018 82.2375 17.337500000000006 Z M27.4125 -18.94374999999998 H55.792500000000004 Q54.98625 -23.45874999999998 54.66375 -27.57062499999998 Q54.34125 -31.682499999999976 54.34125 -35.391249999999985 Q54.34125 -39.09999999999998 54.66375 -43.13124999999998 Q54.98625 -47.16249999999998 55.792500000000004 -51.516249999999985 H27.4125 Q26.122500000000002 -47.968749999999986 25.4775 -43.776249999999976 Q24.8325 -39.58374999999998 24.8325 -35.391249999999985 Q24.8325 -31.03749999999998 25.4775 -26.844999999999985 Q26.122500000000002 -22.65249999999999 27.4125 -18.94374999999998 Z M59.34 -18.94374999999998 H95.46000000000001 Q96.26625 -23.619999999999976 96.58875 -27.48999999999998 Q96.91125000000001 -31.359999999999985 96.91125000000001 -35.391249999999985 Q96.91125000000001 -39.26124999999999 96.58875 -43.05062499999998 Q96.26625 -46.83999999999999 95.46000000000001 -51.516249999999985 H59.34 Q58.533750000000005 -46.83999999999999 58.21125 -43.05062499999998 Q57.88875 -39.26124999999999 57.88875 -35.391249999999985 Q57.88875 -31.359999999999985 58.21125 -27.48999999999998 Q58.533750000000005 -23.619999999999976 59.34 -18.94374999999998 Z M99.00750000000001 -18.94374999999998 H127.3875 Q128.6775 -22.65249999999999 129.3225 -26.844999999999985 Q129.9675 -31.03749999999998 129.9675 -35.391249999999985 Q129.9675 -39.58374999999998 129.3225 -43.776249999999976 Q128.6775 -47.968749999999986 127.3875 -51.516249999999985 H99.16875 Q99.81375 -46.67874999999998 100.13625 -42.72812499999998 Q100.45875000000001 -38.77749999999999 100.45875000000001 -35.391249999999985 Q100.45875000000001 -31.682499999999976 100.13625 -27.651249999999976 Q99.81375 -23.619999999999976 99.00750000000001 -18.94374999999998 Z M98.3625 -55.063749999999985 H126.42 Q120.13125000000001 -69.41499999999999 108.763125 -77.88062499999998 Q97.395 -86.34624999999998 82.07625 -87.95874999999998 Q87.39750000000001 -81.66999999999999 91.670625 -73.04312499999997 Q95.94375000000001 -64.41624999999999 98.3625 -55.063749999999985 Z M60.14625 -55.063749999999985 H94.815 Q92.07375 -65.06124999999999 87.800625 -73.28499999999998 Q83.5275 -81.50874999999999 77.4 -88.11999999999998 Q71.43375 -81.99249999999998 67.321875 -74.09124999999997 Q63.21 -66.18999999999998 60.14625 -55.063749999999985 Z M28.380000000000003 -55.063749999999985 H56.4375 Q58.85625 -64.41624999999999 63.04875 -72.96249999999998 Q67.24125000000001 -81.50874999999999 72.5625 -87.95874999999998 Q57.24375 -86.18499999999997 45.956250000000004 -77.79999999999998 Q34.66875 -69.41499999999999 28.380000000000003 -55.063749999999985 Z"/></g><g id="Bold-M" transform="matrix(1 0 0 1 2281.8 1126)"><path d="M60.0 19.02000000000001 Q48.875 19.02000000000001 39.0 14.70750000000001 Q29.125 10.39500000000001 21.75 3.0200000000000102 Q14.375 -4.35499999999999 10.0625 -14.22999999999999 Q5.75 -24.10499999999999 5.75 -35.22999999999999 Q5.75 -46.35499999999999 10.0625 -56.22999999999999 Q14.375 -66.10499999999999 21.75 -73.47999999999999 Q29.125 -80.85499999999999 39.0 -85.16749999999999 Q48.875 -89.47999999999999 60.0 -89.47999999999999 Q71.125 -89.47999999999999 81.0 -85.16749999999999 Q90.875 -80.85499999999999 98.25 -73.47999999999999 Q105.625 -66.10499999999999 109.9375 -56.22999999999999 Q114.25 -46.35499999999999 114.25 -35.22999999999999 Q114.25 -24.10499999999999 109.9375 -14.22999999999999 Q105.625 -4.35499999999999 98.25 3.0200000000000102 Q90.875 10.39500000000001 81.0 14.70750000000001 Q71.125 19.02000000000001 60.0 19.02000000000001 Z M59.75 3.1450000000000102 Q62.5 -1.1049999999999898 64.875 -5.91749999999999 Q67.25 -10.72999999999999 68.75 -15.97999999999999 H51.125 Q52.625 -10.72999999999999 54.8125 -5.91749999999999 Q57.0 -1.1049999999999898 59.75 3.1450000000000102 Z M47.375 1.1450000000000102 Q44.875 -2.7299999999999898 43.4375 -7.16749999999999 Q42.0 -11.60499999999999 40.875 -15.97999999999999 H26.875 Q30.125 -9.97999999999999 35.375 -5.47999999999999 Q40.625 -0.9799999999999898 47.375 1.1450000000000102 Z M72.25 1.1450000000000102 Q79.0 -0.9799999999999898 84.375 -5.47999999999999 Q89.75 -9.97999999999999 93.0 -15.97999999999999 H79.0 Q77.875 -11.60499999999999 76.3125 -7.16749999999999 Q74.75 -2.7299999999999898 72.25 1.1450000000000102 Z M22.75 -25.60499999999999 H38.875 Q38.5 -28.10499999999999 38.3125 -30.41749999999999 Q38.125 -32.72999999999999 38.125 -35.22999999999999 Q38.125 -37.85499999999999 38.3125 -40.10499999999999 Q38.5 -42.35499999999999 38.875 -44.85499999999999 H22.75 Q22.125 -42.47999999999999 21.8125 -40.16749999999999 Q21.5 -37.85499999999999 21.5 -35.22999999999999 Q21.5 -32.72999999999999 21.8125 -30.35499999999999 Q22.125 -27.97999999999999 22.75 -25.60499999999999 Z M48.875 -25.60499999999999 H71.0 Q71.375 -28.10499999999999 71.4375 -30.41749999999999 Q71.5 -32.72999999999999 71.5 -35.22999999999999 Q71.5 -37.85499999999999 71.4375 -40.10499999999999 Q71.375 -42.35499999999999 71.0 -44.85499999999999 H48.875 Q48.5 -42.35499999999999 48.3125 -40.10499999999999 Q48.125 -37.85499999999999 48.125 -35.22999999999999 Q48.125 -32.72999999999999 48.3125 -30.41749999999999 Q48.5 -28.10499999999999 48.875 -25.60499999999999 Z M81.0 -25.60499999999999 H97.0 Q97.625 -27.97999999999999 97.9375 -30.35499999999999 Q98.25 -32.72999999999999 98.25 -35.22999999999999 Q98.25 -37.85499999999999 97.9375 -40.16749999999999 Q97.625 -42.47999999999999 97.0 -44.85499999999999 H81.0 Q81.25 -42.35499999999999 81.375 -40.10499999999999 Q81.5 -37.85499999999999 81.5 -35.22999999999999 Q81.5 -32.72999999999999 81.375 -30.41749999999999 Q81.25 -28.10499999999999 81.0 -25.60499999999999 Z M79.0 -54.60499999999999 H93.0 Q89.75 -60.60499999999999 84.375 -65.04249999999999 Q79.0 -69.47999999999999 72.25 -71.60499999999999 Q74.75 -67.72999999999999 76.3125 -63.35499999999999 Q77.875 -58.97999999999999 79.0 -54.60499999999999 Z M51.125 -54.60499999999999 H68.75 Q67.375 -59.85499999999999 65.0 -64.60499999999999 Q62.625 -69.35499999999999 59.75 -73.60499999999999 Q57.0 -69.35499999999999 54.8125 -64.60499999999999 Q52.625 -59.85499999999999 51.125 -54.60499999999999 Z M26.875 -54.60499999999999 H40.875 Q42.0 -58.97999999999999 43.4375 -63.35499999999999 Q44.875 -67.72999999999999 47.375 -71.60499999999999 Q40.625 -69.47999999999999 35.375 -65.04249999999999 Q30.125 -60.60499999999999 26.875 -54.60499999999999 Z"/></g><g id="Semibold-M" transform="matrix(1 0 0 1 1985.97 1126)"><path d="M60.0 17.172250000000005 Q49.255375 17.172250000000005 39.7065 13.022875000000013 Q30.1575 8.87337500000001 23.027125 1.7428750000000122 Q15.896625 -5.387499999999989 11.747125 -14.936499999999995 Q7.59775 -24.48537499999999 7.59775 -35.22999999999999 Q7.59775 -46.02887499999999 11.747125 -55.55074999999999 Q15.896625 -65.07249999999999 23.027125 -72.20287499999999 Q30.1575 -79.33337499999999 39.7065 -83.48287499999999 Q49.255375 -87.63224999999998 60.0 -87.63224999999998 Q70.798875 -87.63224999999998 80.32075 -83.48287499999999 Q89.8425 -79.33337499999999 96.972875 -72.20287499999999 Q104.103375 -65.07249999999999 108.252875 -55.55074999999999 Q112.40225 -46.02887499999999 112.40225 -35.22999999999999 Q112.40225 -24.48537499999999 108.252875 -14.936499999999995 Q104.103375 -5.387499999999989 96.972875 1.7428750000000122 Q89.8425 8.87337500000001 80.32075 13.022875000000013 Q70.798875 17.172250000000005 60.0 17.172250000000005 Z M59.85875 3.742750000000015 Q62.826125 -0.6158749999999884 65.201125 -5.4556249999999835 Q67.576125 -10.295249999999996 69.076125 -15.653874999999985 H50.85325 Q52.35325 -10.295249999999996 54.62225 -5.4556249999999835 Q56.89125 -0.6158749999999884 59.85875 3.742750000000015 Z M47.212 1.7427500000000151 Q44.820625 -2.2408749999999884 43.2745 -6.678374999999988 Q41.72825 -11.115874999999988 40.60325 -15.653874999999985 H26.27725 Q29.69025 -9.545249999999996 35.02175 -4.990874999999988 Q40.35325 -0.4364999999999952 47.212 1.7427500000000151 Z M72.576125 1.7427500000000151 Q79.43475 -0.4364999999999952 84.836875 -4.990874999999988 Q90.239125 -9.545249999999996 93.652125 -15.653874999999985 H79.326125 Q78.201125 -11.115874999999988 76.58425 -6.678374999999988 Q74.967375 -2.2408749999999884 72.576125 1.7427500000000151 Z M22.097875 -25.441999999999993 H38.60325 Q38.22825 -27.941999999999993 38.04075 -30.30874999999999 Q37.85325 -32.675625 37.85325 -35.22999999999999 Q37.85325 -37.85499999999999 38.04075 -40.186499999999995 Q38.22825 -42.51799999999999 38.60325 -45.01799999999999 H22.097875 Q21.472875 -42.58874999999999 21.160375 -40.22187499999998 Q20.847875 -37.85499999999999 20.847875 -35.22999999999999 Q20.847875 -32.675625 21.160375 -30.273499999999984 Q21.472875 -27.87124999999999 22.097875 -25.441999999999993 Z M48.60325 -25.441999999999993 H71.326125 Q71.701125 -27.941999999999993 71.817875 -30.30874999999999 Q71.93475 -32.675625 71.93475 -35.22999999999999 Q71.93475 -37.85499999999999 71.817875 -40.186499999999995 Q71.701125 -42.51799999999999 71.326125 -45.01799999999999 H48.60325 Q48.22825 -42.51799999999999 48.04075 -40.186499999999995 Q47.85325 -37.85499999999999 47.85325 -35.22999999999999 Q47.85325 -32.675625 48.04075 -30.30874999999999 Q48.22825 -27.941999999999993 48.60325 -25.441999999999993 Z M81.326125 -25.441999999999993 H97.760875 Q98.385875 -27.87124999999999 98.698375 -30.273499999999984 Q99.010875 -32.675625 99.010875 -35.22999999999999 Q99.010875 -37.85499999999999 98.698375 -40.22187499999998 Q98.385875 -42.58874999999999 97.760875 -45.01799999999999 H81.326125 Q81.630375 -42.51799999999999 81.782625 -40.186499999999995 Q81.93475 -37.85499999999999 81.93475 -35.22999999999999 Q81.93475 -32.675625 81.782625 -30.30874999999999 Q81.630375 -27.941999999999993 81.326125 -25.441999999999993 Z M79.326125 -54.87674999999999 H93.652125 Q90.239125 -60.98537499999999 84.836875 -65.50437499999998 Q79.43475 -70.02349999999998 72.576125 -72.20274999999998 Q74.967375 -68.21912499999999 76.58425 -63.81687499999999 Q78.201125 -59.41474999999999 79.326125 -54.87674999999999 Z M50.85325 -54.87674999999999 H69.076125 Q67.64675 -60.23537499999999 65.27175 -65.03975 Q62.89675 -69.84412499999999 59.85875 -74.20274999999998 Q56.89125 -69.84412499999999 54.62225 -65.03975 Q52.35325 -60.23537499999999 50.85325 -54.87674999999999 Z M26.27725 -54.87674999999999 H40.60325 Q41.72825 -59.41474999999999 43.2745 -63.81687499999999 Q44.820625 -68.21912499999999 47.212 -72.20274999999998 Q40.35325 -70.02349999999998 35.02175 -65.50437499999998 Q29.69025 -60.98537499999999 26.27725 -54.87674999999999 Z"/></g><g id="Medium-M" transform="matrix(1 0 0 1 1689.91 1126)"><path d="M60.0 15.786375000000007 Q49.54075 15.786375000000007 40.236375 11.759125000000012 Q30.932 7.7320000000000135 23.985 0.7850000000000108 Q17.038 -6.161999999999992 13.010875 -15.466374999999985 Q8.983625 -24.770749999999992 8.983625 -35.22999999999999 Q8.983625 -45.78437499999999 13.010875 -55.04112499999999 Q17.038 -64.29799999999999 23.985 -71.24499999999999 Q30.932 -78.192 40.236375 -82.21912499999999 Q49.54075 -86.24637499999999 60.0 -86.24637499999999 Q70.554375 -86.24637499999999 79.811125 -82.21912499999999 Q89.068 -78.192 96.015 -71.24499999999999 Q102.962 -64.29799999999999 106.989125 -55.04112499999999 Q111.016375 -45.78437499999999 111.016375 -35.22999999999999 Q111.016375 -24.770749999999992 106.989125 -15.466374999999985 Q102.962 -6.161999999999992 96.015 0.7850000000000108 Q89.068 7.7320000000000135 79.811125 11.759125000000012 Q70.554375 15.786375000000007 60.0 15.786375000000007 Z M59.94025 4.191250000000011 Q63.070625 -0.24899999999999523 65.445625 -5.109124999999992 Q67.820625 -9.969124999999991 69.320625 -15.409374999999983 H50.6495 Q52.1495 -9.969124999999991 54.479625 -5.109124999999992 Q56.80975 -0.24899999999999523 59.94025 4.191250000000011 Z M47.089625 2.191250000000011 Q44.779875 -1.8739999999999952 43.152125 -6.311499999999995 Q41.5245 -10.748999999999995 40.3995 -15.409374999999983 H25.82875 Q29.364125 -9.219124999999991 34.75675 -4.623999999999995 Q40.1495 -0.028874999999985107 47.089625 2.191250000000011 Z M72.820625 2.191250000000011 Q79.760875 -0.028874999999985107 85.183375 -4.623999999999995 Q90.606 -9.219124999999991 94.14125 -15.409374999999983 H79.570625 Q78.445625 -10.748999999999995 76.788 -6.311499999999995 Q75.130375 -1.8739999999999952 72.820625 2.191250000000011 Z M21.60875 -25.319624999999988 H38.3995 Q38.0245 -27.819624999999988 37.837 -30.227249999999984 Q37.6495 -32.634874999999994 37.6495 -35.22999999999999 Q37.6495 -37.85499999999999 37.837 -40.247624999999985 Q38.0245 -42.64037499999999 38.3995 -45.14037499999999 H21.60875 Q20.98375 -42.670249999999996 20.67125 -40.262624999999986 Q20.35875 -37.85499999999999 20.35875 -35.22999999999999 Q20.35875 -32.634874999999994 20.67125 -30.212374999999994 Q20.98375 -27.789749999999984 21.60875 -25.319624999999988 Z M48.3995 -25.319624999999988 H71.570625 Q71.945625 -27.819624999999988 72.10325 -30.227249999999984 Q72.260875 -32.634874999999994 72.260875 -35.22999999999999 Q72.260875 -37.85499999999999 72.10325 -40.247624999999985 Q71.945625 -42.64037499999999 71.570625 -45.14037499999999 H48.3995 Q48.0245 -42.64037499999999 47.837 -40.247624999999985 Q47.6495 -37.85499999999999 47.6495 -35.22999999999999 Q47.6495 -32.634874999999994 47.837 -30.227249999999984 Q48.0245 -27.819624999999988 48.3995 -25.319624999999988 Z M81.570625 -25.319624999999988 H98.3315 Q98.9565 -27.789749999999984 99.269 -30.212374999999994 Q99.5815 -32.634874999999994 99.5815 -35.22999999999999 Q99.5815 -37.85499999999999 99.269 -40.262624999999986 Q98.9565 -42.670249999999996 98.3315 -45.14037499999999 H81.570625 Q81.91575 -42.64037499999999 82.08825 -40.247624999999985 Q82.260875 -37.85499999999999 82.260875 -35.22999999999999 Q82.260875 -32.634874999999994 82.08825 -30.227249999999984 Q81.91575 -27.819624999999988 81.570625 -25.319624999999988 Z M79.570625 -55.08049999999999 H94.14125 Q90.606 -61.27074999999999 85.183375 -65.85087499999999 Q79.760875 -70.43112499999998 72.820625 -72.65124999999999 Q75.130375 -68.58599999999998 76.788 -64.16337499999999 Q78.445625 -59.74087499999999 79.570625 -55.08049999999999 Z M50.6495 -55.08049999999999 H69.320625 Q67.8505 -60.52074999999999 65.4755 -65.36587499999999 Q63.1005 -70.21099999999998 59.94025 -74.65124999999999 Q56.80975 -70.21099999999998 54.479625 -65.36587499999999 Q52.1495 -60.52074999999999 50.6495 -55.08049999999999 Z M25.82875 -55.08049999999999 H40.3995 Q41.5245 -59.74087499999999 43.152125 -64.16337499999999 Q44.779875 -68.58599999999998 47.089625 -72.65124999999999 Q40.1495 -70.43112499999998 34.75675 -65.85087499999999 Q29.364125 -61.27074999999999 25.82875 -55.08049999999999 Z"/></g><g id="Regular-M" transform="matrix(1 0 0 1 1394.06 1126)"><path d="M60.0 14.77000000000001 Q49.75 14.77000000000001 40.625 10.83250000000001 Q31.5 6.89500000000001 24.6875 0.08250000000001023 Q17.875 -6.72999999999999 13.9375 -15.85499999999999 Q10.0 -24.97999999999999 10.0 -35.22999999999999 Q10.0 -45.60499999999999 13.9375 -54.66749999999999 Q17.875 -63.72999999999999 24.6875 -70.54249999999999 Q31.5 -77.35499999999999 40.625 -81.29249999999999 Q49.75 -85.22999999999999 60.0 -85.22999999999999 Q70.375 -85.22999999999999 79.4375 -81.29249999999999 Q88.5 -77.35499999999999 95.3125 -70.54249999999999 Q102.125 -63.72999999999999 106.0625 -54.66749999999999 Q110.0 -45.60499999999999 110.0 -35.22999999999999 Q110.0 -24.97999999999999 106.0625 -15.85499999999999 Q102.125 -6.72999999999999 95.3125 0.08250000000001023 Q88.5 6.89500000000001 79.4375 10.83250000000001 Q70.375 14.77000000000001 60.0 14.77000000000001 Z M60.0 4.52000000000001 Q63.25 0.020000000000010232 65.625 -4.85499999999999 Q68.0 -9.72999999999999 69.5 -15.22999999999999 H50.5 Q52.0 -9.72999999999999 54.375 -4.85499999999999 Q56.75 0.020000000000010232 60.0 4.52000000000001 Z M47.0 2.5200000000000102 Q44.75 -1.6049999999999898 43.0625 -6.04249999999999 Q41.375 -10.47999999999999 40.25 -15.22999999999999 H25.5 Q29.125 -8.97999999999999 34.5625 -4.35499999999999 Q40.0 0.27000000000001023 47.0 2.5200000000000102 Z M73.0 2.5200000000000102 Q80.0 0.27000000000001023 85.4375 -4.35499999999999 Q90.875 -8.97999999999999 94.5 -15.22999999999999 H79.75 Q78.625 -10.47999999999999 76.9375 -6.04249999999999 Q75.25 -1.6049999999999898 73.0 2.5200000000000102 Z M21.25 -25.22999999999999 H38.25 Q37.875 -27.72999999999999 37.6875 -30.16749999999999 Q37.5 -32.60499999999999 37.5 -35.22999999999999 Q37.5 -37.85499999999999 37.6875 -40.29249999999999 Q37.875 -42.72999999999999 38.25 -45.22999999999999 H21.25 Q20.625 -42.72999999999999 20.3125 -40.29249999999999 Q20.0 -37.85499999999999 20.0 -35.22999999999999 Q20.0 -32.60499999999999 20.3125 -30.16749999999999 Q20.625 -27.72999999999999 21.25 -25.22999999999999 Z M48.25 -25.22999999999999 H71.75 Q72.125 -27.72999999999999 72.3125 -30.16749999999999 Q72.5 -32.60499999999999 72.5 -35.22999999999999 Q72.5 -37.85499999999999 72.3125 -40.29249999999999 Q72.125 -42.72999999999999 71.75 -45.22999999999999 H48.25 Q47.875 -42.72999999999999 47.6875 -40.29249999999999 Q47.5 -37.85499999999999 47.5 -35.22999999999999 Q47.5 -32.60499999999999 47.6875 -30.16749999999999 Q47.875 -27.72999999999999 48.25 -25.22999999999999 Z M81.75 -25.22999999999999 H98.75 Q99.375 -27.72999999999999 99.6875 -30.16749999999999 Q100.0 -32.60499999999999 100.0 -35.22999999999999 Q100.0 -37.85499999999999 99.6875 -40.29249999999999 Q99.375 -42.72999999999999 98.75 -45.22999999999999 H81.75 Q82.125 -42.72999999999999 82.3125 -40.29249999999999 Q82.5 -37.85499999999999 82.5 -35.22999999999999 Q82.5 -32.60499999999999 82.3125 -30.16749999999999 Q82.125 -27.72999999999999 81.75 -25.22999999999999 Z M79.75 -55.22999999999999 H94.5 Q90.875 -61.47999999999999 85.4375 -66.10499999999999 Q80.0 -70.72999999999999 73.0 -72.97999999999999 Q75.25 -68.85499999999999 76.9375 -64.41749999999999 Q78.625 -59.97999999999999 79.75 -55.22999999999999 Z M50.5 -55.22999999999999 H69.5 Q68.0 -60.72999999999999 65.625 -65.60499999999999 Q63.25 -70.47999999999999 60.0 -74.97999999999999 Q56.75 -70.47999999999999 54.375 -65.60499999999999 Q52.0 -60.72999999999999 50.5 -55.22999999999999 Z M25.5 -55.22999999999999 H40.25 Q41.375 -59.97999999999999 43.0625 -64.41749999999999 Q44.75 -68.85499999999999 47.0 -72.97999999999999 Q40.0 -70.72999999999999 34.5625 -66.10499999999999 Q29.125 -61.47999999999999 25.5 -55.22999999999999 Z"/></g><g id="Light-M" transform="matrix(1 0 0 1 1098.18 1126)"><path d="M60.0 12.269875000000013 Q50.23075 12.269875000000013 41.562625 8.524625000000015 Q32.894375 4.779500000000013 26.442375 -1.6723749999999882 Q19.9905 -8.124374999999986 16.245375 -16.792624999999987 Q12.500125 -25.46074999999999 12.500125 -35.22999999999999 Q12.500125 -45.07612499999999 16.245375 -53.70587499999999 Q19.9905 -62.33562499999999 26.442375 -68.78762499999999 Q32.894375 -75.23949999999999 41.562625 -78.984625 Q50.23075 -82.72987499999999 60.0 -82.72987499999999 Q69.846125 -82.72987499999999 78.475875 -78.984625 Q87.105625 -75.23949999999999 93.557625 -68.78762499999999 Q100.0095 -62.33562499999999 103.754625 -53.70587499999999 Q107.499875 -45.07612499999999 107.499875 -35.22999999999999 Q107.499875 -25.46074999999999 103.754625 -16.792624999999987 Q100.0095 -8.124374999999986 93.557625 -1.6723749999999882 Q87.105625 4.779500000000013 78.475875 8.524625000000015 Q69.846125 12.269875000000013 60.0 12.269875000000013 Z M60.0 4.66425000000001 Q63.827 -0.4127499999999884 66.442375 -5.5762499999999875 Q69.05775 -10.739749999999987 70.702 -16.864749999999987 H49.298 Q51.038375 -10.547374999999988 53.60575 -5.383874999999989 Q56.173 -0.22037499999999 60.0 4.66425000000001 Z M50.3175 3.2892500000000098 Q47.4425 -0.8357499999999902 45.154 -6.090624999999989 Q42.8655 -11.345499999999987 41.59625 -16.864749999999987 H24.6345 Q28.596125 -9.07612499999999 35.259625 -3.7779999999999916 Q41.92325 1.5201250000000073 50.3175 3.2892500000000098 Z M69.6825 3.2892500000000098 Q78.07675 1.5201250000000073 84.740375 -3.7779999999999916 Q91.403875 -9.07612499999999 95.3655 -16.864749999999987 H78.40375 Q76.894125 -11.297374999999988 74.605625 -6.04249999999999 Q72.317125 -0.7876249999999914 69.6825 3.2892500000000098 Z M21.490375 -24.364499999999992 H40.077 Q39.605875 -27.15299999999999 39.394375 -29.830874999999992 Q39.182875 -32.50887499999999 39.182875 -35.22999999999999 Q39.182875 -37.95112499999999 39.394375 -40.62912499999999 Q39.605875 -43.30699999999999 40.077 -46.09549999999999 H21.490375 Q20.76925 -43.54737499999999 20.384625 -40.79737499999999 Q20.0 -38.04737499999999 20.0 -35.22999999999999 Q20.0 -32.41262499999999 20.384625 -29.66262499999999 Q20.76925 -26.91262499999999 21.490375 -24.364499999999992 Z M47.576875 -24.364499999999992 H72.423125 Q72.89425 -27.15299999999999 73.105875 -29.78287499999999 Q73.317375 -32.41262499999999 73.317375 -35.22999999999999 Q73.317375 -38.04737499999999 73.105875 -40.67712499999999 Q72.89425 -43.30699999999999 72.423125 -46.09549999999999 H47.576875 Q47.10575 -43.30699999999999 46.894125 -40.67712499999999 Q46.682625 -38.04737499999999 46.682625 -35.22999999999999 Q46.682625 -32.41262499999999 46.894125 -29.78287499999999 Q47.10575 -27.15299999999999 47.576875 -24.364499999999992 Z M79.923 -24.364499999999992 H98.509625 Q99.23075 -26.91262499999999 99.615375 -29.66262499999999 Q100.0 -32.41262499999999 100.0 -35.22999999999999 Q100.0 -38.04737499999999 99.615375 -40.79737499999999 Q99.23075 -43.54737499999999 98.509625 -46.09549999999999 H79.923 Q80.394125 -43.30699999999999 80.605625 -40.62912499999999 Q80.817125 -37.95112499999999 80.817125 -35.22999999999999 Q80.817125 -32.50887499999999 80.605625 -29.830874999999992 Q80.394125 -27.15299999999999 79.923 -24.364499999999992 Z M78.40375 -53.59524999999999 H95.3655 Q91.35575 -61.47999999999999 84.8125 -66.68199999999999 Q78.269125 -71.88387499999999 69.6825 -73.79737499999999 Q72.5575 -69.43199999999999 74.797875 -64.24924999999999 Q77.038375 -59.06649999999999 78.40375 -53.59524999999999 Z M49.298 -53.59524999999999 H70.702 Q68.961625 -59.86449999999999 66.322125 -65.14824999999999 Q63.68275 -70.43187499999999 60.0 -75.12424999999999 Q56.31725 -70.43187499999999 53.677875 -65.14824999999999 Q51.038375 -59.86449999999999 49.298 -53.59524999999999 Z M24.6345 -53.59524999999999 H41.59625 Q42.961625 -59.06649999999999 45.202125 -64.24924999999999 Q47.4425 -69.43199999999999 50.3175 -73.79737499999999 Q41.682875 -71.88387499999999 35.1635 -66.65787499999999 Q28.64425 -61.43187499999999 24.6345 -53.59524999999999 Z"/></g><g id="Thin-M" transform="matrix(1 0 0 1 802.565 1126)"><path d="M60.0 9.77000000000001 Q50.7115 9.77000000000001 42.5 6.21712500000001 Q34.2885 2.6642500000000098 28.197125 -3.4271249999999895 Q22.10575 -9.518499999999989 18.552875 -17.72999999999999 Q15.0 -25.94149999999999 15.0 -35.22999999999999 Q15.0 -44.54737499999999 18.552875 -52.74437499999999 Q22.10575 -60.94149999999999 28.197125 -67.03287499999999 Q34.2885 -73.12424999999999 42.5 -76.67712499999999 Q50.7115 -80.22999999999999 60.0 -80.22999999999999 Q69.317375 -80.22999999999999 77.514375 -76.67712499999999 Q85.7115 -73.12424999999999 91.802875 -67.03287499999999 Q97.89425 -60.94149999999999 101.447125 -52.74437499999999 Q105.0 -44.54737499999999 105.0 -35.22999999999999 Q105.0 -25.94149999999999 101.447125 -17.72999999999999 Q97.89425 -9.518499999999989 91.802875 -3.4271249999999895 Q85.7115 2.6642500000000098 77.514375 6.21712500000001 Q69.317375 9.77000000000001 60.0 9.77000000000001 Z M60.0 4.808500000000009 Q64.403875 -0.84537499999999 67.259625 -6.297249999999991 Q70.115375 -11.74924999999999 71.903875 -18.49924999999999 H48.096125 Q50.076875 -11.36462499999999 52.8365 -5.912624999999991 Q55.596125 -0.4607499999999902 60.0 4.808500000000009 Z M53.634625 4.058500000000009 Q50.134625 -0.06649999999999068 47.245125 -6.1386249999999905 Q44.35575 -12.21074999999999 42.94225 -18.49924999999999 H23.76925 Q28.067375 -9.172249999999991 35.95675 -3.2011249999999905 Q43.846125 2.7700000000000102 53.634625 4.058500000000009 Z M66.365375 4.058500000000009 Q76.153875 2.7700000000000102 84.04325 -3.2011249999999905 Q91.932625 -9.172249999999991 96.23075 -18.49924999999999 H77.05775 Q75.1635 -12.11462499999999 72.274125 -6.04249999999999 Q69.384625 0.029625000000010004 66.365375 4.058500000000009 Z M21.73075 -23.49924999999999 H41.903875 Q41.3365 -26.57612499999999 41.101 -29.49437499999999 Q40.865375 -32.41274999999999 40.865375 -35.22999999999999 Q40.865375 -38.04724999999999 41.101 -40.96562499999999 Q41.3365 -43.88387499999999 41.903875 -46.96074999999999 H21.73075 Q20.9135 -44.36462499999999 20.45675 -41.30212499999999 Q20.0 -38.23962499999999 20.0 -35.22999999999999 Q20.0 -32.22037499999999 20.45675 -29.15787499999999 Q20.9135 -26.09537499999999 21.73075 -23.49924999999999 Z M46.903875 -23.49924999999999 H73.096125 Q73.6635 -26.57612499999999 73.899 -29.39824999999999 Q74.134625 -32.22037499999999 74.134625 -35.22999999999999 Q74.134625 -38.23962499999999 73.899 -41.06174999999999 Q73.6635 -43.88387499999999 73.096125 -46.96074999999999 H46.903875 Q46.3365 -43.88387499999999 46.101 -41.06174999999999 Q45.865375 -38.23962499999999 45.865375 -35.22999999999999 Q45.865375 -32.22037499999999 46.101 -29.39824999999999 Q46.3365 -26.57612499999999 46.903875 -23.49924999999999 Z M78.096125 -23.49924999999999 H98.26925 Q99.0865 -26.09537499999999 99.54325 -29.15787499999999 Q100.0 -32.22037499999999 100.0 -35.22999999999999 Q100.0 -38.23962499999999 99.54325 -41.30212499999999 Q99.0865 -44.36462499999999 98.26925 -46.96074999999999 H78.096125 Q78.6635 -43.88387499999999 78.899125 -40.96562499999999 Q79.134625 -38.04724999999999 79.134625 -35.22999999999999 Q79.134625 -32.41274999999999 78.899125 -29.49437499999999 Q78.6635 -26.57612499999999 78.096125 -23.49924999999999 Z M77.05775 -51.96074999999999 H96.23075 Q91.8365 -61.47999999999999 84.1875 -67.25887499999999 Q76.5385 -73.03762499999999 66.365375 -74.61462499999999 Q69.865375 -70.00887499999999 72.658625 -64.08099999999999 Q75.452 -58.15312499999999 77.05775 -51.96074999999999 Z M48.096125 -51.96074999999999 H71.903875 Q69.923125 -58.99924999999999 67.01925 -64.69149999999999 Q64.115375 -70.38387499999999 60.0 -75.26849999999999 Q55.884625 -70.38387499999999 52.98075 -64.69149999999999 Q50.076875 -58.99924999999999 48.096125 -51.96074999999999 Z M23.76925 -51.96074999999999 H42.94225 Q44.548 -58.15312499999999 47.341375 -64.08099999999999 Q50.134625 -70.00887499999999 53.634625 -74.61462499999999 Q43.365375 -73.03762499999999 35.764375 -67.21074999999999 Q28.1635 -61.38387499999999 23.76925 -51.96074999999999 Z"/></g><g id="Ultralight-M" transform="matrix(1 0 0 1 506.415 1126)"><path d="M60.0 8.27000000000001 Q51.0 8.27000000000001 43.0625 4.83250000000001 Q35.125 1.3950000000000102 29.25 -4.47999999999999 Q23.375 -10.35499999999999 19.9375 -18.29249999999999 Q16.5 -26.22999999999999 16.5 -35.22999999999999 Q16.5 -44.22999999999999 19.9375 -52.16749999999999 Q23.375 -60.10499999999999 29.25 -65.97999999999999 Q35.125 -71.85499999999999 43.0625 -75.29249999999999 Q51.0 -78.72999999999999 60.0 -78.72999999999999 Q69.0 -78.72999999999999 76.9375 -75.29249999999999 Q84.875 -71.85499999999999 90.75 -65.97999999999999 Q96.625 -60.10499999999999 100.0625 -52.16749999999999 Q103.5 -44.22999999999999 103.5 -35.22999999999999 Q103.5 -26.22999999999999 100.0625 -18.29249999999999 Q96.625 -10.35499999999999 90.75 -4.47999999999999 Q84.875 1.3950000000000102 76.9375 4.83250000000001 Q69.0 8.27000000000001 60.0 8.27000000000001 Z M60.0 4.89500000000001 Q64.75 -1.1049999999999898 67.75 -6.72999999999999 Q70.75 -12.35499999999999 72.625 -19.47999999999999 H47.375 Q49.5 -11.85499999999999 52.375 -6.22999999999999 Q55.25 -0.6049999999999898 60.0 4.89500000000001 Z M55.625 4.52000000000001 Q51.75 0.39500000000001023 48.5 -6.16749999999999 Q45.25 -12.72999999999999 43.75 -19.47999999999999 H23.25 Q27.75 -9.22999999999999 36.375 -2.8549999999999898 Q45.0 3.5200000000000102 55.625 4.52000000000001 Z M64.375 4.52000000000001 Q75.0 3.5200000000000102 83.625 -2.8549999999999898 Q92.25 -9.22999999999999 96.75 -19.47999999999999 H76.25 Q74.125 -12.60499999999999 70.875 -6.04249999999999 Q67.625 0.5200000000000102 64.375 4.52000000000001 Z M21.875 -22.97999999999999 H43.0 Q42.375 -26.22999999999999 42.125 -29.29249999999999 Q41.875 -32.35499999999999 41.875 -35.22999999999999 Q41.875 -38.10499999999999 42.125 -41.16749999999999 Q42.375 -44.22999999999999 43.0 -47.47999999999999 H21.875 Q21.0 -44.85499999999999 20.5 -41.60499999999999 Q20.0 -38.35499999999999 20.0 -35.22999999999999 Q20.0 -32.10499999999999 20.5 -28.85499999999999 Q21.0 -25.60499999999999 21.875 -22.97999999999999 Z M46.5 -22.97999999999999 H73.5 Q74.125 -26.22999999999999 74.375 -29.16749999999999 Q74.625 -32.10499999999999 74.625 -35.22999999999999 Q74.625 -38.35499999999999 74.375 -41.29249999999999 Q74.125 -44.22999999999999 73.5 -47.47999999999999 H46.5 Q45.875 -44.22999999999999 45.625 -41.29249999999999 Q45.375 -38.35499999999999 45.375 -35.22999999999999 Q45.375 -32.10499999999999 45.625 -29.16749999999999 Q45.875 -26.22999999999999 46.5 -22.97999999999999 Z M77.0 -22.97999999999999 H98.125 Q99.0 -25.60499999999999 99.5 -28.85499999999999 Q100.0 -32.10499999999999 100.0 -35.22999999999999 Q100.0 -38.35499999999999 99.5 -41.60499999999999 Q99.0 -44.85499999999999 98.125 -47.47999999999999 H77.0 Q77.625 -44.22999999999999 77.875 -41.16749999999999 Q78.125 -38.10499999999999 78.125 -35.22999999999999 Q78.125 -32.35499999999999 77.875 -29.29249999999999 Q77.625 -26.22999999999999 77.0 -22.97999999999999 Z M76.25 -50.97999999999999 H96.75 Q92.125 -61.47999999999999 83.8125 -67.60499999999999 Q75.5 -73.72999999999999 64.375 -75.10499999999999 Q68.25 -70.35499999999999 71.375 -63.97999999999999 Q74.5 -57.60499999999999 76.25 -50.97999999999999 Z M47.375 -50.97999999999999 H72.625 Q70.5 -58.47999999999999 67.4375 -64.41749999999999 Q64.375 -70.35499999999999 60.0 -75.35499999999999 Q55.625 -70.35499999999999 52.5625 -64.41749999999999 Q49.5 -58.47999999999999 47.375 -50.97999999999999 Z M23.25 -50.97999999999999 H43.75 Q45.5 -57.60499999999999 48.625 -63.97999999999999 Q51.75 -70.35499999999999 55.625 -75.10499999999999 Q44.375 -73.72999999999999 36.125 -67.54249999999999 Q27.875 -61.35499999999999 23.25 -50.97999999999999 Z"/></g><g id="Bold-S" transform="matrix(1 0 0 1 2294.23 696)"><path d="M47.34 5.995250000000013 Q38.85825 5.995250000000013 31.362750000000002 2.7406250000000085 Q23.867250000000002 -0.5139999999999958 18.245625 -6.13562499999999 Q12.624 -11.757249999999999 9.369375 -19.252749999999992 Q6.11475 -26.74825 6.11475 -35.23 Q6.11475 -43.711749999999995 9.369375 -51.207249999999995 Q12.624 -58.702749999999995 18.245625 -64.324375 Q23.867250000000002 -69.946 31.362750000000002 -73.200625 Q38.85825 -76.45524999999999 47.34 -76.45524999999999 Q55.82175 -76.45524999999999 63.31725 -73.200625 Q70.81275000000001 -69.946 76.434375 -64.324375 Q82.056 -58.702749999999995 85.310625 -51.207249999999995 Q88.56525 -43.711749999999995 88.56525 -35.23 Q88.56525 -26.74825 85.310625 -19.252749999999992 Q82.056 -11.757249999999999 76.434375 -6.13562499999999 Q70.81275000000001 -0.5139999999999958 63.31725 2.7406250000000085 Q55.82175 5.995250000000013 47.34 5.995250000000013 Z M47.14275 -5.839749999999995 Q48.424875 -7.319125 50.1015 -11.855874999999997 Q51.778125 -16.392624999999995 52.66575 -21.619749999999996 H41.915625 Q42.80325 -16.392624999999995 44.3319375 -11.855874999999997 Q45.860625 -7.319125 47.14275 -5.839749999999995 Z M38.661 -6.825999999999993 Q37.083 -9.587499999999991 36.244687500000005 -13.433874999999986 Q35.406375000000004 -17.280249999999995 34.716 -21.619749999999996 H21.204375000000002 Q23.768625 -16.195375 28.3546875 -12.29968749999999 Q32.94075 -8.403999999999996 38.661 -6.825999999999993 Z M55.723125 -6.825999999999993 Q61.443375 -8.403999999999996 66.1280625 -12.29968749999999 Q70.81275000000001 -16.195375 73.37700000000001 -21.619749999999996 H59.865375 Q59.175000000000004 -17.280249999999995 58.238062500000005 -13.433874999999986 Q57.301125 -9.587499999999991 55.723125 -6.825999999999993 Z M62.52825 -28.424874999999993 H77.7165 Q78.209625 -30.29874999999999 78.406875 -31.926062499999993 Q78.60412500000001 -33.553374999999996 78.60412500000001 -35.23 Q78.60412500000001 -37.00525 78.406875 -38.63256249999999 Q78.209625 -40.259874999999994 77.7165 -42.035124999999994 H62.52825 Q62.725500000000004 -40.259874999999994 62.7748125 -38.53393749999999 Q62.824125 -36.80799999999999 62.824125 -35.03274999999999 Q62.824125 -33.35612499999999 62.7748125 -31.679499999999997 Q62.725500000000004 -30.002874999999996 62.52825 -28.424874999999993 Z M41.028 -28.424874999999993 H53.553375 Q53.750625 -30.397374999999997 53.7013125 -32.02468749999999 Q53.652 -33.651999999999994 53.652 -35.23 Q53.652 -36.90662499999999 53.7013125 -38.53393749999999 Q53.750625 -40.161249999999995 53.553375 -42.035124999999994 H41.028 Q40.83075 -40.161249999999995 40.7814375 -38.53393749999999 Q40.732125 -36.90662499999999 40.732125 -35.23 Q40.732125 -33.651999999999994 40.7814375 -31.975374999999993 Q40.83075 -30.29874999999999 41.028 -28.424874999999993 Z M16.864875 -28.424874999999993 H31.954500000000003 Q31.757250000000003 -30.200124999999993 31.7079375 -31.975374999999993 Q31.658625 -33.75062499999999 31.658625 -35.427249999999994 Q31.658625 -37.20249999999999 31.7079375 -38.829812499999996 Q31.757250000000003 -40.457125 31.954500000000003 -42.035124999999994 H16.864875 Q16.273125 -40.161249999999995 16.0265625 -38.58324999999999 Q15.780000000000001 -37.00525 15.780000000000001 -35.23 Q15.780000000000001 -33.553374999999996 16.0265625 -31.926062499999993 Q16.273125 -30.29874999999999 16.864875 -28.424874999999993 Z M59.865375 -48.938874999999996 H73.37700000000001 Q70.81275000000001 -54.363249999999994 66.1280625 -58.209624999999996 Q61.443375 -62.056 55.723125 -63.634 Q57.301125 -60.872499999999995 58.238062500000005 -57.07543749999999 Q59.175000000000004 -53.278375 59.865375 -48.938874999999996 Z M41.915625 -48.938874999999996 H52.66575 Q51.87675 -54.166 50.200125 -58.653437499999995 Q48.523500000000006 -63.140874999999994 47.14275 -64.62025 Q45.860625 -63.140874999999994 44.3319375 -58.653437499999995 Q42.80325 -54.166 41.915625 -48.938874999999996 Z M21.204375000000002 -48.938874999999996 H34.716 Q35.406375000000004 -53.278375 36.244687500000005 -57.07543749999999 Q37.083 -60.872499999999995 38.661 -63.634 Q32.94075 -62.056 28.3546875 -58.209624999999996 Q23.768625 -54.363249999999994 21.204375000000002 -48.938874999999996 Z"/></g><g id="Semibold-S" transform="matrix(1 0 0 1 1998.1 696)"><path d="M47.34 4.537375249999997 Q39.158365875 4.537375249999997 31.9201785 1.4114558750000157 Q24.6818925 -1.7145621249999863 19.253276625 -7.143276624999984 Q13.824562125 -12.57189249999999 10.698544125000002 -19.810178499999992 Q7.57262475 -27.048365874999988 7.57262475 -35.23 Q7.57262475 -43.454437375 10.698544125000002 -50.67132174999999 Q13.824562125 -57.8881075 19.253276625 -63.316723374999995 Q24.6818925 -68.745437875 31.9201785 -71.871455875 Q39.158365875 -74.99737524999999 47.34 -74.99737524999999 Q55.564437375 -74.99737524999999 62.781321750000004 -71.871455875 Q69.9981075 -68.745437875 75.42672337500001 -63.316723374999995 Q80.855437875 -57.8881075 83.98145587500001 -50.67132174999999 Q87.10737525 -43.454437375 87.10737525 -35.23 Q87.10737525 -27.048365874999988 83.98145587500001 -19.810178499999992 Q80.855437875 -12.57189249999999 75.42672337500001 -7.143276624999984 Q69.9981075 -1.7145621249999863 62.781321750000004 1.4114558750000157 Q55.564437375 4.537375249999997 47.34 4.537375249999997 Z M47.22855375 -5.368125249999991 Q48.682187625 -6.933205374999986 50.358812625 -11.491455624999986 Q52.03543762500001 -16.049607249999994 52.92306262500001 -21.362437374999985 H41.70121425000001 Q42.58883925000001 -16.049607249999994 44.181830250000004 -11.491455624999986 Q45.77482125 -6.933205374999986 47.22855375 -5.368125249999991 Z M38.532393000000006 -6.35437524999999 Q37.040098125 -9.201580374999992 36.1160805 -13.047955374999987 Q35.191964250000005 -16.894330374999996 34.50158925 -21.362437374999985 H20.73275025 Q23.42560725 -15.852357249999997 28.07597325 -11.91376787499999 Q32.72633925 -7.975178499999998 38.532393000000006 -6.35437524999999 Z M55.98043762500001 -6.35437524999999 Q61.78639275 -7.975178499999998 66.49248187500001 -11.91376787499999 Q71.19866962500001 -15.852357249999997 73.891526625 -21.362437374999985 H60.122687625000005 Q59.43231262500001 -16.894330374999996 58.45247325 -13.047955374999987 Q57.47263387500001 -9.201580374999992 55.98043762500001 -6.35437524999999 Z M62.013723375000005 -28.296267999999998 H77.50208925000001 Q77.99521425 -30.170142999999996 78.19246425 -31.840258749999997 Q78.38971425000001 -33.510473125 78.38971425000001 -35.23 Q78.38971425000001 -37.00525 78.19246425 -38.696866 Q77.99521425 -40.38848199999999 77.50208925000001 -42.16373199999999 H62.013723375000005 Q62.210973375 -40.34567875 62.260285875 -38.57683937499999 Q62.30959837500001 -36.80799999999999 62.30959837500001 -35.03274999999999 Q62.30959837500001 -33.313223125 62.260285875 -31.61519649999999 Q62.210973375 -29.917071249999992 62.013723375000005 -28.296267999999998 Z M40.81358925000001 -28.296267999999998 H53.81068762500001 Q54.007937625000004 -30.268767999999994 54.001428375 -31.938883749999995 Q53.995017749999995 -33.609098125 53.995017749999995 -35.23 Q53.995017749999995 -36.90662499999999 54.001428375 -38.598241 Q54.007937625000004 -40.28985699999999 53.81068762500001 -42.16373199999999 H40.81358925000001 Q40.61633925 -40.28985699999999 40.567026750000004 -38.598241 Q40.517714250000004 -36.90662499999999 40.517714250000004 -35.23 Q40.517714250000004 -33.609098125 40.567026750000004 -31.889571249999996 Q40.61633925 -30.170142999999996 40.81358925000001 -28.296267999999998 Z M17.122187625000002 -28.296267999999998 H32.554830375 Q32.357580375 -30.114321249999996 32.308267875 -31.91107149999999 Q32.258955375 -33.707723125 32.258955375 -35.427249999999994 Q32.258955375 -37.20249999999999 32.308267875 -38.87271437499999 Q32.357580375 -40.542928749999994 32.554830375 -42.16373199999999 H17.122187625000002 Q16.573240875 -40.28985699999999 16.348178625 -38.6475535 Q16.123017750000002 -37.00525 16.123017750000002 -35.23 Q16.123017750000002 -33.510473125 16.348178625 -31.840258749999997 Q16.573240875 -30.170142999999996 17.122187625000002 -28.296267999999998 Z M60.122687625000005 -49.153285749999995 H73.891526625 Q71.19866962500001 -54.663365875 66.49248187500001 -58.57404437499999 Q61.78639275 -62.484821499999995 55.98043762500001 -64.10562474999999 Q57.47263387500001 -61.258419624999995 58.45247325 -57.439856875 Q59.43231262500001 -53.62139275 60.122687625000005 -49.153285749999995 Z M41.70121425000001 -49.153285749999995 H52.92306262500001 Q52.09116075 -54.46611587499999 50.41453575 -58.99645525 Q48.73791075 -63.526794624999994 47.22855375 -65.09187474999999 Q45.77482125 -63.526794624999994 44.181830250000004 -58.99645525 Q42.58883925000001 -54.46611587499999 41.70121425000001 -49.153285749999995 Z M20.73275025 -49.153285749999995 H34.50158925 Q35.191964250000005 -53.62139275 36.1160805 -57.439856875 Q37.040098125 -61.258419624999995 38.532393000000006 -64.10562474999999 Q32.72633925 -62.484821499999995 28.07597325 -58.57404437499999 Q23.42560725 -54.663365875 20.73275025 -49.153285749999995 Z"/></g><g id="Medium-S" transform="matrix(1 0 0 1 1701.85 696)"><path d="M47.34 3.443919875000006 Q39.38352675 3.443919875000006 32.338249875 0.4143571250000093 Q25.292973000000003 -2.6151069999999947 20.00904 -7.899039999999999 Q14.725107000000001 -13.18297299999999 11.695642875 -20.22824987499999 Q8.666080125 -27.273526750000002 8.666080125 -35.23 Q8.666080125 -43.261526874999994 11.695642875 -50.26922762499999 Q14.725107000000001 -57.277027 20.00904 -62.560959999999994 Q25.292973000000003 -67.844893 32.338249875 -70.87435712499999 Q39.38352675 -73.903919875 47.34 -73.903919875 Q55.371526874999994 -73.903919875 62.379227625000006 -70.87435712499999 Q69.387027 -67.844893 74.67096000000001 -62.560959999999994 Q79.95489300000001 -57.277027 82.984357125 -50.26922762499999 Q86.013919875 -43.261526874999994 86.013919875 -35.23 Q86.013919875 -27.273526750000002 82.984357125 -20.22824987499999 Q79.95489300000001 -13.18297299999999 74.67096000000001 -7.899039999999999 Q69.387027 -2.6151069999999947 62.379227625000006 0.4143571250000093 Q55.371526874999994 3.443919875000006 47.34 3.443919875000006 Z M47.292857250000004 -5.014258749999996 Q48.875098125 -6.6437409999999915 50.55172312500001 -11.21806712499999 Q52.22834812500001 -15.792294624999997 53.11597312500001 -21.16952687499999 H41.54045550000001 Q42.42808050000001 -15.792294624999997 44.069299125 -11.21806712499999 Q45.71051775 -6.6437409999999915 47.292857250000004 -5.014258749999996 Z M38.435839125 -6.0005087499999945 Q37.007946374999996 -8.912115999999997 36.019526625 -12.758490999999992 Q35.031205500000006 -16.604866 34.3408305 -21.16952687499999 H20.37888375 Q23.168294625 -15.595044625 27.86688825 -11.624303499999996 Q32.5655805 -7.653562374999993 38.435839125 -6.0005087499999945 Z M56.17334812500001 -6.0005087499999945 Q62.043705375 -7.653562374999993 66.765870375 -11.624303499999996 Q71.488134 -15.595044625 74.27744625 -21.16952687499999 H60.31559812500001 Q59.625223125000005 -16.604866 58.613231999999996 -12.758490999999992 Q57.601240875 -8.912115999999997 56.17334812500001 -6.0005087499999945 Z M61.627803750000005 -28.199714124999993 H77.34133050000001 Q77.8344555 -30.07358912499999 78.0317055 -31.77595524999999 Q78.22895550000001 -33.478321375 78.22895550000001 -35.23 Q78.22895550000001 -37.00525 78.0317055 -38.74509362499999 Q77.8344555 -40.485035874999994 77.34133050000001 -42.260285874999994 H61.627803750000005 Q61.82505375 -40.40998225 61.87436625 -38.60899112499999 Q61.92367875 -36.80799999999999 61.92367875 -35.03274999999999 Q61.92367875 -33.281071374999996 61.87436625 -31.566968875 Q61.82505375 -29.85276774999999 61.627803750000005 -28.199714124999993 Z M40.65283050000001 -28.199714124999993 H54.00359812500001 Q54.20084812500001 -30.17221412499999 54.22658925 -31.874580249999987 Q54.252330375 -33.576946375 54.252330375 -35.23 Q54.252330375 -36.90662499999999 54.22658925 -38.64646862499999 Q54.20084812500001 -40.386410874999996 54.00359812500001 -42.260285874999994 H40.65283050000001 Q40.4555805 -40.386410874999996 40.406268000000004 -38.64646862499999 Q40.356955500000005 -36.90662499999999 40.356955500000005 -35.23 Q40.356955500000005 -33.576946375 40.406268000000004 -31.825267749999988 Q40.4555805 -30.07358912499999 40.65283050000001 -28.199714124999993 Z M17.315098125000002 -28.199714124999993 H33.0050535 Q32.8078035 -30.050017749999988 32.758491 -31.862843874999996 Q32.7091785 -33.675571375 32.7091785 -35.427249999999994 Q32.7091785 -37.20249999999999 32.758491 -38.90486612499999 Q32.8078035 -40.60723225 33.0050535 -42.260285874999994 H17.315098125000002 Q16.79840175 -40.386410874999996 16.58931675 -38.69578112499999 Q16.380330375 -37.00525 16.380330375 -35.23 Q16.380330375 -33.478321375 16.58931675 -31.77595524999999 Q16.79840175 -30.07358912499999 17.315098125000002 -28.199714124999993 Z M60.31559812500001 -49.314044499999994 H74.27744625 Q71.488134 -54.88852675 66.765870375 -58.847432874999996 Q62.043705375 -62.806437624999994 56.17334812500001 -64.45949125 Q57.601240875 -61.547883999999996 58.613231999999996 -57.71324537499999 Q59.625223125000005 -53.878705374999996 60.31559812500001 -49.314044499999994 Z M41.54045550000001 -49.314044499999994 H53.11597312500001 Q52.2519195 -54.69127675 50.5752945 -59.253767874999994 Q48.8986695 -63.816258999999995 47.292857250000004 -65.44574125 Q45.71051775 -63.816258999999995 44.069299125 -59.253767874999994 Q42.42808050000001 -54.69127675 41.54045550000001 -49.314044499999994 Z M20.37888375 -49.314044499999994 H34.3408305 Q35.031205500000006 -53.878705374999996 36.019526625 -57.71324537499999 Q37.007946374999996 -61.547883999999996 38.435839125 -64.45949125 Q32.5655805 -62.806437624999994 27.86688825 -58.847432874999996 Q23.168294625 -54.88852675 20.37888375 -49.314044499999994 Z"/></g><g id="Regular-S" transform="matrix(1 0 0 1 1405.73 696)"><path d="M47.34 2.64200000000001 Q39.548625 2.64200000000001 32.644875 -0.316749999999999 Q25.741125 -3.275499999999994 20.563312500000002 -8.453312499999996 Q15.3855 -13.631124999999997 12.42675 -20.534875 Q9.468 -27.438624999999988 9.468 -35.23 Q9.468 -43.12 12.42675 -49.97443749999999 Q15.3855 -56.828875 20.563312500000002 -62.0066875 Q25.741125 -67.1845 32.644875 -70.14325 Q39.548625 -73.102 47.34 -73.102 Q55.230000000000004 -73.102 62.0844375 -70.14325 Q68.93887500000001 -67.1845 74.1166875 -62.0066875 Q79.2945 -56.828875 82.25325000000001 -49.97443749999999 Q85.212 -43.12 85.212 -35.23 Q85.212 -27.438624999999988 82.25325000000001 -20.534875 Q79.2945 -13.631124999999997 74.1166875 -8.453312499999996 Q68.93887500000001 -3.275499999999994 62.0844375 -0.316749999999999 Q55.230000000000004 2.64200000000001 47.34 2.64200000000001 Z M47.34 -4.754874999999998 Q49.016625000000005 -6.4315 50.69325 -11.017562499999997 Q52.369875 -15.603624999999994 53.2575 -21.02799999999999 H41.4225 Q42.310125 -15.603624999999994 43.98675 -11.017562499999997 Q45.663375 -6.4315 47.34 -4.754874999999998 Z M38.365125 -5.741124999999997 Q36.984375 -8.699874999999992 35.9488125 -12.546249999999986 Q34.913250000000005 -16.392624999999995 34.222875 -21.02799999999999 H20.119500000000002 Q22.979625000000002 -15.406374999999997 27.713625 -11.41206249999999 Q32.447625 -7.417749999999998 38.365125 -5.741124999999997 Z M56.314875 -5.741124999999997 Q62.232375000000005 -7.417749999999998 66.966375 -11.41206249999999 Q71.70037500000001 -15.406374999999997 74.5605 -21.02799999999999 H60.457125000000005 Q59.76675 -16.392624999999995 58.731187500000004 -12.546249999999986 Q57.695625 -8.699874999999992 56.314875 -5.741124999999997 Z M61.344750000000005 -28.12899999999999 H77.223375 Q77.7165 -30.002874999999996 77.91375000000001 -31.728812499999997 Q78.111 -33.45475 78.111 -35.23 Q78.111 -37.00525 77.91375000000001 -38.780499999999996 Q77.7165 -40.555749999999996 77.223375 -42.330999999999996 H61.344750000000005 Q61.542 -40.457125 61.5913125 -38.63256249999999 Q61.640625 -36.80799999999999 61.640625 -35.03274999999999 Q61.640625 -33.25749999999999 61.5913125 -31.531562499999993 Q61.542 -29.805624999999992 61.344750000000005 -28.12899999999999 Z M40.534875 -28.12899999999999 H54.145125 Q54.342375000000004 -30.101499999999994 54.3916875 -31.827437499999995 Q54.441 -33.553374999999996 54.441 -35.23 Q54.441 -36.90662499999999 54.3916875 -38.68187499999999 Q54.342375000000004 -40.457125 54.145125 -42.330999999999996 H40.534875 Q40.337625 -40.457125 40.2883125 -38.68187499999999 Q40.239000000000004 -36.90662499999999 40.239000000000004 -35.23 Q40.239000000000004 -33.553374999999996 40.2883125 -31.778124999999996 Q40.337625 -30.002874999999996 40.534875 -28.12899999999999 Z M17.456625000000003 -28.12899999999999 H33.33525 Q33.138 -30.002874999999996 33.0886875 -31.827437499999995 Q33.039375 -33.651999999999994 33.039375 -35.427249999999994 Q33.039375 -37.20249999999999 33.0886875 -38.928437499999994 Q33.138 -40.654374999999995 33.33525 -42.330999999999996 H17.456625000000003 Q16.9635 -40.457125 16.76625 -38.7311875 Q16.569 -37.00525 16.569 -35.23 Q16.569 -33.45475 16.76625 -31.728812499999997 Q16.9635 -30.002874999999996 17.456625000000003 -28.12899999999999 Z M60.457125000000005 -49.431999999999995 H74.5605 Q71.70037500000001 -55.053625 66.966375 -59.047937499999996 Q62.232375000000005 -63.042249999999996 56.314875 -64.718875 Q57.695625 -61.760124999999995 58.731187500000004 -57.91374999999999 Q59.76675 -54.067375 60.457125000000005 -49.431999999999995 Z M41.4225 -49.431999999999995 H53.2575 Q52.369875 -54.85637499999999 50.69325 -59.4424375 Q49.016625000000005 -64.0285 47.34 -65.705125 Q45.663375 -64.0285 43.98675 -59.4424375 Q42.310125 -54.85637499999999 41.4225 -49.431999999999995 Z M20.119500000000002 -49.431999999999995 H34.222875 Q34.913250000000005 -54.067375 35.9488125 -57.91374999999999 Q36.984375 -61.760124999999995 38.365125 -64.718875 Q32.447625 -63.042249999999996 27.713625 -59.047937499999996 Q22.979625000000002 -55.053625 20.119500000000002 -49.431999999999995 Z"/></g><g id="Light-S" transform="matrix(1 0 0 1 1109.75 696)"><path d="M47.34 0.6694013750000067 Q39.92793675 0.6694013750000067 33.384661125 -2.1376633749999883 Q26.841286874999998 -4.944629499999991 21.947908875 -9.837908874999997 Q17.0546295 -14.731286874999995 14.247663375 -21.274661124999994 Q11.440598625000002 -27.81793675 11.440598625000002 -35.23 Q11.440598625000002 -42.702717625 14.247663375 -49.215715374999995 Q17.0546295 -55.728713125 21.947908875 -60.622091125 Q26.841286874999998 -65.51537049999999 33.384661125 -68.32233662499999 Q39.92793675 -71.129401375 47.34 -71.129401375 Q54.812717625000005 -71.129401375 61.325715375 -68.32233662499999 Q67.83871312500001 -65.51537049999999 72.73209112500001 -60.622091125 Q77.6253705 -55.728713125 80.432336625 -49.215715374999995 Q83.239401375 -42.702717625 83.239401375 -35.23 Q83.239401375 -27.81793675 80.432336625 -21.274661124999994 Q77.6253705 -14.731286874999995 72.73209112500001 -9.837908874999997 Q67.83871312500001 -4.944629499999991 61.325715375 -2.1376633749999883 Q54.812717625000005 0.6694013750000067 47.34 0.6694013750000067 Z M47.34 -4.6410617499999915 Q49.471878000000004 -6.772939749999992 51.338158875 -11.586628749999988 Q53.20443975 -16.400317749999985 54.205878 -22.31781774999999 H40.474122 Q41.551402875 -16.248533874999993 43.37981175 -11.434844874999996 Q45.208122 -6.6211558749999995 47.34 -4.6410617499999915 Z M40.9826325 -5.134186749999998 Q39.1087575 -8.092936749999993 37.599006 -12.584220624999986 Q36.0892545 -17.075504499999994 35.28506625 -22.31781774999999 H19.4366205 Q22.562342625000003 -15.48221762499999 28.263656625 -10.956809499999991 Q33.965069250000006 -6.431401374999993 40.9826325 -5.134186749999998 Z M53.697367500000006 -5.134186749999998 Q60.71493075000001 -6.431401374999993 66.416343375 -10.956809499999991 Q72.11765737500001 -15.48221762499999 75.2433795 -22.31781774999999 H59.39493375000001 Q58.401089625000004 -17.037533874999994 56.891338125000004 -12.546249999999986 Q55.381586625000004 -8.054966124999993 53.697367500000006 -5.134186749999998 Z M61.534405875000004 -27.446120499999992 H78.664878 Q79.082160375 -29.547621999999997 79.260474375 -31.463215374999997 Q79.438788375 -33.37890737499999 79.438788375 -35.23 Q79.438788375 -37.081092625 79.260474375 -39.046097124999996 Q79.082160375 -41.011002999999995 78.664878 -43.013879499999994 H61.534405875000004 Q61.65581325 -41.102033875 61.648219125000004 -39.030908874999994 Q61.640625 -36.95978387499999 61.640625 -35.03274999999999 Q61.640625 -33.105716124999994 61.648219125000004 -31.133216124999997 Q61.65581325 -29.160716124999993 61.534405875000004 -27.446120499999992 Z M40.003779375 -27.446120499999992 H54.676220625 Q54.94931325 -29.646246999999995 55.017660375 -31.523968374999995 Q55.085908875 -33.401591124999996 55.085908875 -35.23 Q55.085908875 -37.05840887499999 55.017660375 -38.985344125 Q54.94931325 -40.91237799999999 54.676220625 -43.013879499999994 H40.003779375 Q39.730686750000004 -40.91237799999999 39.662339625 -38.985344125 Q39.594091125000006 -37.05840887499999 39.594091125000006 -35.23 Q39.594091125000006 -33.401591124999996 39.662339625 -31.474655874999996 Q39.730686750000004 -29.547621999999997 40.003779375 -27.446120499999992 Z M16.015121999999998 -27.446120499999992 H33.145594125 Q33.02418675 -29.357966124999997 33.031780875 -31.429091124999992 Q33.039375 -33.500216124999994 33.039375 -35.427249999999994 Q33.039375 -37.35428387499999 33.031780875 -39.32678387499999 Q33.02418675 -41.29928387499999 33.145594125 -43.013879499999994 H16.015121999999998 Q15.597839625 -40.91237799999999 15.419525625 -38.99678462499999 Q15.241211625000002 -37.081092625 15.241211625000002 -35.23 Q15.241211625000002 -33.37890737499999 15.419525625 -31.463215374999997 Q15.597839625 -29.547621999999997 16.015121999999998 -27.446120499999992 Z M59.39493375000001 -48.14218225 H75.2433795 Q72.07968675000001 -55.053625 66.47325000000001 -59.503190499999995 Q60.86671462500001 -63.952657374999994 53.697367500000006 -65.363783875 Q55.571242500000004 -62.215377999999994 57.043023375000004 -57.78100075 Q58.514902875000004 -53.34662349999999 59.39493375000001 -48.14218225 Z M40.474122 -48.14218225 H54.205878 Q53.128597125 -54.173495499999994 51.243281625 -59.082061749999994 Q49.358064750000004 -63.990529374999994 47.34 -65.81893825 Q45.32193525 -63.990529374999994 43.436718375000005 -59.082061749999994 Q41.551402875 -54.173495499999994 40.474122 -48.14218225 Z M19.4366205 -48.14218225 H35.28506625 Q36.165097125 -53.34662349999999 37.636976625 -57.78100075 Q39.1087575 -62.215377999999994 40.9826325 -65.363783875 Q33.77541337500001 -63.952657374999994 28.187814 -59.48415587499999 Q22.60031325 -55.015654375 19.4366205 -48.14218225 Z"/></g><g id="Thin-S" transform="matrix(1 0 0 1 814.015 696)"><path d="M47.34 -1.3029999999999973 Q40.3072485 -1.3029999999999973 34.12425 -3.958280875 Q27.9412515 -6.613561749999988 23.332406625 -11.22240662499999 Q18.723561750000002 -15.831251499999993 16.068280875 -22.01424999999999 Q13.413 -28.197248499999993 13.413 -35.23 Q13.413 -42.28553387499999 16.068280875 -48.457091874999996 Q18.723561750000002 -54.62874849999999 23.332406625 -59.237593374999996 Q27.9412515 -63.84643824999999 34.12425 -66.501719125 Q40.3072485 -69.157 47.34 -69.157 Q54.395533875 -69.157 60.567091875 -66.501719125 Q66.7387485 -63.84643824999999 71.347593375 -59.237593374999996 Q75.95643825 -54.62874849999999 78.61171912500001 -48.457091874999996 Q81.26700000000001 -42.28553387499999 81.26700000000001 -35.23 Q81.26700000000001 -28.197248499999993 78.61171912500001 -22.01424999999999 Q75.95643825 -15.831251499999993 71.347593375 -11.22240662499999 Q66.7387485 -6.613561749999988 60.567091875 -3.958280875 Q54.395533875 -1.3029999999999973 47.34 -1.3029999999999973 Z M47.34 -4.527248499999999 Q49.927032375 -7.1142808749999915 51.982969125000004 -12.155497749999995 Q54.038905875000005 -17.19681324999999 55.154157375000004 -23.607438249999987 H39.525842625 Q40.792779375 -16.893344125 42.7728735 -11.852028624999988 Q44.752967625000004 -6.810811749999999 47.34 -4.527248499999999 Z M43.599844125000004 -4.527248499999999 Q41.232844125 -7.485998499999994 39.248903625000004 -12.622092624999993 Q37.26506175 -17.758186749999993 36.347060250000006 -23.607438249999987 H18.75393825 Q22.145158875 -15.558060249999997 28.813688250000002 -10.501655125 Q35.482217625000004 -5.445249999999987 43.599844125000004 -4.527248499999999 Z M51.080155875 -4.527248499999999 Q59.197782375 -5.445249999999987 65.86631175000001 -10.501655125 Q72.534841125 -15.558060249999997 75.92606175 -23.607438249999987 H58.33293975 Q57.0356265 -17.682344125 55.051784625 -12.546249999999986 Q53.067844125 -7.410155874999987 51.080155875 -4.527248499999999 Z M61.724061750000004 -26.763438249999993 H80.106282375 Q80.4476235 -29.092467624999998 80.606902875 -31.197716874999998 Q80.766280875 -33.30306474999999 80.766280875 -35.23 Q80.766280875 -37.15693525 80.606902875 -39.311595624999995 Q80.4476235 -41.466157374999995 80.106282375 -43.696561749999994 H61.724061750000004 Q61.7696265 -41.746844124999996 61.70512575 -39.429156625 Q61.640625 -37.11146912499999 61.640625 -35.03274999999999 Q61.640625 -32.954030874999994 61.70512575 -30.734968374999994 Q61.7696265 -28.515905874999994 61.724061750000004 -26.763438249999993 Z M39.472782375 -26.763438249999993 H55.207217625000006 Q55.5562515 -29.191092624999996 55.643436 -31.220499249999996 Q55.730719125 -33.249905874999996 55.730719125 -35.23 Q55.730719125 -37.21009412499999 55.643436 -39.28881325 Q55.5562515 -41.367532374999996 55.207217625000006 -43.696561749999994 H39.472782375 Q39.123748500000005 -41.367532374999996 39.036564 -39.28881325 Q38.949280875 -37.21009412499999 38.949280875 -35.23 Q38.949280875 -33.249905874999996 39.036564 -31.171186749999997 Q39.123748500000005 -29.092467624999998 39.472782375 -26.763438249999993 Z M14.573717625 -26.763438249999993 H32.95593825 Q32.9103735 -28.71315587499999 32.97487425 -31.030843374999996 Q33.039375 -33.348530874999994 33.039375 -35.427249999999994 Q33.039375 -37.50596912499999 32.97487425 -39.72503162499999 Q32.9103735 -41.94409412499999 32.95593825 -43.696561749999994 H14.573717625 Q14.232376499999999 -41.367532374999996 14.0729985 -39.262283124999996 Q13.913719125 -37.15693525 13.913719125 -35.23 Q13.913719125 -33.30306474999999 14.0729985 -31.197716874999998 Q14.232376499999999 -29.092467624999998 14.573717625 -26.763438249999993 Z M58.33293975 -46.85256174999999 H75.92606175 Q72.4589985 -55.053625 65.980125 -59.958344874999995 Q59.5012515 -64.862966125 51.080155875 -66.008594125 Q53.447155875 -62.67053237499999 55.355155125 -57.64825149999999 Q57.263253 -52.625970624999994 58.33293975 -46.85256174999999 Z M39.525842625 -46.85256174999999 H55.154157375000004 Q53.887220625000005 -53.490813249999995 51.793313250000004 -58.721686 Q49.699405875000004 -63.952657374999994 47.34 -65.9327515 Q44.980594125 -63.952657374999994 42.88668675 -58.721686 Q40.792779375 -53.490813249999995 39.525842625 -46.85256174999999 Z M18.75393825 -46.85256174999999 H36.347060250000006 Q37.416747 -52.625970624999994 39.324844875000004 -57.64825149999999 Q41.232844125 -62.67053237499999 43.599844125000004 -66.008594125 Q35.102905875000005 -64.862966125 28.661904375000002 -59.920374249999995 Q22.2210015 -54.977782375 18.75393825 -46.85256174999999 Z"/></g><g id="Ultralight-S" transform="matrix(1 0 0 1 517.792 696)"><path d="M47.34 -2.4864999999999924 Q40.534875 -2.4864999999999924 34.5680625 -5.050749999999994 Q28.60125 -7.614999999999995 24.163125 -12.053124999999994 Q19.725 -16.491249999999994 17.16075 -22.458062499999997 Q14.5965 -28.424874999999993 14.5965 -35.23 Q14.5965 -42.035124999999994 17.16075 -48.0019375 Q19.725 -53.96874999999999 24.163125 -58.40687499999999 Q28.60125 -62.845 34.5680625 -65.40925 Q40.534875 -67.9735 47.34 -67.9735 Q54.145125 -67.9735 60.1119375 -65.40925 Q66.07875 -62.845 70.516875 -58.40687499999999 Q74.955 -53.96874999999999 77.51925 -48.0019375 Q80.0835 -42.035124999999994 80.0835 -35.23 Q80.0835 -28.424874999999993 77.51925 -22.458062499999997 Q74.955 -16.491249999999994 70.516875 -12.053124999999994 Q66.07875 -7.614999999999995 60.1119375 -5.050749999999994 Q54.145125 -2.4864999999999924 47.34 -2.4864999999999924 Z M47.34 -4.458999999999989 Q50.200125 -7.319125 52.369875 -12.496937499999987 Q54.539625 -17.67474999999999 55.723125 -24.381249999999994 H38.956875000000004 Q40.337625 -17.280249999999995 42.408750000000005 -12.102437499999994 Q44.479875 -6.924624999999992 47.34 -4.458999999999989 Z M45.17025 -4.163124999999994 Q42.507375 -7.121874999999989 40.239000000000004 -12.644874999999999 Q37.970625 -18.167874999999995 36.984375 -24.381249999999994 H18.344250000000002 Q21.894750000000002 -15.603624999999994 29.143687500000002 -10.228562499999995 Q36.392625 -4.853499999999997 45.17025 -4.163124999999994 Z M49.509750000000004 -4.163124999999994 Q58.287375000000004 -4.853499999999997 65.53631250000001 -10.228562499999995 Q72.78525 -15.603624999999994 76.33575 -24.381249999999994 H57.695625 Q56.21625 -18.069249999999997 53.947875 -12.546249999999986 Q51.679500000000004 -7.02324999999999 49.509750000000004 -4.163124999999994 Z M61.837875000000004 -26.35374999999999 H80.971125 Q81.26700000000001 -28.819374999999994 81.41493750000001 -31.038437499999993 Q81.562875 -33.25749999999999 81.562875 -35.23 Q81.562875 -37.20249999999999 81.41493750000001 -39.47087499999999 Q81.26700000000001 -41.73924999999999 80.971125 -44.106249999999996 H61.837875000000004 Q61.837875000000004 -42.13374999999999 61.739250000000006 -39.668124999999996 Q61.640625 -37.20249999999999 61.640625 -35.03274999999999 Q61.640625 -32.86299999999999 61.739250000000006 -30.495999999999995 Q61.837875000000004 -28.12899999999999 61.837875000000004 -26.35374999999999 Z M39.154125 -26.35374999999999 H55.525875 Q55.920375 -28.917999999999992 56.019000000000005 -31.038437499999993 Q56.117625000000004 -33.158874999999995 56.117625000000004 -35.23 Q56.117625000000004 -37.30112499999999 56.019000000000005 -39.47087499999999 Q55.920375 -41.64062499999999 55.525875 -44.106249999999996 H39.154125 Q38.759625 -41.64062499999999 38.661 -39.47087499999999 Q38.562375 -37.30112499999999 38.562375 -35.23 Q38.562375 -33.158874999999995 38.661 -30.989124999999994 Q38.759625 -28.819374999999994 39.154125 -26.35374999999999 Z M13.708875 -26.35374999999999 H32.842125 Q32.842125 -28.326249999999995 32.94075 -30.791874999999997 Q33.039375 -33.25749999999999 33.039375 -35.427249999999994 Q33.039375 -37.596999999999994 32.94075 -39.96399999999999 Q32.842125 -42.330999999999996 32.842125 -44.106249999999996 H13.708875 Q13.413 -41.64062499999999 13.2650625 -39.42156249999999 Q13.117125 -37.20249999999999 13.117125 -35.23 Q13.117125 -33.25749999999999 13.2650625 -31.038437499999993 Q13.413 -28.819374999999994 13.708875 -26.35374999999999 Z M57.695625 -46.07874999999999 H76.33575 Q72.686625 -55.053625 65.68425 -60.2314375 Q58.681875000000005 -65.40925 49.509750000000004 -66.3955 Q52.172625000000004 -62.943625 54.342375000000004 -57.56856249999999 Q56.512125000000005 -52.19349999999999 57.695625 -46.07874999999999 Z M38.956875000000004 -46.07874999999999 H55.723125 Q54.342375000000004 -53.08112499999999 52.123312500000004 -58.5055 Q49.904250000000005 -63.929874999999996 47.34 -66.00099999999999 Q44.77575 -63.929874999999996 42.5566875 -58.5055 Q40.337625 -53.08112499999999 38.956875000000004 -46.07874999999999 Z M18.344250000000002 -46.07874999999999 H36.984375 Q38.167875 -52.19349999999999 40.337625 -57.56856249999999 Q42.507375 -62.943625 45.17025 -66.3955 Q35.8995 -65.40925 28.946437500000002 -60.182125 Q21.993375 -54.955 18.344250000000002 -46.07874999999999 Z"/></g></g></svg>