<svg xmlns="http://www.w3.org/2000/svg" version="1.1" width="3300" height="2000"><g id="Notes"><style>
    text {
      font-family: monospace;
      text-anchor: middle;
    }
    text.emphasis {
      font-weight:bold;
    }
    text.lanchor {
      text-anchor: start;
    }
  </style><rect height="2200" id="artboard" fill="white" width="3300" x="0" y="0"/><line id="" style="fill:none;stroke:black;stroke-width:0.5;" x1="263" x2="3036" y1="292" y2="292"/><text class="lanchor emphasis" transform="matrix(1 0 0 1 263 322)">Weight/Scale Variations</text><text transform="matrix(1 0 0 1 559.711 322)">Ultralight</text><text transform="matrix(1 0 0 1 856.422 322)">Thin</text><text transform="matrix(1 0 0 1 1153.13 322)">Light</text><text transform="matrix(1 0 0 1 1449.84 322)">Regular</text><text transform="matrix(1 0 0 1 1746.56 322)">Medium</text><text transform="matrix(1 0 0 1 2043.27 322)">Semibold</text><text transform="matrix(1 0 0 1 2339.98 322)">Bold</text><text transform="matrix(1 0 0 1 2636.69 322)">Heavy</text><text transform="matrix(1 0 0 1 2933.4 322)">Black</text><text id="template-version" style="text-anchor: end;" transform="matrix(1 0 0 1 3036 1933)">Template v.1.0</text><text class="lanchor" transform="matrix(1 0 0 1 263 726)">Small</text><text class="lanchor" transform="matrix(1 0 0 1 263 1156)">Medium</text><text class="lanchor" transform="matrix(1 0 0 1 263 1586)">Large</text></g><g id="Guides"><g id="H-reference" style="fill:#27AAE1;stroke:none;" transform="matrix(1 0 0 1 339 696)"><path d="M 54.9316 0 L 57.666 0 L 30.5664 -70.459 L 28.0762 -70.459 L 0.976562 0 L 3.66211 0 L 12.9395 -24.4629 L 45.7031 -24.4629 Z M 29.1992 -67.0898 L 29.4434 -67.0898 L 44.8242 -26.709 L 13.8184 -26.709 Z"/></g><line id="Baseline-S" style="fill:none;stroke:#27AAE1;opacity:1;stroke-width:0.577;" x1="263" x2="3036" y1="696" y2="696"/><line id="Capline-S" style="fill:none;stroke:#27AAE1;opacity:1;stroke-width:0.577;" x1="263" x2="3036" y1="625.541" y2="625.541"/><g id="H-reference" style="fill:#27AAE1;stroke:none;" transform="matrix(1 0 0 1 339 1126)"><path d="M 54.9316 0 L 57.666 0 L 30.5664 -70.459 L 28.0762 -70.459 L 0.976562 0 L 3.66211 0 L 12.9395 -24.4629 L 45.7031 -24.4629 Z M 29.1992 -67.0898 L 29.4434 -67.0898 L 44.8242 -26.709 L 13.8184 -26.709 Z"/></g><line id="Baseline-M" style="fill:none;stroke:#27AAE1;opacity:1;stroke-width:0.577;" x1="263" x2="3036" y1="1126" y2="1126"/><line id="Capline-M" style="fill:none;stroke:#27AAE1;opacity:1;stroke-width:0.577;" x1="263" x2="3036" y1="1055.54" y2="1055.54"/><g id="H-reference" style="fill:#27AAE1;stroke:none;" transform="matrix(1 0 0 1 339 1556)"><path d="M 54.9316 0 L 57.666 0 L 30.5664 -70.459 L 28.0762 -70.459 L 0.976562 0 L 3.66211 0 L 12.9395 -24.4629 L 45.7031 -24.4629 Z M 29.1992 -67.0898 L 29.4434 -67.0898 L 44.8242 -26.709 L 13.8184 -26.709 Z"/></g><line id="Baseline-L" style="fill:none;stroke:#27AAE1;opacity:1;stroke-width:0.577;" x1="263" x2="3036" y1="1556" y2="1556"/><line id="Capline-L" style="fill:none;stroke:#27AAE1;opacity:1;stroke-width:0.577;" x1="263" x2="3036" y1="1485.54" y2="1485.54"/><rect height="119.336" id="left-margin" style="fill:darkred;stroke:none;opacity:0.4;" width="12.4512" x="1394.06" y="1030.79"/><rect height="119.336" id="right-margin" style="fill:darkgreen;stroke:none;opacity:0.4;" width="12.4512" x="1502.5112" y="1030.79"/><rect x="1406.5112" y="1045" width="96" height="96" fill="none" stroke="blue" stroke-dasharray="5"/><rect x="1394.06" y="1030.79" width="120.9024" height="119.336" fill="none" stroke="blue"/></g><g id="Symbols"><g id="Bold-L" transform="matrix(1 0 0 1 2266 1556)"><path d="M76.76403 26.85125000000002 Q50.79375 26.85125000000002 32.86194375 8.722396250000003 Q14.930298749999999 -9.406296249999968 15.1575 -35.391249999999985 H30.315 Q30.50076 -15.831624999999988 43.86080625 -2.06893749999999 Q57.22101375 11.693750000000023 76.755 11.693750000000023 Q96.42750000000001 11.693750000000023 110.295 -2.2255112499999825 Q124.16250000000001 -16.144772499999988 124.16250000000001 -36.00738624999998 Q124.16250000000001 -55.38624999999999 110.23485375 -68.76999999999998 Q96.3072075 -82.15374999999997 76.755 -82.15374999999997 Q67.08 -82.15374999999997 58.453125 -78.20312499999999 Q49.82625 -74.25249999999998 43.215 -67.47999999999999 H56.760000000000005 V-55.70874999999998 H19.833750000000002 V-92.31249999999999 H31.282500000000002 V-76.99374999999998 Q40.151250000000005 -86.5075 51.841875 -91.98999999999998 Q63.5325 -97.47249999999998 76.755 -97.47249999999998 Q89.655 -97.47249999999998 101.02312500000001 -92.554375 Q112.39125 -87.63624999999999 120.9762 -79.24947624999999 Q129.56131125 -70.86270249999998 134.440575 -59.657601249999985 Q139.32 -48.452499999999986 139.32 -35.55249999999998 Q139.32 -22.65249999999999 134.440575 -11.286148749999981 Q129.56131125 0.08020250000001283 120.9762 8.547601250000014 Q112.39125 17.015000000000015 101.02312500000001 21.933125000000018 Q89.655 26.85125000000002 76.76403 26.85125000000002 Z M96.75 -7.978749999999977  71.9175 -32.48874999999998 V-67.96374999999998 H83.36625000000001 V-37.48749999999998 L105.135 -16.363749999999982 L96.75 -7.978749999999977 Z"/></g><g id="Semibold-L" transform="matrix(1 0 0 1 1970.27 1556)"><path d="M76.83030375 25.09862375 Q51.705135 25.09862375 34.278363750000004 7.455455000000029 Q16.85175375 -10.187713749999972 16.98027 -35.391249999999985 H29.7541725 Q29.859146250000002 -15.57217374999999 43.43994375 -1.62372624999999 Q57.02058 12.32472125000001 76.82514375000001 12.32472125000001 Q96.84820125 12.32472125000001 110.85582749999999 -1.7823962499999766 Q124.863615 -15.889513749999978 124.863615 -36.01996374999999 Q124.863615 -55.666663749999984 110.75166 -69.22569249999998 Q96.63986625 -82.78472124999999 76.82514375000001 -82.78472124999999 Q66.58931625 -82.78472124999999 57.541740000000004 -78.37840374999999 Q48.494325 -73.97208624999999 41.67264375 -66.568615 H56.68985625 V-55.70874999999998 H21.165675 V-90.98057499999999 H31.8433275 V-74.89056624999998 Q40.501807500000005 -84.54460375 52.122288749999996 -90.09724749999998 Q63.74277 -95.64972999999998 76.82514375000001 -95.64972999999998 Q89.37458625 -95.64972999999998 100.42730625 -90.90688374999999 Q111.47986499999999 -86.16403749999998 119.8026225 -78.02349249999999 Q128.12554125 -69.88278624999998 132.88144875 -58.992444999999975 Q137.6375175 -48.10194249999999 137.6375175 -35.55249999999998 Q137.6375175 -23.003057499999983 132.88144875 -11.951304999999977 Q128.12554125 -0.8997137499999894 119.8026225 7.321617500000002 Q111.47986499999999 15.542787500000031 100.42730625 20.320786250000026 Q89.37458625 25.09862375 76.83030375 25.09862375 Z M97.1005575 -8.399451249999984  72.2680575 -32.90945124999999 V-67.96374999999998 H82.94554875 V-37.48749999999998 L104.85458625 -16.153479999999988 L97.1005575 -8.399451249999984 Z"/></g><g id="Medium-L" transform="matrix(1 0 0 1 1674.31 1556)"><path d="M76.8798075 23.783952499999998 Q52.38867375 23.783952499999998 35.34084 6.505047500000018 Q18.2931675 -10.773857499999977 18.3473475 -35.391249999999985 H29.333471250000002 Q29.37797625 -15.377706249999974 43.124055 -1.2897774999999854 Q56.870295000000006 12.797989999999999 76.87771125 12.797989999999999 Q97.16360625000002 12.797989999999999 111.27652875 -1.4500599999999793 Q125.38945125000001 -15.69794874999998 125.38945125000001 -36.02931624999998 Q125.38945125000001 -55.87693374999998 111.13946625 -69.56754249999999 Q96.88948125 -83.25798999999998 76.87771125 -83.25798999999998 Q66.2211825 -83.25798999999998 56.85820125 -78.50982249999998 Q47.495219999999996 -73.76181624999998 40.51583625 -65.88507624999998 H56.637288749999996 V-55.70874999999998 H22.16478 V-89.98146999999999 H32.26402875 V-73.31305749999999 Q40.764645 -83.07222999999999 52.332558750000004 -88.67744124999999 Q63.900633750000004 -94.28265249999998 76.87771125 -94.28265249999998 Q89.16431625 -94.28265249999998 99.98032125 -89.67122499999999 Q110.79632625 -85.05979749999997 118.92235875000001 -77.10372249999999 Q127.04855250000001 -69.14780875 131.7119025 -58.49337624999998 Q136.37541375 -47.83910499999999 136.37541375 -35.55249999999998 Q136.37541375 -23.265894999999972 131.7119025 -12.450373749999983 Q127.04855250000001 -1.6346912499999888 118.92235875000001 6.401847500000031 Q110.79632625 14.438547500000027 99.98032125 19.111250000000013 Q89.16431625 23.783952499999998 76.8798075 23.783952499999998 Z M97.363395 -8.714856249999997  72.530895 -33.22485624999999 V-67.96374999999998 H82.63014374999999 V-37.48749999999998 L104.64431625 -15.995616249999983 L97.363395 -8.714856249999997 Z"/></g><g id="Regular-L" transform="matrix(1 0 0 1 1378.56 1556)"><path d="M76.91625 22.82000000000002 Q52.89 22.82000000000002 36.120000000000005 5.808125000000018 Q19.35 -11.203749999999985 19.35 -35.391249999999985 H29.025000000000002 Q29.025000000000002 -15.234999999999985 42.8925 -1.0449999999999875 Q56.760000000000005 13.14500000000001 76.91625 13.14500000000001 Q97.395 13.14500000000001 111.58500000000001 -1.206249999999983 Q125.775 -15.557499999999976 125.775 -36.03624999999998 Q125.775 -56.031249999999986 111.42375 -69.81812499999998 Q97.0725 -83.60499999999999 76.91625 -83.60499999999999 Q65.95125 -83.60499999999999 56.356875 -78.60624999999999 Q46.7625 -73.60749999999999 39.667500000000004 -65.38374999999999 H56.59875 V-55.70874999999998 H22.8975 V-89.24874999999999 H32.5725 V-72.15624999999999 Q40.9575 -81.99249999999998 52.486875000000005 -87.63624999999999 Q64.01625 -93.27999999999999 76.91625 -93.27999999999999 Q89.01 -93.27999999999999 99.6525 -88.76499999999999 Q110.295 -84.24999999999999 118.276875 -76.429375 Q126.25875 -68.60874999999999 130.854375 -58.12749999999998 Q135.45000000000002 -47.64624999999998 135.45000000000002 -35.55249999999998 Q135.45000000000002 -23.45874999999998 130.854375 -12.816249999999982 Q126.25875 -2.173749999999984 118.276875 5.7275000000000205 Q110.295 13.628750000000025 99.6525 18.22437500000001 Q89.01 22.82000000000002 76.91625 22.82000000000002 Z M97.55625 -8.946249999999978  72.72375 -33.45624999999998 V-67.96374999999998 H82.39875 V-37.48749999999998 L104.49000000000001 -15.879999999999981 L97.55625 -8.946249999999978 Z"/></g><g id="Light-L" transform="matrix(1 0 0 1 1082.77 1556)"><path d="M76.91625 19.594838750000036 Q54.68874375 19.594838750000036 38.94203625 4.164503750000023 Q23.195490000000003 -11.265831249999977 22.57516125 -33.592506249999985 H29.89333125 Q30.63766125 -14.42874999999998 44.13299625 -1.0759599999999807 Q57.62833125 12.276668750000027 76.91625 12.276668750000027 Q96.96075375000001 12.276668750000027 110.87179125 -1.764497499999976 Q124.7826675 -15.80566374999998 124.7826675 -35.85016749999998 Q124.7826675 -55.535083749999984 110.77246125 -69.13587624999998 Q96.76241625 -82.73666874999998 76.91625 -82.73666874999998 Q66.5094975 -82.73666874999998 57.2872875 -78.17200374999999 Q48.065077499999994 -73.60749999999999 41.09407875 -65.94199749999999 H57.34308 V-58.623827499999976 H28.29357 V-87.63608874999998 H35.611740000000005 V-70.91575375 Q43.562493749999994 -79.82159124999998 54.28561875 -84.93821499999999 Q65.0085825 -90.05483874999999 76.91625 -90.05483874999999 Q88.32775125 -90.05483874999999 98.3499225 -85.78784124999999 Q108.37225500000001 -81.52100499999999 115.88892375 -74.10350499999998 Q123.40559250000001 -66.686005 127.75321500000001 -56.763002499999985 Q132.10067625000002 -46.83999999999999 132.10067625000002 -35.49041874999999 Q132.10067625000002 -24.07891749999999 127.75321500000001 -14.025786249999982 Q123.40559250000001 -3.972493749999984 115.88892375 3.463711250000017 Q108.37225500000001 10.899755000000027 98.3499225 15.247216250000037 Q88.32775125 19.594838750000036 76.91625 19.594838750000036 Z M98.1764175 -9.87666249999998  73.902165 -33.890496249999984 V-67.83974874999998 H81.220335 V-36.92925249999999 L103.43558625 -15.13566999999999 L98.1764175 -9.87666249999998 Z"/></g><g id="Thin-L" transform="matrix(1 0 0 1 787.282 1556)"><path d="M76.91625 16.370000000000033 Q56.487165 16.370000000000033 41.76375 2.5210437500000182 Q27.040335000000002 -11.327751249999977 25.8 -31.79408499999998 H30.761501250000002 Q32.25 -13.622499999999988 45.37333125 -1.107081249999979 Q58.49650125 11.408498750000007 76.91625 11.408498750000007 Q96.52666875 11.408498750000007 110.15858250000001 -2.3225837499999784 Q123.790335 -16.053666249999978 123.790335 -35.664084999999986 Q123.790335 -55.03891749999998 110.12133375 -68.45378874999997 Q96.4523325 -81.86849874999999 76.91625 -81.86849874999999 Q67.06758375 -81.86849874999999 58.217377500000005 -77.73791874999998 Q49.3673325 -73.60749999999999 42.520335 -66.50008374999999 H58.08724875 V-61.53858249999999 H33.68883375 V-86.02374999999998 H38.650335000000005 V-69.67541874999998 Q46.167003750000006 -77.65116624999999 56.08404 -82.24066374999998 Q66.000915 -86.82999999999998 76.91625 -86.82999999999998 Q87.64566375 -86.82999999999998 97.0476675 -82.81116624999999 Q106.4498325 -78.79233249999999 113.50145625 -71.77795749999999 Q120.55308 -64.76358249999998 124.65253875 -55.39866624999998 Q128.75199750000002 -46.03374999999998 128.75199750000002 -35.42849874999999 Q128.75199750000002 -24.699084999999982 124.65253875 -15.234999999999985 Q120.55308 -5.770914999999974 113.50145625 1.2000837500000046 Q106.4498325 8.171082500000011 97.0476675 12.270541250000008 Q87.64566375 16.370000000000033 76.91625 16.370000000000033 Z M98.79658500000001 -10.806752499999988  75.08041875 -34.32458124999998 V-67.71574749999999 H80.04208125 V-36.37116624999999 L102.38133375 -14.391501249999976 L98.79658500000001 -10.806752499999988 Z"/></g><g id="Ultralight-L" transform="matrix(1 0 0 1 491.205 1556)"><path d="M76.91625 14.43500000000003 Q57.566250000000004 14.43500000000003 43.456875000000004 1.535000000000025 Q29.3475 -11.36499999999998 27.735 -30.71499999999999 H31.282500000000002 Q33.2175 -13.138749999999987 46.1175 -1.1256249999999852 Q59.0175 10.887500000000017 76.91625 10.887500000000017 Q96.26625 10.887500000000017 109.730625 -2.6574999999999847 Q123.19500000000001 -16.202499999999986 123.19500000000001 -35.55249999999998 Q123.19500000000001 -54.74124999999998 109.730625 -68.04437499999997 Q96.26625 -81.34749999999998 76.91625 -81.34749999999998 Q67.4025 -81.34749999999998 58.775625000000005 -77.47749999999999 Q50.14875 -73.60749999999999 43.37625 -66.83499999999998 H58.533750000000005 V-63.28749999999998 H36.92625 V-85.05624999999998 H40.47375 V-68.93124999999998 Q47.730000000000004 -76.34874999999998 57.163125 -80.62187499999999 Q66.59625 -84.89499999999998 76.91625 -84.89499999999998 Q87.23625 -84.89499999999998 96.26625 -81.02499999999998 Q105.29625 -77.15499999999999 112.06875000000001 -70.3825 Q118.84125 -63.609999999999985 122.791875 -54.579999999999984 Q126.7425 -45.54999999999998 126.7425 -35.391249999999985 Q126.7425 -25.071249999999978 122.791875 -15.960624999999979 Q118.84125 -6.84999999999998 112.06875000000001 -0.15812499999998408 Q105.29625 6.533750000000026 96.26625 10.484375000000028 Q87.23625 14.43500000000003 76.91625 14.43500000000003 Z M99.16875 -11.36499999999998  75.78750000000001 -34.58499999999998 V-67.64124999999999 H79.33500000000001 V-36.03624999999998 L101.74875 -13.944999999999979 L99.16875 -11.36499999999998 Z"/></g><g id="Bold-M" transform="matrix(1 0 0 1 2281.8 1126)"><path d="M59.75 14.02000000000001 Q40.75 14.02000000000001 26.6875 1.3950000000000102 Q12.625 -11.22999999999999 10.875 -30.22999999999999 H26.75 Q28.625 -17.85499999999999 37.9375 -9.79249999999999 Q47.25 -1.7299999999999898 59.75 -1.7299999999999898 Q73.75 -1.7299999999999898 83.5 -11.47999999999999 Q93.25 -21.22999999999999 93.25 -35.22999999999999 Q93.25 -49.22999999999999 83.5 -58.97999999999999 Q73.75 -68.72999999999999 59.75 -68.72999999999999 Q52.625 -68.72999999999999 46.125 -65.79249999999999 Q39.625 -62.85499999999999 34.875 -57.35499999999999 H45.125 V-45.22999999999999 H11.75 V-78.35499999999999 H23.625 V-68.47999999999999 Q30.625 -76.22999999999999 39.9375 -80.35499999999999 Q49.25 -84.47999999999999 59.75 -84.47999999999999 Q69.875 -84.47999999999999 78.875 -80.60499999999999 Q87.875 -76.72999999999999 94.5625 -70.04249999999999 Q101.25 -63.35499999999999 105.125 -54.35499999999999 Q109.0 -45.35499999999999 109.0 -35.22999999999999 Q109.0 -25.10499999999999 105.125 -16.10499999999999 Q101.25 -7.10499999999999 94.5625 -0.41749999999998977 Q87.875 6.27000000000001 78.875 10.14500000000001 Q69.875 14.02000000000001 59.75 14.02000000000001 Z M73.125 -13.22999999999999  54.125 -32.22999999999999 V-60.22999999999999 H66.0 V-37.22999999999999 L81.625 -21.72999999999999 L73.125 -13.22999999999999 Z"/></g><g id="Semibold-M" transform="matrix(1 0 0 1 1985.97 1126)"><path d="M59.85875 12.172250000000005 Q41.6195 12.172250000000005 28.1005 0.06362500000001603 Q14.581375 -12.045124999999985 12.777 -30.22999999999999 H26.2065 Q28.02725 -17.583249999999992 37.557125 -9.330624999999984 Q47.087 -1.0778749999999917 59.85875 -1.0778749999999917 Q74.130375 -1.0778749999999917 84.070625 -11.018124999999984 Q94.010875 -20.958249999999992 94.010875 -35.22999999999999 Q94.010875 -49.50174999999999 84.070625 -59.44187499999999 Q74.130375 -69.38212499999999 59.85875 -69.38212499999999 Q52.0815 -69.38212499999999 45.14675 -65.98274999999998 Q38.212 -62.58324999999999 33.299 -56.43112499999999 H45.070625 V-45.22999999999999 H13.163 V-76.99637499999999 H24.22275 V-66.30624999999999 Q30.951125 -74.164875 40.20925 -78.39862499999998 Q49.467375 -82.63224999999998 59.85875 -82.63224999999998 Q69.657625 -82.63224999999998 78.304375 -78.893125 Q86.951125 -75.154 93.366875 -68.73825 Q99.78275 -62.32249999999999 103.521875 -53.67574999999999 Q107.261 -45.02887499999999 107.261 -35.22999999999999 Q107.261 -25.431124999999994 103.521875 -16.784249999999986 Q99.78275 -8.137499999999989 93.366875 -1.721749999999986 Q86.951125 4.694000000000017 78.304375 8.433125000000004 Q69.657625 12.172250000000005 59.85875 12.172250000000005 Z M73.505375 -13.664749999999984  54.505375 -32.664749999999984 V-60.22999999999999 H65.56525 V-37.22999999999999 L81.35325 -21.512624999999986 L73.505375 -13.664749999999984 Z"/></g><g id="Medium-M" transform="matrix(1 0 0 1 1689.91 1126)"><path d="M59.94025 10.786375000000007 Q42.27175 10.786375000000007 29.16025 -0.9351249999999851 Q16.048875 -12.656624999999991 14.20375 -30.22999999999999 H25.798875 Q27.57875 -17.379499999999993 37.27175 -8.984124999999992 Q46.964625 -0.5887499999999903 59.94025 -0.5887499999999903 Q74.41575 -0.5887499999999903 84.498625 -10.671624999999992 Q94.5815 -20.754499999999993 94.5815 -35.22999999999999 Q94.5815 -49.70549999999999 84.498625 -59.78837499999999 Q74.41575 -69.87124999999999 59.94025 -69.87124999999999 Q51.673875 -69.87124999999999 44.413 -66.12537499999999 Q37.15225 -62.37949999999999 32.116875 -55.73812499999999 H45.029875 V-45.22999999999999 H14.22275 V-75.97725 H24.67125 V-64.675625 Q31.195625 -72.61587499999999 40.413 -76.931125 Q49.630375 -81.24637499999999 59.94025 -81.24637499999999 Q69.494625 -81.24637499999999 77.876375 -77.60912499999999 Q86.258125 -73.97187499999998 92.470125 -67.759875 Q98.682125 -61.54799999999999 102.319375 -53.16612499999999 Q105.9565 -44.78437499999999 105.9565 -35.22999999999999 Q105.9565 -25.675624999999997 102.319375 -17.293874999999986 Q98.682125 -8.911999999999992 92.470125 -2.7001249999999857 Q86.258125 3.5118750000000034 77.876375 7.149125000000012 Q69.494625 10.786375000000007 59.94025 10.786375000000007 Z M73.79075 -13.990874999999988  54.79075 -32.99087499999999 V-60.22999999999999 H65.239125 V-37.22999999999999 L81.1495 -21.34962499999999 L73.79075 -13.990874999999988 Z"/></g><g id="Regular-M" transform="matrix(1 0 0 1 1394.06 1126)"><path d="M60.0 9.77000000000001 Q42.75 9.77000000000001 29.9375 -1.6674999999999898 Q17.125 -13.10499999999999 15.25 -30.22999999999999 H25.5 Q27.25 -17.22999999999999 37.0625 -8.72999999999999 Q46.875 -0.22999999999998977 60.0 -0.22999999999998977 Q74.625 -0.22999999999998977 84.8125 -10.41749999999999 Q95.0 -20.60499999999999 95.0 -35.22999999999999 Q95.0 -49.85499999999999 84.8125 -60.04249999999999 Q74.625 -70.22999999999999 60.0 -70.22999999999999 Q51.375 -70.22999999999999 43.875 -66.22999999999999 Q36.375 -62.22999999999999 31.25 -55.22999999999999 H45.0 V-45.22999999999999 H15.0 V-75.22999999999999 H25.0 V-63.47999999999999 Q31.375 -71.47999999999999 40.5625 -75.85499999999999 Q49.75 -80.22999999999999 60.0 -80.22999999999999 Q69.375 -80.22999999999999 77.5625 -76.66749999999999 Q85.75 -73.10499999999999 91.8125 -67.04249999999999 Q97.875 -60.97999999999999 101.4375 -52.79249999999999 Q105.0 -44.60499999999999 105.0 -35.22999999999999 Q105.0 -25.85499999999999 101.4375 -17.66749999999999 Q97.875 -9.47999999999999 91.8125 -3.4174999999999898 Q85.75 2.6450000000000102 77.5625 6.20750000000001 Q69.375 9.77000000000001 60.0 9.77000000000001 Z M74.0 -14.22999999999999  55.0 -33.22999999999999 V-60.22999999999999 H65.0 V-37.22999999999999 L81.0 -21.22999999999999 L74.0 -14.22999999999999 Z"/></g><g id="Light-M" transform="matrix(1 0 0 1 1098.18 1126)"><path d="M59.903875 7.269875000000013 Q43.6635 7.269875000000013 31.59625 -3.422374999999988 Q19.529 -14.114749999999987 17.702125 -30.22999999999999 H25.35575 Q27.25 -17.27812499999999 37.014375 -8.75399999999999 Q46.778875 -0.22999999999998977 59.903875 -0.22999999999998977 Q74.528875 -0.22999999999998977 84.716375 -10.41749999999999 Q94.903875 -20.60499999999999 94.903875 -35.22999999999999 Q94.903875 -49.85499999999999 84.716375 -60.04249999999999 Q74.528875 -70.22999999999999 59.903875 -70.22999999999999 Q51.711625 -70.22999999999999 44.548125 -66.59062499999999 Q37.38475 -62.95124999999999 32.211625 -56.57624999999999 H45.2885 V-49.07637499999999 H19.90425 V-74.46074999999999 H27.404 V-62.61449999999999 Q33.4905 -69.797125 41.980875 -73.7635 Q50.47125 -77.72987499999999 59.903875 -77.72987499999999 Q68.75 -77.72987499999999 76.48075 -74.383625 Q84.211375 -71.0375 89.961375 -65.28762499999999 Q95.711375 -59.53762499999999 99.0575 -51.80687499999999 Q102.403625 -44.07612499999999 102.403625 -35.22999999999999 Q102.403625 -26.38387499999999 99.0575 -18.65312499999999 Q95.711375 -10.922374999999988 89.961375 -5.172374999999988 Q84.211375 0.5775000000000148 76.48075 3.9236250000000155 Q68.75 7.269875000000013 59.903875 7.269875000000013 Z M74.9135 -15.095499999999987  56.298125 -33.71074999999999 V-60.22999999999999 H63.798 V-36.74924999999999 L80.182625 -20.364499999999992 L74.9135 -15.095499999999987 Z"/></g><g id="Thin-M" transform="matrix(1 0 0 1 802.565 1126)"><path d="M59.80775 4.77000000000001 Q44.576875 4.77000000000001 33.25475 -5.1771249999999895 Q21.932625 -15.12424999999999 20.153875 -30.22999999999999 H25.2115 Q27.25 -17.32612499999999 36.966375 -8.778124999999989 Q46.68275 -0.22999999999998977 59.80775 -0.22999999999998977 Q74.43275 -0.22999999999998977 84.62025 -10.41749999999999 Q94.80775 -20.60499999999999 94.80775 -35.22999999999999 Q94.80775 -49.85499999999999 84.62025 -60.04249999999999 Q74.43275 -70.22999999999999 59.80775 -70.22999999999999 Q52.048125 -70.22999999999999 45.221125 -66.95112499999999 Q38.39425 -63.67224999999999 33.173125 -57.92224999999999 H45.576875 V-52.92224999999999 H24.807625 V-73.69149999999999 H29.807625 V-61.74924999999999 Q35.60575 -68.11462499999999 43.399 -71.67237499999999 Q51.19225 -75.22999999999999 59.80775 -75.22999999999999 Q68.125 -75.22999999999999 75.399 -72.10024999999999 Q82.673125 -68.97037499999999 88.110625 -63.53287499999999 Q93.548125 -58.09537499999999 96.677875 -50.82137499999999 Q99.80775 -43.54737499999999 99.80775 -35.22999999999999 Q99.80775 -26.91262499999999 96.677875 -19.63862499999999 Q93.548125 -12.36462499999999 88.110625 -6.9271249999999895 Q82.673125 -1.4896249999999895 75.399 1.6402500000000089 Q68.125 4.77000000000001 59.80775 4.77000000000001 Z M75.826875 -15.96074999999999  57.596125 -34.19149999999999 V-60.22999999999999 H62.596125 V-36.26849999999999 L79.365375 -19.49924999999999 L75.826875 -15.96074999999999 Z"/></g><g id="Ultralight-M" transform="matrix(1 0 0 1 506.415 1126)"><path d="M59.75 3.2700000000000102 Q45.125 3.2700000000000102 34.25 -6.22999999999999 Q23.375 -15.72999999999999 21.625 -30.22999999999999 H25.125 Q27.25 -17.35499999999999 36.9375 -8.79249999999999 Q46.625 -0.22999999999998977 59.75 -0.22999999999998977 Q74.375 -0.22999999999998977 84.5625 -10.41749999999999 Q94.75 -20.60499999999999 94.75 -35.22999999999999 Q94.75 -49.85499999999999 84.5625 -60.04249999999999 Q74.375 -70.22999999999999 59.75 -70.22999999999999 Q52.25 -70.22999999999999 45.625 -67.16749999999999 Q39.0 -64.10499999999999 33.75 -58.72999999999999 H45.75 V-55.22999999999999 H27.75 V-73.22999999999999 H31.25 V-61.22999999999999 Q36.875 -67.10499999999999 44.25 -70.41749999999999 Q51.625 -73.72999999999999 59.75 -73.72999999999999 Q67.75 -73.72999999999999 74.75 -70.72999999999999 Q81.75 -67.72999999999999 87.0 -62.47999999999999 Q92.25 -57.22999999999999 95.25 -50.22999999999999 Q98.25 -43.22999999999999 98.25 -35.22999999999999 Q98.25 -27.22999999999999 95.25 -20.22999999999999 Q92.25 -13.22999999999999 87.0 -7.97999999999999 Q81.75 -2.7299999999999898 74.75 0.27000000000001023 Q67.75 3.2700000000000102 59.75 3.2700000000000102 Z M76.375 -16.47999999999999  58.375 -34.47999999999999 V-60.22999999999999 H61.875 V-35.97999999999999 L78.875 -18.97999999999999 L76.375 -16.47999999999999 Z"/></g><g id="Bold-S" transform="matrix(1 0 0 1 2294.23 696)"><path d="M47.14275 1.261250000000004 Q31.954500000000003 1.261250000000004 21.303 -9.340937499999995 Q10.6515 -19.943124999999995 10.750125 -35.23 H22.289250000000003 Q22.387875 -24.973 29.6368125 -17.67474999999999 Q36.88575 -10.376499999999993 47.14275 -10.376499999999993 Q57.399750000000004 -10.376499999999993 64.69800000000001 -17.67474999999999 Q71.99625 -24.973 71.99625 -35.23 Q71.99625 -45.486999999999995 64.69800000000001 -52.78525 Q57.399750000000004 -60.083499999999994 47.14275 -60.083499999999994 Q42.2115 -60.083499999999994 37.818052125 -58.397012499999995 Q33.424702875 -56.710525 30.17925 -53.475624999999994 H37.970625 V-44.69799999999999 H11.63775 V-70.833625 H20.218125 V-59.491749999999996 Q25.248 -65.21199999999999 32.1024375 -68.466625 Q38.956875000000004 -71.72125 47.14275 -71.72125 Q54.63825 -71.72125 61.308554625000006 -68.85126249999999 Q67.978957875 -65.981275 72.936442125 -61.023692125 Q77.894025 -56.066207874999996 80.7640125 -49.39580462499999 Q83.634 -42.7255 83.634 -35.23 Q83.634 -27.734499999999997 80.7640125 -21.064195374999983 Q77.894025 -14.39379212499999 72.936442125 -9.436307874999997 Q67.978957875 -4.478724999999997 61.308554625000006 -1.6087374999999895 Q54.63825 1.261250000000004 47.14275 1.261250000000004 Z M56.512125000000005 -21.02799999999999  43.099125 -34.440999999999995 V-54.166 H51.679500000000004 V-38.18874999999999 L62.725500000000004 -27.24137499999999 L56.512125000000005 -21.02799999999999 Z"/></g><g id="Semibold-S" transform="matrix(1 0 0 1 1998.1 696)"><path d="M47.22855375 -0.19662474999999802 Q32.640535500000006 -0.19662474999999802 22.417857 -10.391392374999995 Q12.195079875 -20.586258624999985 12.250803 -35.23 H21.8604285 Q21.91625025 -24.75858925 29.336696625000002 -17.31033062499999 Q36.757143000000006 -9.861973374999991 47.22855375 -9.861973374999991 Q57.699865875 -9.861973374999991 65.148223125 -17.31033062499999 Q72.596580375 -24.75858925 72.596580375 -35.23 Q72.596580375 -45.701410749999994 65.148223125 -53.149669374999995 Q57.699865875 -60.59802662499999 47.22855375 -60.59802662499999 Q41.7826785 -60.59802662499999 37.0463115 -58.54711975 Q32.309845875 -56.49611424999999 28.935786 -52.74668762499999 H37.927723125 V-44.69799999999999 H12.752607000000001 V-69.761669875 H20.68974975 V-57.77666125 Q25.505312625 -63.58261637499999 32.31684825 -66.92304512499999 Q39.128383875 -70.26337525 47.22855375 -70.26337525 Q54.466741125 -70.26337525 60.8583315 -67.500593125 Q67.2500205 -64.737811 71.993192625 -59.99463887499999 Q76.73636475 -55.25146674999999 79.49914687500001 -48.859876375 Q82.261929 -42.468187375 82.261929 -35.23 Q82.261929 -27.991812624999994 79.49914687500001 -21.600123624999995 Q76.73636475 -15.208533250000002 71.993192625 -10.465361124999987 Q67.2500205 -5.722188999999986 60.8583315 -2.959406874999985 Q54.466741125 -0.19662474999999802 47.22855375 -0.19662474999999802 Z M56.812240875 -21.371017749999993  43.399240875000004 -34.78401774999999 V-54.166 H51.33648225000001 V-38.18874999999999 L62.511089250000005 -27.06986612499999 L56.812240875 -21.371017749999993 Z"/></g><g id="Medium-S" transform="matrix(1 0 0 1 1701.85 696)"><path d="M47.292857250000004 -1.2900801249999887 Q33.15516075 -1.2900801249999887 23.253999750000002 -11.179406124999986 Q13.352937375 -21.068732124999997 13.37650875 -35.23 H21.538812375 Q21.562383750000002 -24.5978305 29.111535749999998 -17.036942124999996 Q36.660589125 -9.476053749999991 47.292857250000004 -9.476053749999991 Q57.92502675000001 -9.476053749999991 65.485915125 -17.036942124999996 Q73.04680350000001 -24.5978305 73.04680350000001 -35.23 Q73.04680350000001 -45.86216949999999 65.485915125 -53.42305787499999 Q57.92502675000001 -60.983946249999995 47.292857250000004 -60.983946249999995 Q41.461062375000004 -60.983946249999995 36.46738275 -58.659650875 Q31.473604500000004 -56.33535549999999 28.003089375000002 -52.199910624999994 H37.895571374999996 V-44.69799999999999 H13.588749750000002 V-68.95758024999999 H21.043616250000003 V-56.490098124999996 Q25.698223125000002 -62.360455374999994 32.477607 -65.765187625 Q39.256990875 -69.16991987499999 47.292857250000004 -69.16991987499999 Q54.338134125 -69.16991987499999 60.5206395 -66.487517125 Q66.7032435 -63.805114374999995 71.28555825000001 -59.222799625 Q75.867971625 -54.64038625 78.55027575 -48.457880874999994 Q81.2326785 -42.275276874999996 81.2326785 -35.23 Q81.2326785 -28.184723124999998 78.55027575 -22.002119124999993 Q75.867971625 -15.819613750000002 71.28555825000001 -11.237200374999986 Q66.7032435 -6.6548856249999915 60.5206395 -3.972482874999997 Q54.338134125 -1.2900801249999887 47.292857250000004 -1.2900801249999887 Z M57.03740175000001 -21.62833037499999  43.624401750000004 -35.041330374999994 V-54.166 H51.079169625000006 V-38.18874999999999 L62.350330500000005 -26.941259124999988 L57.03740175000001 -21.62833037499999 Z"/></g><g id="Regular-S" transform="matrix(1 0 0 1 1405.73 696)"><path d="M47.34 -2.0919999999999987 Q33.5325 -2.0919999999999987 23.867250000000002 -11.757249999999999 Q14.202 -21.4225 14.202 -35.23 H21.303 Q21.303 -24.479874999999993 28.946437500000002 -16.836437499999988 Q36.589875 -9.192999999999998 47.34 -9.192999999999998 Q58.090125 -9.192999999999998 65.7335625 -16.836437499999988 Q73.37700000000001 -24.479874999999993 73.37700000000001 -35.23 Q73.37700000000001 -45.980124999999994 65.7335625 -53.6235625 Q58.090125 -61.266999999999996 47.34 -61.266999999999996 Q41.22525 -61.266999999999996 36.042802125 -58.74219999999999 Q30.860452875 -56.2174 27.319125 -51.79899999999999 H37.872 V-44.69799999999999 H14.202 V-68.368 H21.303 V-55.546749999999996 Q25.839750000000002 -61.46424999999999 32.5955625 -64.916125 Q39.351375000000004 -68.368 47.34 -68.368 Q54.243750000000006 -68.368 60.27299212500001 -65.744575 Q66.302332875 -63.12115 70.766692125 -58.656692125 Q75.23115 -54.192332875 77.854575 -48.162992124999995 Q80.47800000000001 -42.13374999999999 80.47800000000001 -35.23 Q80.47800000000001 -28.326249999999995 77.854575 -22.29700787499999 Q75.23115 -16.26766712499999 70.766692125 -11.803307874999987 Q66.302332875 -7.338849999999994 60.27299212500001 -4.715424999999996 Q54.243750000000006 -2.0919999999999987 47.34 -2.0919999999999987 Z M57.2025 -21.816999999999993  43.789500000000004 -35.23 V-54.166 H50.8905 V-38.18874999999999 L62.232375000000005 -26.846874999999997 L57.2025 -21.816999999999993 Z"/></g><g id="Light-S" transform="matrix(1 0 0 1 1109.75 696)"><path d="M47.264157375 -4.064598624999988 Q34.2532515 -4.064598624999988 25.176003750000003 -13.141846374999986 Q16.098756 -22.21919274999999 16.136726625 -35.23 H21.18918675 Q21.303 -24.517845624999993 28.908466875000002 -16.8553735 Q36.514032375 -9.192999999999998 47.264157375 -9.192999999999998 Q58.014282375 -9.192999999999998 65.657719875 -16.836437499999988 Q73.301157375 -24.479874999999993 73.301157375 -35.23 Q73.301157375 -45.980124999999994 65.657719875 -53.6235625 Q58.014282375 -61.266999999999996 47.264157375 -61.266999999999996 Q41.490847125 -61.266999999999996 36.57389775 -59.026733125 Q31.657047 -56.78646625 28.077847124999998 -52.86119124999999 H38.0996265 V-47.732789874999995 H18.07145325 V-67.76106175 H23.199756 V-54.8638705 Q27.5088795 -60.136461624999995 33.714660375 -63.26593149999999 Q39.92044125 -66.395401375 47.264157375 -66.395401375 Q53.750625 -66.395401375 59.41949137500001 -63.942597625 Q65.08835775 -61.489892499999996 69.30625312500001 -57.27209575 Q73.524049875 -53.05420037499999 75.97675500000001 -47.38533399999999 Q78.429460125 -41.71646762499999 78.429460125 -35.23 Q78.429460125 -28.743532374999994 75.97675500000001 -23.074665999999993 Q73.524049875 -17.405799625 69.30625312500001 -13.187904249999988 Q65.08835775 -8.970107499999997 59.41949137500001 -6.517402374999989 Q53.750625 -4.064598624999988 47.264157375 -4.064598624999988 Z M57.9232515 -22.49987949999999  44.813720625 -35.609311749999996 V-54.166 H49.942122000000005 V-37.80943824999999 L61.587466125000006 -26.1639955 L57.9232515 -22.49987949999999 Z"/></g><g id="Thin-S" transform="matrix(1 0 0 1 814.015 696)"><path d="M47.18831475 -6.036999999999992 Q34.973904375000004 -6.036999999999992 26.48456025 -14.526344124999994 Q17.995216125000002 -23.015688249999997 18.071157375 -35.23 H21.0753735 Q21.303 -24.555717625 28.870594875000002 -16.874408124999988 Q36.43818975 -9.192999999999998 47.18831475 -9.192999999999998 Q57.93843975 -9.192999999999998 65.58187725 -16.836437499999988 Q73.22531475 -24.479874999999993 73.22531475 -35.23 Q73.22531475 -45.980124999999994 65.58187725 -53.6235625 Q57.93843975 -61.266999999999996 47.18831475 -61.266999999999996 Q41.756345625 -61.266999999999996 37.104993375 -59.311167624999996 Q32.453641125 -57.355335249999996 28.836470625 -53.923185249999996 H38.327154375 V-50.76718525 H21.940216125000003 V-67.1541235 H25.096216125 V-54.18118825 Q29.17781175 -58.808969125 34.833561 -61.616033875 Q40.48931025 -64.423 47.18831475 -64.423 Q53.2575 -64.423 58.566089250000005 -62.14101475 Q63.874579874999995 -59.858930875 67.84591275 -55.887696625 Q71.817245625 -51.916363749999995 74.099230875 -46.60777449999999 Q76.38131475 -41.29928387499999 76.38131475 -35.23 Q76.38131475 -29.160716124999993 74.099230875 -23.85222549999999 Q71.817245625 -18.54363624999999 67.84591275 -14.57230337499999 Q63.874579874999995 -10.601069124999995 58.566089250000005 -8.318985249999997 Q53.2575 -6.036999999999992 47.18831475 -6.036999999999992 Z M58.643904375000005 -23.18256174999999  45.837842625 -35.988623499999996 V-54.166 H48.993842625 V-37.43012649999999 L60.942655875 -25.48131325 L58.643904375000005 -23.18256174999999 Z"/></g><g id="Ultralight-S" transform="matrix(1 0 0 1 517.792 696)"><path d="M47.14275 -7.220499999999987 Q35.406375000000004 -7.220499999999987 27.2698125 -15.357062499999998 Q19.13325 -23.493624999999994 19.231875000000002 -35.23 H21.007125000000002 Q21.303 -24.57849999999999 28.8478125 -16.885749999999987 Q36.392625 -9.192999999999998 47.14275 -9.192999999999998 Q57.892875000000004 -9.192999999999998 65.53631250000001 -16.836437499999988 Q73.17975 -24.479874999999993 73.17975 -35.23 Q73.17975 -45.980124999999994 65.53631250000001 -53.6235625 Q57.892875000000004 -61.266999999999996 47.14275 -61.266999999999996 Q41.915625 -61.266999999999996 37.423552125 -59.48188749999999 Q32.931577875 -57.696774999999995 29.291625 -54.5605 H38.463750000000005 V-52.587999999999994 H24.261750000000003 V-66.78999999999999 H26.23425 V-53.771499999999996 Q30.17925 -58.012375 35.505 -60.62593749999999 Q40.83075 -63.23949999999999 47.14275 -63.23949999999999 Q52.961625000000005 -63.23949999999999 58.05392962500001 -61.05988749999999 Q63.146332875000006 -58.880275 66.96962962500001 -55.05687962499999 Q70.793025 -51.233582874999996 72.9726375 -46.14117962499999 Q75.15225000000001 -41.048874999999995 75.15225000000001 -35.23 Q75.15225000000001 -29.41112499999999 72.9726375 -24.318820374999987 Q70.793025 -19.226417124999983 66.96962962500001 -15.403120374999986 Q63.146332875000006 -11.579724999999996 58.05392962500001 -9.400112499999992 Q52.961625000000005 -7.220499999999987 47.14275 -7.220499999999987 Z M59.076375000000006 -23.592249999999993  46.452375 -36.216249999999995 V-54.166 H48.424875 V-37.20249999999999 L60.55575 -25.071624999999997 L59.076375000000006 -23.592249999999993 Z"/></g></g></svg>