<svg xmlns="http://www.w3.org/2000/svg" version="1.1" width="3300" height="2000"><g id="Notes"><style>
    text {
      font-family: monospace;
      text-anchor: middle;
    }
    text.emphasis {
      font-weight:bold;
    }
    text.lanchor {
      text-anchor: start;
    }
  </style><rect height="2200" id="artboard" fill="white" width="3300" x="0" y="0"/><line id="" style="fill:none;stroke:black;stroke-width:0.5;" x1="263" x2="3036" y1="292" y2="292"/><text class="lanchor emphasis" transform="matrix(1 0 0 1 263 322)">Weight/Scale Variations</text><text transform="matrix(1 0 0 1 559.711 322)">Ultralight</text><text transform="matrix(1 0 0 1 856.422 322)">Thin</text><text transform="matrix(1 0 0 1 1153.13 322)">Light</text><text transform="matrix(1 0 0 1 1449.84 322)">Regular</text><text transform="matrix(1 0 0 1 1746.56 322)">Medium</text><text transform="matrix(1 0 0 1 2043.27 322)">Semibold</text><text transform="matrix(1 0 0 1 2339.98 322)">Bold</text><text transform="matrix(1 0 0 1 2636.69 322)">Heavy</text><text transform="matrix(1 0 0 1 2933.4 322)">Black</text><text id="template-version" style="text-anchor: end;" transform="matrix(1 0 0 1 3036 1933)">Template v.1.0</text><text class="lanchor" transform="matrix(1 0 0 1 263 726)">Small</text><text class="lanchor" transform="matrix(1 0 0 1 263 1156)">Medium</text><text class="lanchor" transform="matrix(1 0 0 1 263 1586)">Large</text></g><g id="Guides"><g id="H-reference" style="fill:#27AAE1;stroke:none;" transform="matrix(1 0 0 1 339 696)"><path d="M 54.9316 0 L 57.666 0 L 30.5664 -70.459 L 28.0762 -70.459 L 0.976562 0 L 3.66211 0 L 12.9395 -24.4629 L 45.7031 -24.4629 Z M 29.1992 -67.0898 L 29.4434 -67.0898 L 44.8242 -26.709 L 13.8184 -26.709 Z"/></g><line id="Baseline-S" style="fill:none;stroke:#27AAE1;opacity:1;stroke-width:0.577;" x1="263" x2="3036" y1="696" y2="696"/><line id="Capline-S" style="fill:none;stroke:#27AAE1;opacity:1;stroke-width:0.577;" x1="263" x2="3036" y1="625.541" y2="625.541"/><g id="H-reference" style="fill:#27AAE1;stroke:none;" transform="matrix(1 0 0 1 339 1126)"><path d="M 54.9316 0 L 57.666 0 L 30.5664 -70.459 L 28.0762 -70.459 L 0.976562 0 L 3.66211 0 L 12.9395 -24.4629 L 45.7031 -24.4629 Z M 29.1992 -67.0898 L 29.4434 -67.0898 L 44.8242 -26.709 L 13.8184 -26.709 Z"/></g><line id="Baseline-M" style="fill:none;stroke:#27AAE1;opacity:1;stroke-width:0.577;" x1="263" x2="3036" y1="1126" y2="1126"/><line id="Capline-M" style="fill:none;stroke:#27AAE1;opacity:1;stroke-width:0.577;" x1="263" x2="3036" y1="1055.54" y2="1055.54"/><g id="H-reference" style="fill:#27AAE1;stroke:none;" transform="matrix(1 0 0 1 339 1556)"><path d="M 54.9316 0 L 57.666 0 L 30.5664 -70.459 L 28.0762 -70.459 L 0.976562 0 L 3.66211 0 L 12.9395 -24.4629 L 45.7031 -24.4629 Z M 29.1992 -67.0898 L 29.4434 -67.0898 L 44.8242 -26.709 L 13.8184 -26.709 Z"/></g><line id="Baseline-L" style="fill:none;stroke:#27AAE1;opacity:1;stroke-width:0.577;" x1="263" x2="3036" y1="1556" y2="1556"/><line id="Capline-L" style="fill:none;stroke:#27AAE1;opacity:1;stroke-width:0.577;" x1="263" x2="3036" y1="1485.54" y2="1485.54"/><rect height="119.336" id="left-margin" style="fill:darkred;stroke:none;opacity:0.4;" width="12.4512" x="1394.06" y="1030.79"/><rect height="119.336" id="right-margin" style="fill:darkgreen;stroke:none;opacity:0.4;" width="12.4512" x="1502.5112" y="1030.79"/><rect x="1406.5112" y="1045" width="96" height="96" fill="none" stroke="blue" stroke-dasharray="5"/><rect x="1394.06" y="1030.79" width="120.9024" height="119.336" fill="none" stroke="blue"/></g><g id="Symbols"><g id="Bold-L" transform="matrix(1 0 0 1 2266 1556)"><path d="M28.21875 28.947500000000016 V-82.96 Q28.21875 -89.32340874999997 32.64909375 -93.80099874999999 Q37.0794375 -98.27874999999997 43.37625 -98.27874999999997 H111.42375 Q117.78715875 -98.27874999999997 122.26474875 -93.80099874999999 Q126.7425 -89.32340874999997 126.7425 -82.96 V28.947500000000016 L77.4 7.985000000000014 L28.21875 28.947500000000016 Z"/></g><g id="Semibold-L" transform="matrix(1 0 0 1 1970.27 1556)"><path d="M29.971376250000002 26.283488750000018 V-83.59097125 Q29.971376250000002 -88.87029625 33.73753125 -92.66321874999997 Q37.503525 -96.45597999999998 42.74527875 -96.45597999999998 H112.05472125 Q117.33404625 -96.45597999999998 121.12696874999999 -92.66321874999997 Q124.91973 -88.87029625 124.91973 -83.59097125 V26.283488750000018 L77.4 6.022103750000014 L29.971376250000002 26.283488750000018 Z"/></g><g id="Medium-L" transform="matrix(1 0 0 1 1674.31 1556)"><path d="M31.2860475 24.285278750000018 V-84.06423999999998 Q31.2860475 -88.53038124999998 34.55377875 -91.80956124999997 Q37.82167125 -95.08890249999999 42.27201 -95.08890249999999 H112.52799 Q116.99413125 -95.08890249999999 120.27331124999999 -91.80956124999997 Q123.5526525 -88.53038124999998 123.5526525 -84.06423999999998 V24.285278750000018 L77.4 4.549730000000018 L31.2860475 24.285278750000018 Z"/></g><g id="Regular-L" transform="matrix(1 0 0 1 1378.56 1556)"><path d="M32.25 22.820000000000014 V-84.41124999999998 Q32.25 -88.28125 35.1525 -91.18374999999997 Q38.055 -94.08624999999998 41.925000000000004 -94.08624999999998 H112.875 Q116.745 -94.08624999999998 119.64750000000001 -91.18374999999997 Q122.55 -88.28125 122.55 -84.41124999999998 V22.820000000000014 L77.4 3.470000000000013 L32.25 22.820000000000014 Z"/></g><g id="Light-L" transform="matrix(1 0 0 1 1082.77 1556)"><path d="M35.47516125 17.982177500000013 V-81.37200999999999 Q35.47516125 -85.11800874999999 38.2227 -87.89650749999998 Q40.9700775 -90.67500625 44.778157500000006 -90.67500625 H110.0218425 Q113.82992250000001 -90.67500625 116.57730000000001 -87.89650749999998 Q119.32483875000001 -85.11800874999999 119.32483875000001 -81.37200999999999 V17.982177500000013 L77.4 -0.0033249999999895863 L35.47516125 17.982177500000013 Z"/></g><g id="Thin-L" transform="matrix(1 0 0 1 787.282 1556)"><path d="M38.7 13.145000000000014 V-78.33341499999999 Q38.7 -81.95525124999999 41.29241625 -84.60974874999998 Q43.8848325 -87.26424624999999 47.63067 -87.26424624999999 H107.16933 Q110.91516750000001 -87.26424624999999 113.50758375000001 -84.60974874999998 Q116.10000000000001 -81.95525124999999 116.10000000000001 -78.33341499999999 V13.145000000000014 L77.4 -3.4761662499999844 L38.7 13.145000000000014 Z"/></g><g id="Ultralight-L" transform="matrix(1 0 0 1 491.205 1556)"><path d="M40.635 10.242500000000014 V-76.50999999999999 Q40.635 -80.05749999999999 43.134375 -82.63749999999999 Q45.63375 -85.21749999999999 49.3425 -85.21749999999999 H105.4575 Q109.16625 -85.21749999999999 111.665625 -82.63749999999999 Q114.165 -80.05749999999999 114.165 -76.50999999999999 V10.242500000000014 L77.4 -5.559999999999988 L40.635 10.242500000000014 Z"/></g><g id="Bold-M" transform="matrix(1 0 0 1 2281.8 1126)"><path d="M20.75 16.14500000000001 V-68.72999999999999 Q20.75 -75.35499999999999 25.3125 -79.91749999999999 Q29.875 -84.47999999999999 36.5 -84.47999999999999 H83.5 Q90.125 -84.47999999999999 94.6875 -79.91749999999999 Q99.25 -75.35499999999999 99.25 -68.72999999999999 V16.14500000000001 L60.0 -0.6049999999999898 L20.75 16.14500000000001 Z"/></g><g id="Semibold-M" transform="matrix(1 0 0 1 1985.97 1126)"><path d="M22.59775 13.37350000000001 V-69.38212499999999 Q22.59775 -74.92025 26.45375 -78.77624999999999 Q30.30975 -82.63224999999998 35.847875 -82.63224999999998 H84.152125 Q89.69025 -82.63224999999998 93.54625 -78.77624999999999 Q97.40225 -74.92025 97.40225 -69.38212499999999 V13.37350000000001 L60.0 -2.6157499999999914 L22.59775 13.37350000000001 Z"/></g><g id="Medium-M" transform="matrix(1 0 0 1 1689.91 1126)"><path d="M23.983625 11.29450000000001 V-69.87124999999999 Q23.983625 -74.59412499999999 27.30975 -77.92025 Q30.635875 -81.24637499999999 35.35875 -81.24637499999999 H84.64125 Q89.364125 -81.24637499999999 92.69025 -77.92025 Q96.016375 -74.59412499999999 96.016375 -69.87124999999999 V11.29450000000001 L60.0 -4.123999999999988 L23.983625 11.29450000000001 Z"/></g><g id="Regular-M" transform="matrix(1 0 0 1 1394.06 1126)"><path d="M25.0 9.77000000000001 V-70.22999999999999 Q25.0 -74.35499999999999 27.9375 -77.29249999999999 Q30.875 -80.22999999999999 35.0 -80.22999999999999 H85.0 Q89.125 -80.22999999999999 92.0625 -77.29249999999999 Q95.0 -74.35499999999999 95.0 -70.22999999999999 V9.77000000000001 L60.0 -5.22999999999999 L25.0 9.77000000000001 Z"/></g><g id="Light-M" transform="matrix(1 0 0 1 1098.18 1126)"><path d="M27.500125 6.019750000000009 V-68.691375 Q27.500125 -72.47987499999999 30.125125 -75.10487499999999 Q32.750125 -77.72987499999999 36.538625 -77.72987499999999 H83.461375 Q87.249875 -77.72987499999999 89.874875 -75.10487499999999 Q92.499875 -72.47987499999999 92.499875 -68.691375 V6.019750000000009 L60.0 -7.922499999999992 L27.500125 6.019750000000009 Z"/></g><g id="Thin-M" transform="matrix(1 0 0 1 802.565 1126)"><path d="M30.0 2.2700000000000102 V-67.15312499999999 Q30.0 -70.60499999999999 32.3125 -72.91749999999999 Q34.625 -75.22999999999999 38.076875 -75.22999999999999 H81.923125 Q85.375 -75.22999999999999 87.6875 -72.91749999999999 Q90.0 -70.60499999999999 90.0 -67.15312499999999 V2.2700000000000102 L60.0 -10.61462499999999 L30.0 2.2700000000000102 Z"/></g><g id="Ultralight-M" transform="matrix(1 0 0 1 506.415 1126)"><path d="M31.5 0.020000000000010232 V-66.22999999999999 Q31.5 -69.47999999999999 33.625 -71.60499999999999 Q35.75 -73.72999999999999 39.0 -73.72999999999999 H81.0 Q84.25 -73.72999999999999 86.375 -71.60499999999999 Q88.5 -69.47999999999999 88.5 -66.22999999999999 V0.020000000000010232 L60.0 -12.22999999999999 L31.5 0.020000000000010232 Z"/></g><g id="Bold-S" transform="matrix(1 0 0 1 2294.23 696)"><path d="M20.316750000000003 2.9378750000000124 V-60.08349999999999 Q20.316750000000003 -65.01474999999999 23.67 -68.368 Q27.02325 -71.72124999999998 31.954500000000003 -71.72124999999998 H62.725500000000004 Q67.65675 -71.72124999999998 71.01 -68.368 Q74.36325000000001 -65.01474999999999 74.36325000000001 -60.08349999999999 V2.9378750000000124 L47.34 -7.910874999999987 L20.316750000000003 2.9378750000000124 Z"/></g><g id="Semibold-S" transform="matrix(1 0 0 1 1998.1 696)"><path d="M21.77462475 0.7511615000000127 V-60.59802662499999 Q21.77462475 -64.67173224999999 24.57044625 -67.46755375 Q27.366267750000002 -70.26337524999998 31.439973375000005 -70.26337524999998 H63.240026625 Q67.31373225 -70.26337524999998 70.10955375 -67.46755375 Q72.90537525 -64.67173224999999 72.90537525 -60.59802662499999 V0.7511615000000127 L47.34 -9.497356749999987 L21.77462475 0.7511615000000127 Z"/></g><g id="Medium-S" transform="matrix(1 0 0 1 1701.85 696)"><path d="M22.868080125000002 -0.8891694999999871 V-60.98394624999999 Q22.868080125000002 -64.414419625 25.24583025 -66.79216975 Q27.623580375 -69.16991987499999 31.05405375 -69.16991987499999 H63.625946250000005 Q67.056419625 -69.16991987499999 69.43416975000001 -66.79216975 Q71.811919875 -64.414419625 71.811919875 -60.98394624999999 V-0.8891694999999871 L47.34 -10.687365999999987 L22.868080125000002 -0.8891694999999871 Z"/></g><g id="Regular-S" transform="matrix(1 0 0 1 1405.73 696)"><path d="M23.67 -2.0919999999999863 V-61.266999999999996 Q23.67 -64.22574999999999 25.741125 -66.29687499999999 Q27.812250000000002 -68.368 30.771 -68.368 H63.909000000000006 Q66.86775 -68.368 68.93887500000001 -66.29687499999999 Q71.01 -64.22574999999999 71.01 -61.266999999999996 V-2.0919999999999863 L47.34 -11.559999999999988 L23.67 -2.0919999999999863 Z"/></g><g id="Light-S" transform="matrix(1 0 0 1 1109.75 696)"><path d="M25.642598624999998 -5.0509472499999895 V-60.05302487499999 Q25.642598624999998 -62.746276374999994 27.467161125 -64.57083887499999 Q29.291723625 -66.39540137499999 31.984975125000005 -66.39540137499999 H62.69502487500001 Q65.388276375 -66.39540137499999 67.212838875 -64.57083887499999 Q69.037401375 -62.746276374999994 69.037401375 -60.05302487499999 V-5.0509472499999895 L47.34 -13.684382499999991 L25.642598624999998 -5.0509472499999895 Z"/></g><g id="Thin-S" transform="matrix(1 0 0 1 814.015 696)"><path d="M27.615000000000002 -8.009499999999989 V-58.83934562499999 Q27.615000000000002 -61.266999999999996 29.193 -62.844999999999985 Q30.771 -64.42299999999999 33.198654375000004 -64.42299999999999 H61.481345625 Q63.909000000000006 -64.42299999999999 65.48700000000001 -62.844999999999985 Q67.065 -61.266999999999996 67.065 -58.83934562499999 V-8.009499999999989 L47.34 -15.808469124999988 L27.615000000000002 -8.009499999999989 Z"/></g><g id="Ultralight-S" transform="matrix(1 0 0 1 517.792 696)"><path d="M28.7985 -9.784749999999988 V-58.11099999999999 Q28.7985 -60.379374999999996 30.228562500000002 -61.80943749999999 Q31.658625 -63.23949999999999 33.927 -63.23949999999999 H60.753 Q63.021375000000006 -63.23949999999999 64.4514375 -61.80943749999999 Q65.8815 -60.379374999999996 65.8815 -58.11099999999999 V-9.784749999999988 L47.34 -17.082999999999988 L28.7985 -9.784749999999988 Z"/></g></g></svg>