<svg xmlns="http://www.w3.org/2000/svg" version="1.1" width="3300" height="2000"><g id="Notes"><style>
    text {
      font-family: monospace;
      text-anchor: middle;
    }
    text.emphasis {
      font-weight:bold;
    }
    text.lanchor {
      text-anchor: start;
    }
  </style><rect height="2200" id="artboard" fill="white" width="3300" x="0" y="0"/><line id="" style="fill:none;stroke:black;stroke-width:0.5;" x1="263" x2="3036" y1="292" y2="292"/><text class="lanchor emphasis" transform="matrix(1 0 0 1 263 322)">Weight/Scale Variations</text><text transform="matrix(1 0 0 1 559.711 322)">Ultralight</text><text transform="matrix(1 0 0 1 856.422 322)">Thin</text><text transform="matrix(1 0 0 1 1153.13 322)">Light</text><text transform="matrix(1 0 0 1 1449.84 322)">Regular</text><text transform="matrix(1 0 0 1 1746.56 322)">Medium</text><text transform="matrix(1 0 0 1 2043.27 322)">Semibold</text><text transform="matrix(1 0 0 1 2339.98 322)">Bold</text><text transform="matrix(1 0 0 1 2636.69 322)">Heavy</text><text transform="matrix(1 0 0 1 2933.4 322)">Black</text><text id="template-version" style="text-anchor: end;" transform="matrix(1 0 0 1 3036 1933)">Template v.1.0</text><text class="lanchor" transform="matrix(1 0 0 1 263 726)">Small</text><text class="lanchor" transform="matrix(1 0 0 1 263 1156)">Medium</text><text class="lanchor" transform="matrix(1 0 0 1 263 1586)">Large</text></g><g id="Guides"><g id="H-reference" style="fill:#27AAE1;stroke:none;" transform="matrix(1 0 0 1 339 696)"><path d="M 54.9316 0 L 57.666 0 L 30.5664 -70.459 L 28.0762 -70.459 L 0.976562 0 L 3.66211 0 L 12.9395 -24.4629 L 45.7031 -24.4629 Z M 29.1992 -67.0898 L 29.4434 -67.0898 L 44.8242 -26.709 L 13.8184 -26.709 Z"/></g><line id="Baseline-S" style="fill:none;stroke:#27AAE1;opacity:1;stroke-width:0.577;" x1="263" x2="3036" y1="696" y2="696"/><line id="Capline-S" style="fill:none;stroke:#27AAE1;opacity:1;stroke-width:0.577;" x1="263" x2="3036" y1="625.541" y2="625.541"/><g id="H-reference" style="fill:#27AAE1;stroke:none;" transform="matrix(1 0 0 1 339 1126)"><path d="M 54.9316 0 L 57.666 0 L 30.5664 -70.459 L 28.0762 -70.459 L 0.976562 0 L 3.66211 0 L 12.9395 -24.4629 L 45.7031 -24.4629 Z M 29.1992 -67.0898 L 29.4434 -67.0898 L 44.8242 -26.709 L 13.8184 -26.709 Z"/></g><line id="Baseline-M" style="fill:none;stroke:#27AAE1;opacity:1;stroke-width:0.577;" x1="263" x2="3036" y1="1126" y2="1126"/><line id="Capline-M" style="fill:none;stroke:#27AAE1;opacity:1;stroke-width:0.577;" x1="263" x2="3036" y1="1055.54" y2="1055.54"/><g id="H-reference" style="fill:#27AAE1;stroke:none;" transform="matrix(1 0 0 1 339 1556)"><path d="M 54.9316 0 L 57.666 0 L 30.5664 -70.459 L 28.0762 -70.459 L 0.976562 0 L 3.66211 0 L 12.9395 -24.4629 L 45.7031 -24.4629 Z M 29.1992 -67.0898 L 29.4434 -67.0898 L 44.8242 -26.709 L 13.8184 -26.709 Z"/></g><line id="Baseline-L" style="fill:none;stroke:#27AAE1;opacity:1;stroke-width:0.577;" x1="263" x2="3036" y1="1556" y2="1556"/><line id="Capline-L" style="fill:none;stroke:#27AAE1;opacity:1;stroke-width:0.577;" x1="263" x2="3036" y1="1485.54" y2="1485.54"/><rect height="119.336" id="left-margin" style="fill:darkred;stroke:none;opacity:0.4;" width="12.4512" x="1394.06" y="1030.79"/><rect height="119.336" id="right-margin" style="fill:darkgreen;stroke:none;opacity:0.4;" width="12.4512" x="1502.5112" y="1030.79"/><rect x="1406.5112" y="1045" width="96" height="96" fill="none" stroke="blue" stroke-dasharray="5"/><rect x="1394.06" y="1030.79" width="120.9024" height="119.336" fill="none" stroke="blue"/></g><g id="Symbols"><g id="Bold-L" transform="matrix(1 0 0 1 2266 1556)"><path d="M36.92625 40.55750000000002 Q30.629437499999998 40.55750000000002 26.19909375 36.079748750000014 Q21.76875 31.602158750000015 21.76875 25.238750000000014 V-48.61374999999998 Q21.76875 -54.741249999999994 26.19909375 -59.25624999999998 Q30.629437499999998 -63.77124999999998 36.92625 -63.77124999999998 H59.985 V-48.61374999999998 H36.92625 Q36.92625 -48.61374999999998 36.92625 -48.61374999999998 Q36.92625 -48.61374999999998 36.92625 -48.61374999999998 V25.238750000000014 Q36.92625 25.238750000000014 36.92625 25.238750000000014 Q36.92625 25.238750000000014 36.92625 25.238750000000014 H117.87375 Q117.87375 25.238750000000014 117.87375 25.238750000000014 Q117.87375 25.238750000000014 117.87375 25.238750000000014 V-48.61374999999998 Q117.87375 -48.61374999999998 117.87375 -48.61374999999998 Q117.87375 -48.61374999999998 117.87375 -48.61374999999998 H94.4925 V-63.77124999999998 H117.87375 Q124.23715874999999 -63.77124999999998 128.71474875 -59.25624999999998 Q133.1925 -54.741249999999994 133.1925 -48.61374999999998 V25.238750000000014 Q133.1925 31.602158750000015 128.71474875 36.079748750000014 Q124.23715874999999 40.55750000000002 117.87375 40.55750000000002 H36.92625 Z M69.66 -9.591249999999988 V-81.83124999999998 L55.47 -67.64124999999999 L44.66625 -78.28374999999998 L77.23875 -111.01749999999998 L109.81125 -78.28374999999998 L99.00750000000001 -67.64124999999999 L84.8175 -81.83124999999998 V-9.591249999999988 H69.66 Z"/></g><g id="Semibold-L" transform="matrix(1 0 0 1 1970.27 1556)"><path d="M36.29527875 38.45431625000002 Q31.053525000000004 38.45431625000002 27.28753125 34.661555000000014 Q23.52137625 30.868632500000018 23.52137625 25.589307500000018 V-51.838588749999985 Q23.52137625 -56.98455999999999 27.28753125 -60.79860624999999 Q31.053525000000004 -64.61249124999999 36.29527875 -64.61249124999999 H61.17679875 V-51.838588749999985 H36.29527875 Q36.29527875 -51.838588749999985 36.29527875 -51.838588749999985 Q36.29527875 -51.838588749999985 36.29527875 -51.838588749999985 V25.589307500000018 Q36.29527875 25.589307500000018 36.29527875 25.589307500000018 Q36.29527875 25.589307500000018 36.29527875 25.589307500000018 H118.50472125 Q118.50472125 25.589307500000018 118.50472125 25.589307500000018 Q118.50472125 25.589307500000018 118.50472125 25.589307500000018 V-51.838588749999985 Q118.50472125 -51.838588749999985 118.50472125 -51.838588749999985 Q118.50472125 -51.838588749999985 118.50472125 -51.838588749999985 H93.30070125 V-64.61249124999999 H118.50472125 Q123.78404625 -64.61249124999999 127.57696874999999 -60.79860624999999 Q131.36973 -56.98455999999999 131.36973 -51.838588749999985 V25.589307500000018 Q131.36973 30.868632500000018 127.57696874999999 34.661555000000014 Q123.78404625 38.45431625000002 118.50472125 38.45431625000002 H36.29527875 Z M70.85179875 -11.41401999999998 V-84.28482999999999 L56.66179875 -70.09482999999999 L47.54053125 -79.12499124999998 L77.23875 -108.91431624999998 L106.93696874999999 -79.12499124999998 L97.81570125 -70.09482999999999 L83.62570125 -84.28482999999999 V-11.41401999999998 H70.85179875 Z"/></g><g id="Medium-L" transform="matrix(1 0 0 1 1674.31 1556)"><path d="M35.82201 36.87680750000001 Q31.371671250000002 36.87680750000001 28.10377875 33.597627500000016 Q24.8360475 30.318447500000016 24.8360475 25.852145000000014 V-54.25749999999999 Q24.8360475 -58.667364999999975 28.10377875 -61.95541374999999 Q31.371671250000002 -65.24346249999999 35.82201 -65.24346249999999 H62.07076875 V-54.25749999999999 H35.82201 Q35.82201 -54.25749999999999 35.82201 -54.25749999999999 Q35.82201 -54.25749999999999 35.82201 -54.25749999999999 V25.852145000000014 Q35.82201 25.852145000000014 35.82201 25.852145000000014 Q35.82201 25.852145000000014 35.82201 25.852145000000014 H118.97798999999999 Q118.97798999999999 25.852145000000014 118.97798999999999 25.852145000000014 Q118.97798999999999 25.852145000000014 118.97798999999999 25.852145000000014 V-54.25749999999999 Q118.97798999999999 -54.25749999999999 118.97798999999999 -54.25749999999999 Q118.97798999999999 -54.25749999999999 118.97798999999999 -54.25749999999999 H92.40673125 V-65.24346249999999 H118.97798999999999 Q123.44413125 -65.24346249999999 126.72331125 -61.95541374999999 Q130.0026525 -58.667364999999975 130.0026525 -54.25749999999999 V25.852145000000014 Q130.0026525 30.318447500000016 126.72331125 33.597627500000016 Q123.44413125 36.87680750000001 118.97798999999999 36.87680750000001 H35.82201 Z M71.74576875 -12.78109749999998 V-86.1253375 L57.55576875 -71.93533749999999 L49.69644375 -79.75596249999998 L77.23875 -107.33680749999999 L104.78105624999999 -79.75596249999998 L96.92173125000001 -71.93533749999999 L82.73173125000001 -86.1253375 V-12.78109749999998 H71.74576875 Z"/></g><g id="Regular-L" transform="matrix(1 0 0 1 1378.56 1556)"><path d="M35.475 35.72000000000001 Q31.605 35.72000000000001 28.7025 32.81750000000002 Q25.8 29.915000000000013 25.8 26.045000000000016 V-56.031249999999986 Q25.8 -59.90124999999999 28.7025 -62.803749999999994 Q31.605 -65.70624999999998 35.475 -65.70624999999998 H62.72625 V-56.031249999999986 H35.475 Q35.475 -56.031249999999986 35.475 -56.031249999999986 Q35.475 -56.031249999999986 35.475 -56.031249999999986 V26.045000000000016 Q35.475 26.045000000000016 35.475 26.045000000000016 Q35.475 26.045000000000016 35.475 26.045000000000016 H119.325 Q119.325 26.045000000000016 119.325 26.045000000000016 Q119.325 26.045000000000016 119.325 26.045000000000016 V-56.031249999999986 Q119.325 -56.031249999999986 119.325 -56.031249999999986 Q119.325 -56.031249999999986 119.325 -56.031249999999986 H91.75125 V-65.70624999999998 H119.325 Q123.19500000000001 -65.70624999999998 126.0975 -62.803749999999994 Q129.0 -59.90124999999999 129.0 -56.031249999999986 V26.045000000000016 Q129.0 29.915000000000013 126.0975 32.81750000000002 Q123.19500000000001 35.72000000000001 119.325 35.72000000000001 H35.475 Z M72.40125 -13.783749999999984 V-87.475 L58.21125 -73.28499999999998 L51.2775 -80.21874999999999 L77.23875 -106.17999999999998 L103.2 -80.21874999999999 L96.26625 -73.28499999999998 L82.07625 -87.475 V-13.783749999999984 H72.40125 Z"/></g><g id="Light-L" transform="matrix(1 0 0 1 1082.77 1556)"><path d="M38.328157499999996 32.494677500000016 Q34.53410625 32.494677500000016 31.779633750000002 29.740366250000015 Q29.02516125 26.985893750000017 29.02516125 23.191842500000014 V-51.93775749999999 Q29.02516125 -55.731647499999994 31.779633750000002 -58.48612 Q34.53410625 -61.24059249999999 38.328157499999996 -61.24059249999999 H60.6174225 V-53.922422499999996 H38.328157499999996 Q37.5838275 -53.922422499999996 36.96349875 -53.30225499999999 Q36.34333125 -52.68192624999999 36.34333125 -51.93775749999999 V23.191842500000014 Q36.34333125 23.936172500000016 36.96349875 24.556501250000018 Q37.5838275 25.176668750000015 38.328157499999996 25.176668750000015 H116.47184250000001 Q117.21617250000001 25.176668750000015 117.83650125 24.556501250000018 Q118.45666875 23.936172500000016 118.45666875 23.191842500000014 V-51.93775749999999 Q118.45666875 -52.68192624999999 117.83650125 -53.30225499999999 Q117.21617250000001 -53.922422499999996 116.47184250000001 -53.922422499999996 H93.98407875 V-61.24059249999999 H116.47184250000001 Q120.26589375 -61.24059249999999 123.02036625000001 -58.48612 Q125.77483875 -55.731647499999994 125.77483875 -51.93775749999999 V23.191842500000014 Q125.77483875 26.985893750000017 123.02036625000001 29.740366250000015 Q120.26589375 32.494677500000016 116.47184250000001 32.494677500000016 H38.328157499999996 Z M73.64174625 -14.217996249999985 V-86.54458749999998 L58.89349875 -71.79650124999999 L53.572410000000005 -77.05550874999999 L77.30083125 -100.72184874999999 L100.96717125 -77.05550874999999 L95.7080025 -71.79650124999999 L80.959755 -86.54458749999998 V-14.217996249999985 H73.64174625 Z"/></g><g id="Thin-L" transform="matrix(1 0 0 1 787.282 1556)"><path d="M41.18067 29.270000000000017 Q37.462728750000004 29.270000000000017 34.85628375 26.663716250000014 Q32.25 24.057271250000017 32.25 20.339330000000018 V-47.84474874999998 Q32.25 -51.56285124999998 34.85628375 -54.16913499999998 Q37.462728750000004 -56.77557999999999 41.18067 -56.77557999999999 H58.5089175 V-51.81391749999999 H41.18067 Q39.6923325 -51.81391749999999 38.45183625000001 -50.573582499999986 Q37.211501250000005 -49.333247499999985 37.211501250000005 -47.84474874999998 V20.339330000000018 Q37.211501250000005 21.827667500000015 38.45183625000001 23.068163750000014 Q39.6923325 24.308498750000016 41.18067 24.308498750000016 H113.61933 Q115.1076675 24.308498750000016 116.34816375 23.068163750000014 Q117.58849875 21.827667500000015 117.58849875 20.339330000000018 V-47.84474874999998 Q117.58849875 -49.333247499999985 116.34816375 -50.573582499999986 Q115.1076675 -51.81391749999999 113.61933 -51.81391749999999 H96.21658500000001 V-56.77557999999999 H113.61933 Q117.33727125 -56.77557999999999 119.94371625000001 -54.16913499999998 Q122.55 -51.56285124999998 122.55 -47.84474874999998 V20.339330000000018 Q122.55 24.057271250000017 119.94371625000001 26.663716250000014 Q117.33727125 29.270000000000017 113.61933 29.270000000000017 H41.18067 Z M74.88208125 -14.652081249999988 V-85.61449749999998 L59.57558625 -70.30816374999999 L55.866836250000006 -73.89275124999999 L77.36275125 -95.26466499999998 L98.734665 -73.89275124999999 L95.14991625 -70.30816374999999 L79.8435825 -85.61449749999998 V-14.652081249999988 H74.88208125 Z"/></g><g id="Ultralight-L" transform="matrix(1 0 0 1 491.205 1556)"><path d="M42.8925 27.335000000000015 Q39.22003125 27.335000000000015 36.70259625 24.817403750000015 Q34.185 22.299968750000016 34.185 18.627500000000015 V-45.38874999999999 Q34.185 -49.06121874999998 36.70259625 -51.57881499999999 Q39.22003125 -54.09624999999998 42.8925 -54.09624999999998 H57.24375 V-50.548749999999984 H42.8925 Q40.9575 -50.548749999999984 39.345 -48.93624999999999 Q37.7325 -47.32374999999999 37.7325 -45.38874999999999 V18.627500000000015 Q37.7325 20.562500000000014 39.345 22.175000000000015 Q40.9575 23.787500000000016 42.8925 23.787500000000016 H111.9075 Q113.8425 23.787500000000016 115.455 22.175000000000015 Q117.06750000000001 20.562500000000014 117.06750000000001 18.627500000000015 V-45.38874999999999 Q117.06750000000001 -47.32374999999999 115.455 -48.93624999999999 Q113.8425 -50.548749999999984 111.9075 -50.548749999999984 H97.55625 V-54.09624999999998 H111.9075 Q115.57996875 -54.09624999999998 118.097565 -51.57881499999999 Q120.61500000000001 -49.06121874999998 120.61500000000001 -45.38874999999999 V18.627500000000015 Q120.61500000000001 22.299968750000016 118.097565 24.817403750000015 Q115.57996875 27.335000000000015 111.9075 27.335000000000015 H42.8925 Z M75.62625 -14.912499999999987 V-85.05624999999999 L59.985 -69.41499999999999 L57.24375 -71.99499999999999 L77.4 -91.98999999999998 L97.395 -71.99499999999999 L94.815 -69.41499999999999 L79.17375 -85.05624999999999 V-14.912499999999987 H75.62625 Z"/></g><g id="Bold-M" transform="matrix(1 0 0 1 2281.8 1126)"><path d="M31.5 24.77000000000001 Q24.875 24.77000000000001 20.3125 20.20750000000001 Q15.75 15.64500000000001 15.75 9.02000000000001 V-37.47999999999999 Q15.75 -44.10499999999999 20.3125 -48.66749999999999 Q24.875 -53.22999999999999 31.5 -53.22999999999999 H42.125 V-37.47999999999999 H31.5 Q31.5 -37.47999999999999 31.5 -37.47999999999999 Q31.5 -37.47999999999999 31.5 -37.47999999999999 V9.02000000000001 Q31.5 9.02000000000001 31.5 9.02000000000001 Q31.5 9.02000000000001 31.5 9.02000000000001 H88.5 Q88.5 9.02000000000001 88.5 9.02000000000001 Q88.5 9.02000000000001 88.5 9.02000000000001 V-37.47999999999999 Q88.5 -37.47999999999999 88.5 -37.47999999999999 Q88.5 -37.47999999999999 88.5 -37.47999999999999 H77.875 V-53.22999999999999 H88.5 Q95.125 -53.22999999999999 99.6875 -48.66749999999999 Q104.25 -44.10499999999999 104.25 -37.47999999999999 V9.02000000000001 Q104.25 15.64500000000001 99.6875 20.20750000000001 Q95.125 24.77000000000001 88.5 24.77000000000001 H31.5 Z M52.125 -10.85499999999999 V-65.22999999999999 L44.125 -57.22999999999999 L33.125 -68.22999999999999 L60.0 -95.22999999999999 L86.875 -68.22999999999999 L75.875 -57.22999999999999 L67.875 -65.22999999999999 V-10.85499999999999 H52.125 Z"/></g><g id="Semibold-M" transform="matrix(1 0 0 1 1985.97 1126)"><path d="M30.847875 22.596250000000012 Q25.30975 22.596250000000012 21.45375 18.74025000000001 Q17.59775 14.88412500000001 17.59775 9.34612500000001 V-40.849374999999995 Q17.59775 -46.38749999999999 21.45375 -50.24349999999998 Q25.30975 -54.09949999999999 30.847875 -54.09949999999999 H43.374875 V-40.849374999999995 H30.847875 Q30.847875 -40.849374999999995 30.847875 -40.849374999999995 Q30.847875 -40.849374999999995 30.847875 -40.849374999999995 V9.34612500000001 Q30.847875 9.34612500000001 30.847875 9.34612500000001 Q30.847875 9.34612500000001 30.847875 9.34612500000001 H89.152125 Q89.152125 9.34612500000001 89.152125 9.34612500000001 Q89.152125 9.34612500000001 89.152125 9.34612500000001 V-40.849374999999995 Q89.152125 -40.849374999999995 89.152125 -40.849374999999995 Q89.152125 -40.849374999999995 89.152125 -40.849374999999995 H76.625125 V-54.09949999999999 H89.152125 Q94.69025 -54.09949999999999 98.54625 -50.24349999999998 Q102.40225 -46.38749999999999 102.40225 -40.849374999999995 V9.34612500000001 Q102.40225 14.88412500000001 98.54625 18.74025000000001 Q94.69025 22.596250000000012 89.152125 22.596250000000012 H30.847875 Z M53.374875 -12.75699999999999 V-67.78412499999999 L45.374875 -59.78412499999999 L36.113875 -69.09949999999999 L60.0 -93.05624999999999 L83.886125 -69.09949999999999 L74.625125 -59.78412499999999 L66.625125 -67.78412499999999 V-12.75699999999999 H53.374875 Z"/></g><g id="Medium-M" transform="matrix(1 0 0 1 1689.91 1126)"><path d="M30.35875 20.96562500000001 Q25.635875 20.96562500000001 22.30975 17.63962500000001 Q18.983625 14.31350000000001 18.983625 9.59062500000001 V-43.37674999999999 Q18.983625 -48.09949999999999 22.30975 -51.425625 Q25.635875 -54.75174999999999 30.35875 -54.75174999999999 H44.3125 V-43.37674999999999 H30.35875 Q30.35875 -43.37674999999999 30.35875 -43.37674999999999 Q30.35875 -43.37674999999999 30.35875 -43.37674999999999 V9.59062500000001 Q30.35875 9.59062500000001 30.35875 9.59062500000001 Q30.35875 9.59062500000001 30.35875 9.59062500000001 H89.64125 Q89.64125 9.59062500000001 89.64125 9.59062500000001 Q89.64125 9.59062500000001 89.64125 9.59062500000001 V-43.37674999999999 Q89.64125 -43.37674999999999 89.64125 -43.37674999999999 Q89.64125 -43.37674999999999 89.64125 -43.37674999999999 H75.6875 V-54.75174999999999 H89.64125 Q94.364125 -54.75174999999999 97.69025 -51.425625 Q101.016375 -48.09949999999999 101.016375 -43.37674999999999 V9.59062500000001 Q101.016375 14.31350000000001 97.69025 17.63962500000001 Q94.364125 20.96562500000001 89.64125 20.96562500000001 H30.35875 Z M54.3125 -14.18374999999999 V-69.70012499999999 L46.3125 -61.700124999999986 L38.356 -69.75174999999999 L60.0 -91.425625 L81.644 -69.75174999999999 L73.6875 -61.700124999999986 L65.6875 -69.70012499999999 V-14.18374999999999 H54.3125 Z"/></g><g id="Regular-M" transform="matrix(1 0 0 1 1394.06 1126)"><path d="M30.0 19.77000000000001 Q25.875 19.77000000000001 22.9375 16.83250000000001 Q20.0 13.89500000000001 20.0 9.77000000000001 V-45.22999999999999 Q20.0 -49.35499999999999 22.9375 -52.29249999999999 Q25.875 -55.22999999999999 30.0 -55.22999999999999 H45.0 V-45.22999999999999 H30.0 Q30.0 -45.22999999999999 30.0 -45.22999999999999 Q30.0 -45.22999999999999 30.0 -45.22999999999999 V9.77000000000001 Q30.0 9.77000000000001 30.0 9.77000000000001 Q30.0 9.77000000000001 30.0 9.77000000000001 H90.0 Q90.0 9.77000000000001 90.0 9.77000000000001 Q90.0 9.77000000000001 90.0 9.77000000000001 V-45.22999999999999 Q90.0 -45.22999999999999 90.0 -45.22999999999999 Q90.0 -45.22999999999999 90.0 -45.22999999999999 H75.0 V-55.22999999999999 H90.0 Q94.125 -55.22999999999999 97.0625 -52.29249999999999 Q100.0 -49.35499999999999 100.0 -45.22999999999999 V9.77000000000001 Q100.0 13.89500000000001 97.0625 16.83250000000001 Q94.125 19.77000000000001 90.0 19.77000000000001 H30.0 Z M55.0 -15.22999999999999 V-71.10499999999999 L47.0 -63.10499999999999 L40.0 -70.22999999999999 L60.0 -90.22999999999999 L80.0 -70.22999999999999 L73.0 -63.10499999999999 L65.0 -71.10499999999999 V-15.22999999999999 H55.0 Z"/></g><g id="Light-M" transform="matrix(1 0 0 1 1098.18 1126)"><path d="M31.538625 17.26975000000001 Q27.750125 17.26975000000001 25.125125 14.64487500000001 Q22.500125 12.01987500000001 22.500125 8.23137500000001 V-43.691374999999994 Q22.500125 -47.47987499999999 25.125125 -50.10487499999999 Q27.750125 -52.72987499999999 31.538625 -52.72987499999999 H44.326875 V-45.22999999999999 H31.538625 Q30.961625 -45.22999999999999 30.48075 -44.74924999999999 Q30.0 -44.26837499999999 30.0 -43.691374999999994 V8.23137500000001 Q30.0 8.80837500000001 30.48075 9.28925000000001 Q30.961625 9.77000000000001 31.538625 9.77000000000001 H88.461375 Q89.038375 9.77000000000001 89.51925 9.28925000000001 Q90.0 8.80837500000001 90.0 8.23137500000001 V-43.691374999999994 Q90.0 -44.26837499999999 89.51925 -44.74924999999999 Q89.038375 -45.22999999999999 88.461375 -45.22999999999999 H75.673125 V-52.72987499999999 H88.461375 Q92.249875 -52.72987499999999 94.874875 -50.10487499999999 Q97.499875 -47.47987499999999 97.499875 -43.691374999999994 V8.23137500000001 Q97.499875 12.01987500000001 94.874875 14.64487500000001 Q92.249875 17.26975000000001 88.461375 17.26975000000001 H31.538625 Z M56.250125 -16.480124999999987 V-71.63387499999999 L47.0 -62.38374999999999 L41.730875 -67.72987499999999 L60.0 -85.99887499999998 L78.269125 -67.72987499999999 L73.0 -62.38374999999999 L63.749875 -71.63387499999999 V-16.480124999999987 H56.250125 Z"/></g><g id="Thin-M" transform="matrix(1 0 0 1 802.565 1126)"><path d="M33.076875 14.77000000000001 Q29.625 14.77000000000001 27.3125 12.45750000000001 Q25.0 10.14500000000001 25.0 6.693125000000009 V-42.15312499999999 Q25.0 -45.60499999999999 27.3125 -47.91749999999999 Q29.625 -50.22999999999999 33.076875 -50.22999999999999 H43.653875 V-45.22999999999999 H33.076875 Q31.923125 -45.22999999999999 30.9615 -44.26849999999999 Q30.0 -43.30687499999999 30.0 -42.15312499999999 V6.693125000000009 Q30.0 7.846875000000011 30.9615 8.808500000000011 Q31.923125 9.77000000000001 33.076875 9.77000000000001 H86.923125 Q88.076875 9.77000000000001 89.0385 8.808500000000011 Q90.0 7.846875000000011 90.0 6.693125000000009 V-42.15312499999999 Q90.0 -43.30687499999999 89.0385 -44.26849999999999 Q88.076875 -45.22999999999999 86.923125 -45.22999999999999 H76.346125 V-50.22999999999999 H86.923125 Q90.375 -50.22999999999999 92.6875 -47.91749999999999 Q95.0 -45.60499999999999 95.0 -42.15312499999999 V6.693125000000009 Q95.0 10.14500000000001 92.6875 12.45750000000001 Q90.375 14.77000000000001 86.923125 14.77000000000001 H33.076875 Z M57.5 -17.72999999999999 V-72.16262499999999 L47.0 -61.66274999999999 L43.4615 -65.22999999999999 L60.0 -81.76849999999999 L76.5385 -65.22999999999999 L73.0 -61.66274999999999 L62.5 -72.16262499999999 V-17.72999999999999 H57.5 Z"/></g><g id="Ultralight-M" transform="matrix(1 0 0 1 506.415 1126)"><path d="M34.0 13.27000000000001 Q30.75 13.27000000000001 28.625 11.14500000000001 Q26.5 9.02000000000001 26.5 5.77000000000001 V-41.22999999999999 Q26.5 -44.47999999999999 28.625 -46.60499999999999 Q30.75 -48.72999999999999 34.0 -48.72999999999999 H43.25 V-45.22999999999999 H34.0 Q32.5 -45.22999999999999 31.25 -43.97999999999999 Q30.0 -42.72999999999999 30.0 -41.22999999999999 V5.77000000000001 Q30.0 7.27000000000001 31.25 8.52000000000001 Q32.5 9.77000000000001 34.0 9.77000000000001 H86.0 Q87.5 9.77000000000001 88.75 8.52000000000001 Q90.0 7.27000000000001 90.0 5.77000000000001 V-41.22999999999999 Q90.0 -42.72999999999999 88.75 -43.97999999999999 Q87.5 -45.22999999999999 86.0 -45.22999999999999 H76.75 V-48.72999999999999 H86.0 Q89.25 -48.72999999999999 91.375 -46.60499999999999 Q93.5 -44.47999999999999 93.5 -41.22999999999999 V5.77000000000001 Q93.5 9.02000000000001 91.375 11.14500000000001 Q89.25 13.27000000000001 86.0 13.27000000000001 H34.0 Z M58.25 -18.47999999999999 V-72.47999999999999 L47.0 -61.22999999999999 L44.5 -63.72999999999999 L60.0 -79.22999999999999 L75.5 -63.72999999999999 L73.0 -61.22999999999999 L61.75 -72.47999999999999 V-18.47999999999999 H58.25 Z"/></g><g id="Bold-S" transform="matrix(1 0 0 1 2294.23 696)"><path d="M27.192589125 11.321000000000014 Q22.289250000000003 11.321000000000014 18.936 7.952956250000014 Q15.58275 4.584912500000014 15.58275 -0.31674999999998654 V-36.21624999999999 Q15.58275 -41.117912499999996 18.950793750000003 -44.485956249999994 Q22.3188375 -47.85399999999999 27.2205 -47.85399999999999 H35.603625 V-36.21624999999999 H27.2205 Q27.2205 -36.21624999999999 27.2205 -36.21624999999999 Q27.2205 -36.21624999999999 27.2205 -36.21624999999999 V-0.31674999999998654 Q27.2205 -0.31674999999998654 27.2205 -0.31674999999998654 Q27.2205 -0.31674999999998654 27.2205 -0.31674999999998654 H67.4595 Q67.4595 -0.31674999999998654 67.4595 -0.31674999999998654 Q67.4595 -0.31674999999998654 67.4595 -0.31674999999998654 V-36.21624999999999 Q67.4595 -36.21624999999999 67.4595 -36.21624999999999 Q67.4595 -36.21624999999999 67.4595 -36.21624999999999 H59.076375000000006 V-47.85399999999999 H67.4595 Q72.39075 -47.85399999999999 75.744 -44.485956249999994 Q79.09725 -41.117912499999996 79.09725 -36.21624999999999 V-0.31674999999998654 Q79.09725 4.584912500000014 75.72802275 7.952956250000014 Q72.35879550000001 11.321000000000014 67.455555 11.321000000000014 H27.192589125 Z M41.521125000000005 -17.576124999999987 V-59.590374999999995 L35.8995 -53.968749999999986 L27.713625 -62.05599999999998 L47.34 -81.78099999999999 L66.966375 -62.05599999999998 L58.7805 -53.968749999999986 L53.158875 -59.590374999999995 V-17.576124999999987 H41.521125000000005 Z"/></g><g id="Semibold-S" transform="matrix(1 0 0 1 1998.1 696)"><path d="M26.678062500000003 9.605911250000013 Q22.63226775 9.605911250000013 19.83644625 6.795296000000014 Q17.040624750000003 3.9845821250000135 17.040624750000003 -0.05943737499998747 V-38.874686874999995 Q17.040624750000003 -42.91880499999999 19.85124 -45.72942024999998 Q22.66185525 -48.54003549999999 26.705973375000003 -48.54003549999999 H36.58977637500001 V-38.874686874999995 H26.705973375000003 Q26.705973375000003 -38.874686874999995 26.705973375000003 -38.874686874999995 Q26.705973375000003 -38.874686874999995 26.705973375000003 -38.874686874999995 V-0.05943737499998747 Q26.705973375000003 -0.05943737499998747 26.705973375000003 -0.05943737499998747 Q26.705973375000003 -0.05943737499998747 26.705973375000003 -0.05943737499998747 H67.97402662500001 Q67.97402662500001 -0.05943737499998747 67.97402662500001 -0.05943737499998747 Q67.97402662500001 -0.05943737499998747 67.97402662500001 -0.05943737499998747 V-38.874686874999995 Q67.97402662500001 -38.874686874999995 67.97402662500001 -38.874686874999995 Q67.97402662500001 -38.874686874999995 67.97402662500001 -38.874686874999995 H58.090223625 V-48.54003549999999 H67.97402662500001 Q72.04773225000001 -48.54003549999999 74.84355375 -45.72942024999998 Q77.63937525 -42.91880499999999 77.63937525 -38.874686874999995 V-0.05943737499998747 Q77.63937525 3.9845821250000135 74.8275765 6.795296000000014 Q72.01577775 9.605911250000013 67.970081625 9.605911250000013 H26.678062500000003 Z M42.507276375000004 -19.076802999999988 V-61.60557962499999 L36.885651375 -55.983954624999996 L30.071847375 -62.742035499999986 L47.34 -80.06591124999998 L64.608152625 -62.742035499999986 L57.794348625 -55.983954624999996 L52.172723625 -61.60557962499999 V-19.076802999999988 H42.507276375000004 Z"/></g><g id="Medium-S" transform="matrix(1 0 0 1 1701.85 696)"><path d="M26.292044250000004 8.319348125000014 Q22.889580375 8.319348125000014 20.511830250000003 5.926902875000014 Q18.134080125 3.5343590000000127 18.134080125 0.13347312500001252 V-40.86878574999999 Q18.134080125 -44.26957299999999 20.526623999999998 -46.66211687499999 Q22.919167875 -49.05466074999999 26.320053750000003 -49.05466074999999 H37.3295625 V-40.86878574999999 H26.320053750000003 Q26.320053750000003 -40.86878574999999 26.320053750000003 -40.86878574999999 Q26.320053750000003 -40.86878574999999 26.320053750000003 -40.86878574999999 V0.13347312500001252 Q26.320053750000003 0.13347312500001252 26.320053750000003 0.13347312500001252 Q26.320053750000003 0.13347312500001252 26.320053750000003 0.13347312500001252 H68.35994625000001 Q68.35994625000001 0.13347312500001252 68.35994625000001 0.13347312500001252 Q68.35994625000001 0.13347312500001252 68.35994625000001 0.13347312500001252 V-40.86878574999999 Q68.35994625000001 -40.86878574999999 68.35994625000001 -40.86878574999999 Q68.35994625000001 -40.86878574999999 68.35994625000001 -40.86878574999999 H57.350437500000005 V-49.05466074999999 H68.35994625000001 Q71.790419625 -49.05466074999999 74.16816975 -46.66211687499999 Q76.545919875 -44.26957299999999 76.545919875 -40.86878574999999 V0.13347312500001252 Q76.545919875 3.5343590000000127 74.1521925 5.926902875000014 Q71.75846512500001 8.319348125000014 68.35600125 8.319348125000014 H26.292044250000004 Z M43.2470625 -20.202508749999986 V-63.11730362499999 L37.625437500000004 -57.49567862499998 L31.840884000000003 -63.25666074999998 L47.34 -78.779348125 L62.839116000000004 -63.25666074999998 L57.0545625 -57.49567862499998 L51.4329375 -63.11730362499999 V-20.202508749999986 H43.2470625 Z"/></g><g id="Regular-S" transform="matrix(1 0 0 1 1405.73 696)"><path d="M26.009089125 7.376000000000014 Q23.07825 7.376000000000014 21.007125000000002 5.2900812500000125 Q18.936 3.204162500000013 18.936 0.2750000000000128 V-42.33099999999999 Q18.936 -45.26016249999999 21.02191875 -47.34608124999999 Q23.107837500000002 -49.43199999999999 26.037000000000003 -49.43199999999999 H37.872 V-42.33099999999999 H26.037000000000003 Q26.037000000000003 -42.33099999999999 26.037000000000003 -42.33099999999999 Q26.037000000000003 -42.33099999999999 26.037000000000003 -42.33099999999999 V0.2750000000000128 Q26.037000000000003 0.2750000000000128 26.037000000000003 0.2750000000000128 Q26.037000000000003 0.2750000000000128 26.037000000000003 0.2750000000000128 H68.643 Q68.643 0.2750000000000128 68.643 0.2750000000000128 Q68.643 0.2750000000000128 68.643 0.2750000000000128 V-42.33099999999999 Q68.643 -42.33099999999999 68.643 -42.33099999999999 Q68.643 -42.33099999999999 68.643 -42.33099999999999 H56.808 V-49.43199999999999 H68.643 Q71.60175000000001 -49.43199999999999 73.672875 -47.34608124999999 Q75.744 -45.26016249999999 75.744 -42.33099999999999 V0.2750000000000128 Q75.744 3.204162500000013 73.65689775 5.2900812500000125 Q71.56979550000001 7.376000000000014 68.63905500000001 7.376000000000014 H26.009089125 Z M43.789500000000004 -21.027999999999984 V-64.22574999999999 L38.167875 -58.604124999999996 L33.138 -63.633999999999986 L47.34 -77.83599999999998 L61.542 -63.633999999999986 L56.512125000000005 -58.604124999999996 L50.8905 -64.22574999999999 V-21.027999999999984 H43.789500000000004 Z"/></g><g id="Light-S" transform="matrix(1 0 0 1 1109.75 696)"><path d="M27.222965625 5.403401375000013 Q24.557723625 5.403401375000013 22.733161125000002 3.564045125000014 Q20.908598625 1.7246888750000124 20.908598625 -0.9389751249999865 V-41.11702487499999 Q20.908598625 -43.78068887499998 22.747954875 -45.62004512499999 Q24.587311125 -47.45940137499999 27.250975125000004 -47.45940137499999 H37.340904375 V-42.33099999999999 H27.250975125000004 Q26.795722125 -42.33099999999999 26.416311750000002 -41.95168824999999 Q26.037000000000003 -41.57227787499999 26.037000000000003 -41.11702487499999 V-0.9389751249999865 Q26.037000000000003 -0.48372212499998746 26.416311750000002 -0.1043117499999866 Q26.795722125 0.2750000000000128 27.250975125000004 0.2750000000000128 H67.42902487500001 Q67.88427787500001 0.2750000000000128 68.26368825 -0.1043117499999866 Q68.643 -0.48372212499998746 68.643 -0.9389751249999865 V-41.11702487499999 Q68.643 -41.57227787499999 68.26368825 -41.95168824999999 Q67.88427787500001 -42.33099999999999 67.42902487500001 -42.33099999999999 H57.339095625 V-47.45940137499999 H67.42902487500001 Q70.122276375 -47.45940137499999 71.94683887500001 -45.62004512499999 Q73.77140137500001 -43.78068887499998 73.77140137500001 -41.11702487499999 V-0.9389751249999865 Q73.77140137500001 1.7246888750000124 71.930861625 3.564045125000014 Q70.090321875 5.403401375000013 67.425079875 5.403401375000013 H27.222965625 Z M44.775848625 -22.014348624999982 V-64.64303237499999 L38.167875 -58.03505874999999 L34.503660375 -61.661401375 L47.34 -74.49764237499998 L60.176339625000004 -61.661401375 L56.512125000000005 -58.03505874999999 L49.904151375000005 -64.64303237499999 V-22.014348624999982 H44.775848625 Z"/></g><g id="Thin-S" transform="matrix(1 0 0 1 814.015 696)"><path d="M28.436743500000002 3.4310000000000134 Q26.037000000000003 3.4310000000000134 24.459 1.8382062500000131 Q22.881 0.2454125000000129 22.881 -2.1526543749999885 V-39.903345624999986 Q22.881 -42.30141249999999 24.473793750000002 -43.89420624999999 Q26.0665875 -45.48699999999999 28.464654375000002 -45.48699999999999 H36.809907375 V-42.33099999999999 H28.464654375000002 Q27.554345625 -42.33099999999999 26.7956235 -41.57237649999999 Q26.037000000000003 -40.81365437499999 26.037000000000003 -39.903345624999986 V-2.1526543749999885 Q26.037000000000003 -1.2423456249999862 26.7956235 -0.483623499999986 Q27.554345625 0.2750000000000128 28.464654375000002 0.2750000000000128 H66.215345625 Q67.12565437500001 0.2750000000000128 67.8843765 -0.483623499999986 Q68.643 -1.2423456249999862 68.643 -2.1526543749999885 V-39.903345624999986 Q68.643 -40.81365437499999 67.8843765 -41.57237649999999 Q67.12565437500001 -42.33099999999999 66.215345625 -42.33099999999999 H57.870092625000005 V-45.48699999999999 H66.215345625 Q68.643 -45.48699999999999 70.221 -43.89420624999999 Q71.799 -42.30141249999999 71.799 -39.903345624999986 V-2.1526543749999885 Q71.799 0.2454125000000129 70.20502275 1.8382062500000131 Q68.6110455 3.4310000000000134 66.211302 3.4310000000000134 H28.436743500000002 Z M45.762 -23.000499999999988 V-65.060216125 L38.167875 -57.466189749999984 L35.8691235 -59.68899999999999 L47.34 -71.1598765 L58.8108765 -59.68899999999999 L56.512125000000005 -57.466189749999984 L48.918 -65.060216125 V-23.000499999999988 H45.762 Z"/></g><g id="Ultralight-S" transform="matrix(1 0 0 1 517.792 696)"><path d="M29.165089125 2.247500000000013 Q26.924625000000002 2.247500000000013 25.4945625 0.8026437500000121 Q24.064500000000002 -0.6422124999999888 24.064500000000002 -2.880999999999988 V-39.17499999999999 Q24.064500000000002 -41.41378749999999 25.50935625 -42.85864374999999 Q26.9542125 -44.303499999999985 29.193 -44.303499999999985 H36.49125 V-42.33099999999999 H29.193 Q28.009500000000003 -42.33099999999999 27.02325 -41.34474999999999 Q26.037000000000003 -40.358499999999985 26.037000000000003 -39.17499999999999 V-2.880999999999988 Q26.037000000000003 -1.6974999999999874 27.02325 -0.7112499999999873 Q28.009500000000003 0.2750000000000128 29.193 0.2750000000000128 H65.48700000000001 Q66.6705 0.2750000000000128 67.65675 -0.7112499999999873 Q68.643 -1.6974999999999874 68.643 -2.880999999999988 V-39.17499999999999 Q68.643 -40.358499999999985 67.65675 -41.34474999999999 Q66.6705 -42.33099999999999 65.48700000000001 -42.33099999999999 H58.188750000000006 V-44.303499999999985 H65.48700000000001 Q67.755375 -44.303499999999985 69.1854375 -42.85864374999999 Q70.6155 -41.41378749999999 70.6155 -39.17499999999999 V-2.880999999999988 Q70.6155 -0.6422124999999888 69.16946025 0.8026437500000121 Q67.7234205 2.247500000000013 65.48305500000001 2.247500000000013 H29.165089125 Z M46.353750000000005 -23.592249999999986 V-65.31062499999999 L38.167875 -57.12474999999999 L36.688500000000005 -58.505499999999984 L47.34 -69.157 L57.9915 -58.505499999999984 L56.512125000000005 -57.12474999999999 L48.32625 -65.31062499999999 V-23.592249999999986 H46.353750000000005 Z"/></g></g></svg>