<svg xmlns="http://www.w3.org/2000/svg" version="1.1" width="3300" height="2000"><g id="Notes"><style>
    text {
      font-family: monospace;
      text-anchor: middle;
    }
    text.emphasis {
      font-weight:bold;
    }
    text.lanchor {
      text-anchor: start;
    }
  </style><rect height="2200" id="artboard" fill="white" width="3300" x="0" y="0"/><line id="" style="fill:none;stroke:black;stroke-width:0.5;" x1="263" x2="3036" y1="292" y2="292"/><text class="lanchor emphasis" transform="matrix(1 0 0 1 263 322)">Weight/Scale Variations</text><text transform="matrix(1 0 0 1 559.711 322)">Ultralight</text><text transform="matrix(1 0 0 1 856.422 322)">Thin</text><text transform="matrix(1 0 0 1 1153.13 322)">Light</text><text transform="matrix(1 0 0 1 1449.84 322)">Regular</text><text transform="matrix(1 0 0 1 1746.56 322)">Medium</text><text transform="matrix(1 0 0 1 2043.27 322)">Semibold</text><text transform="matrix(1 0 0 1 2339.98 322)">Bold</text><text transform="matrix(1 0 0 1 2636.69 322)">Heavy</text><text transform="matrix(1 0 0 1 2933.4 322)">Black</text><text id="template-version" style="text-anchor: end;" transform="matrix(1 0 0 1 3036 1933)">Template v.1.0</text><text class="lanchor" transform="matrix(1 0 0 1 263 726)">Small</text><text class="lanchor" transform="matrix(1 0 0 1 263 1156)">Medium</text><text class="lanchor" transform="matrix(1 0 0 1 263 1586)">Large</text></g><g id="Guides"><g id="H-reference" style="fill:#27AAE1;stroke:none;" transform="matrix(1 0 0 1 339 696)"><path d="M 54.9316 0 L 57.666 0 L 30.5664 -70.459 L 28.0762 -70.459 L 0.976562 0 L 3.66211 0 L 12.9395 -24.4629 L 45.7031 -24.4629 Z M 29.1992 -67.0898 L 29.4434 -67.0898 L 44.8242 -26.709 L 13.8184 -26.709 Z"/></g><line id="Baseline-S" style="fill:none;stroke:#27AAE1;opacity:1;stroke-width:0.577;" x1="263" x2="3036" y1="696" y2="696"/><line id="Capline-S" style="fill:none;stroke:#27AAE1;opacity:1;stroke-width:0.577;" x1="263" x2="3036" y1="625.541" y2="625.541"/><g id="H-reference" style="fill:#27AAE1;stroke:none;" transform="matrix(1 0 0 1 339 1126)"><path d="M 54.9316 0 L 57.666 0 L 30.5664 -70.459 L 28.0762 -70.459 L 0.976562 0 L 3.66211 0 L 12.9395 -24.4629 L 45.7031 -24.4629 Z M 29.1992 -67.0898 L 29.4434 -67.0898 L 44.8242 -26.709 L 13.8184 -26.709 Z"/></g><line id="Baseline-M" style="fill:none;stroke:#27AAE1;opacity:1;stroke-width:0.577;" x1="263" x2="3036" y1="1126" y2="1126"/><line id="Capline-M" style="fill:none;stroke:#27AAE1;opacity:1;stroke-width:0.577;" x1="263" x2="3036" y1="1055.54" y2="1055.54"/><g id="H-reference" style="fill:#27AAE1;stroke:none;" transform="matrix(1 0 0 1 339 1556)"><path d="M 54.9316 0 L 57.666 0 L 30.5664 -70.459 L 28.0762 -70.459 L 0.976562 0 L 3.66211 0 L 12.9395 -24.4629 L 45.7031 -24.4629 Z M 29.1992 -67.0898 L 29.4434 -67.0898 L 44.8242 -26.709 L 13.8184 -26.709 Z"/></g><line id="Baseline-L" style="fill:none;stroke:#27AAE1;opacity:1;stroke-width:0.577;" x1="263" x2="3036" y1="1556" y2="1556"/><line id="Capline-L" style="fill:none;stroke:#27AAE1;opacity:1;stroke-width:0.577;" x1="263" x2="3036" y1="1485.54" y2="1485.54"/><rect height="119.336" id="left-margin" style="fill:darkred;stroke:none;opacity:0.4;" width="12.4512" x="1394.06" y="1030.79"/><rect height="119.336" id="right-margin" style="fill:darkgreen;stroke:none;opacity:0.4;" width="12.4512" x="1502.5112" y="1030.79"/><rect x="1406.5112" y="1045" width="96" height="96" fill="none" stroke="blue" stroke-dasharray="5"/><rect x="1394.06" y="1030.79" width="120.9024" height="119.336" fill="none" stroke="blue"/></g><g id="Symbols"><g id="Bold-L" transform="matrix(1 0 0 1 2266 1556)"><path d="M71.27250000000001 -1.206249999999983 H84.495 V-41.67999999999998 H71.27250000000001 V-1.206249999999983 Z M77.4112875 -51.19374999999998 Q80.705625 -51.19374999999998 82.9228125 -53.372721249999984 Q85.14 -55.55153124999998 85.14 -58.77249999999998 Q85.14 -62.311937499999985 82.91555625000001 -64.49284374999999 Q80.6911125 -66.67374999999998 77.4029025 -66.67374999999998 Q73.933125 -66.67374999999998 71.79656250000001 -64.49284374999999 Q69.66 -62.311937499999985 69.66 -58.85312499999998 Q69.66 -55.53137499999998 71.888475 -53.36256249999998 Q74.11695 -51.19374999999998 77.4112875 -51.19374999999998 Z M77.465145 33.30125000000001 Q63.134535 33.30125000000001 50.67748875 27.966455000000025 Q38.22028125 22.63182125 28.87923 13.290770000000009 Q19.53817875 3.9497187500000166 14.203545 -8.497168749999986 Q8.86875 -20.94421749999998 8.86875 -35.28837249999998 Q8.86875 -49.632688749999986 14.203545 -62.10182874999998 Q19.53817875 -74.57096874999999 28.85391375 -83.83977999999999 Q38.16964875 -93.10875249999998 50.62846875 -98.51562624999998 Q63.0871275 -103.92249999999999 77.44498875000001 -103.92249999999999 Q91.80268875 -103.92249999999999 104.29085625 -98.52804249999998 Q116.77902375000001 -93.13374624999997 126.0359025 -83.88621999999998 Q135.29278125 -74.63869374999999 140.69272125 -62.13730374999999 Q146.0925 -49.63607499999998 146.0925 -35.27289249999998 Q146.0925 -20.920029999999983 140.68562625 -8.465563749999987 Q135.2787525 3.988902500000023 126.00978 13.280611250000021 Q116.74096875000001 22.57232000000002 104.26828125 27.936785000000015 Q91.795755 33.30125000000001 77.465145 33.30125000000001 Z M77.480625 18.14375000000001 Q99.6525 18.14375000000001 115.213125 2.6037650000000383 Q130.77375 -12.936219999999992 130.77375 -35.31062499999999 Q130.77375 -57.48249999999999 115.24344 -73.04312499999997 Q99.71296875 -88.60374999999999 77.31937500000001 -88.60374999999999 Q55.1475 -88.60374999999999 39.586875 -73.07343999999998 Q24.02625 -57.542968749999986 24.02625 -35.14937499999998 Q24.02625 -12.977499999999978 39.566235000000006 2.583125000000024 Q55.10622000000001 18.14375000000001 77.480625 18.14375000000001 Z"/></g><g id="Semibold-L" transform="matrix(1 0 0 1 1970.27 1556)"><path d="M72.0435975 -1.9773474999999934 H83.7239025 V-41.67999999999998 H72.0435975 V-1.9773474999999934 Z M77.40516 -52.245261249999984 Q80.2499325 -52.245261249999984 82.16913000000001 -54.12188874999998 Q84.08848875000001 -55.998516249999994 84.08848875000001 -58.77249999999998 Q84.08848875000001 -61.78610124999999 82.16638875000001 -63.70416999999999 Q80.24428875000001 -65.62223874999998 77.4029025 -65.62223874999998 Q74.45896125 -65.62223874999998 72.58523625000001 -63.70416999999999 Q70.71151125 -61.78610124999999 70.71151125 -58.81813374999999 Q70.71151125 -55.98706749999998 72.63603 -54.11624499999999 Q74.5603875 -52.245261249999984 77.40516 -52.245261249999984 Z M77.45547 31.54862375000002 Q63.55523625000001 31.54862375000002 51.412627500000006 26.324930000000023 Q39.27018 21.101236250000028 30.169391250000004 12.000608750000026 Q21.06876375 2.899820000000034 15.84507 -9.242143749999983 Q10.62137625 -21.384107499999985 10.62137625 -35.29804749999998 Q10.62137625 -49.21198749999998 15.84507 -61.366528749999986 Q21.06876375 -73.52106999999998 30.155201249999998 -82.54590999999999 Q39.2414775 -91.57074999999998 51.39021375 -96.83523999999998 Q63.53878875 -102.09972999999998 77.46046875 -102.09972999999998 Q91.38198750000001 -102.09972999999998 103.5473325 -96.84233499999999 Q115.7126775 -91.58493999999999 124.730745 -82.57219375 Q133.7488125 -73.55944749999998 139.00927125 -61.37555874999998 Q144.26973 -49.19166999999999 144.26973 -35.27289249999998 Q144.26973 -21.36008124999998 139.00524000000001 -9.218923749999988 Q133.74075 2.922072500000013 124.71591000000001 11.981903750000015 Q115.69107000000001 21.041896250000008 103.5234675 26.295260000000013 Q91.35570375 31.54862375000002 77.45547 31.54862375000002 Z M77.480625 18.774721250000027 Q99.93291375000001 18.774721250000027 115.6688175 3.015436250000022 Q131.40472125 -12.743848749999984 131.40472125 -35.31062499999999 Q131.40472125 -57.76291374999998 115.69897125000001 -73.49881749999999 Q99.99338250000001 -89.23472124999998 77.35436625 -89.23472124999998 Q54.93723000000001 -89.23472124999998 39.16617375 -73.52897124999998 Q23.39527875 -57.82338249999998 23.39527875 -35.18436624999998 Q23.39527875 -12.767229999999984 39.15456375 3.0038262500000315 Q54.91384875 18.774721250000027 77.480625 18.774721250000027 Z"/></g><g id="Medium-L" transform="matrix(1 0 0 1 1674.31 1556)"><path d="M72.6221625 -2.5559124999999767 H83.1453375 V-41.67999999999998 H72.6221625 V-2.5559124999999767 Z M77.40048375 -53.03409624999999 Q79.90808249999999 -53.03409624999999 81.60394875 -54.68384499999999 Q83.29965375 -56.33375499999998 83.29965375 -58.77249999999998 Q83.29965375 -61.39184499999999 81.60427125 -63.112543749999986 Q79.90905000000001 -64.83340374999997 77.4029025 -64.83340374999997 Q74.8532175 -64.83340374999997 73.1768625 -63.112543749999986 Q71.50034625 -61.39184499999999 71.50034625 -58.79184999999998 Q71.50034625 -56.32891749999999 73.19669625 -54.68142624999999 Q74.892885 -53.03409624999999 77.40048375 -53.03409624999999 Z M77.44821375 30.233952500000015 Q63.87064125 30.233952500000015 51.964102499999996 25.09362500000003 Q40.05756375 19.95313625000003 31.13721375 11.032786250000015 Q22.21686375 2.11243625000003 17.076375000000002 -9.800874999999976 Q11.9360475 -21.714024999999978 11.9360475 -35.30530374999998 Q11.9360475 -48.89658249999998 17.076375000000002 -60.815053749999976 Q22.21686375 -72.73368624999998 31.131086250000003 -81.57550749999999 Q40.04547 -90.41716749999998 51.9615225 -95.57490999999999 Q63.877736250000005 -100.73265249999999 77.47207875000001 -100.73265249999999 Q91.06658250000001 -100.73265249999999 102.98973000000001 -95.5778125 Q114.91287750000001 -90.42313374999998 123.75163500000001 -81.58647249999999 Q132.59055375 -72.74981124999998 137.7465225 -60.80408874999998 Q142.9026525 -48.858204999999984 142.9026525 -35.27289249999998 Q142.9026525 -21.689998749999972 137.74491 -9.784104999999983 Q132.5871675 2.1217887500000074 123.7455075 11.007792500000022 Q114.90368625 19.89379625000001 102.96473625000002 25.063793750000002 Q91.02578625 30.233952500000015 77.44821375 30.233952500000015 Z M77.480625 19.247990000000016 Q100.14318375 19.247990000000016 116.01066750000001 3.3242300000000284 Q131.87798999999998 -12.599529999999973 131.87798999999998 -35.31062499999999 Q131.87798999999998 -57.97318374999999 116.04082125000001 -73.8406675 Q100.2036525 -89.70799 77.38065 -89.70799 Q54.77936625 -89.70799 38.85076875 -73.87082124999998 Q22.92201 -58.03365249999999 22.92201 -35.21064999999999 Q22.92201 -12.60936624999998 38.84577 3.31923125000003 Q54.76953 19.247990000000016 77.480625 19.247990000000016 Z"/></g><g id="Regular-L" transform="matrix(1 0 0 1 1378.56 1556)"><path d="M73.04625 -2.9799999999999756 H82.72125 V-41.67999999999998 H73.04625 V-2.9799999999999756 Z M77.3970975 -53.61249999999998 Q79.6575 -53.61249999999998 81.189375 -55.095999999999975 Q82.72125 -56.57949999999998 82.72125 -58.77249999999998 Q82.72125 -61.102562499999976 81.1922775 -62.678781249999986 Q79.66314375 -64.25499999999998 77.4029025 -64.25499999999998 Q75.1425 -64.25499999999998 73.610625 -62.678781249999986 Q72.07875 -61.102562499999976 72.07875 -58.77249999999998 Q72.07875 -56.57949999999998 73.60772250000001 -55.095999999999975 Q75.13685625 -53.61249999999998 77.3970975 -53.61249999999998 Z M77.4428925 29.27000000000001 Q64.102035 29.27000000000001 52.3685175 24.19062500000001 Q40.635 19.111250000000013 31.846875 10.323125000000005 Q23.05875 1.535000000000025 17.979375 -10.210611249999985 Q12.9 -21.95606124999999 12.9 -35.31062499999999 Q12.9 -48.665188749999984 17.979375 -60.410638749999976 Q23.05875 -72.15624999999999 31.846875 -80.86374999999998 Q40.635 -89.57124999999999 52.38061125 -94.65062499999999 Q64.12606124999999 -99.72999999999999 77.480625 -99.72999999999999 Q90.83518875 -99.72999999999999 102.58063875 -94.65062499999999 Q114.32625 -89.57124999999999 123.03375 -80.86374999999998 Q131.74125 -72.15624999999999 136.820625 -60.38499999999998 Q141.9 -48.61374999999998 141.9 -35.27289249999998 Q141.9 -21.932034999999985 136.820625 -10.19851749999998 Q131.74125 1.535000000000025 123.03375 10.293455000000023 Q114.32625 19.05191000000002 102.555 24.16095500000003 Q90.78375 29.27000000000001 77.4428925 29.27000000000001 Z M77.480625 19.595000000000027 Q100.2975 19.595000000000027 116.26125 3.550625000000025 Q132.225 -12.493749999999977 132.225 -35.31062499999999 Q132.225 -58.12749999999998 116.291565 -74.09124999999997 Q100.35796875 -90.05499999999998 77.4 -90.05499999999998 Q54.66375 -90.05499999999998 38.619375 -74.12156499999998 Q22.575 -58.18796874999998 22.575 -35.22999999999999 Q22.575 -12.493749999999977 38.619375 3.550625000000025 Q54.66375 19.595000000000027 77.480625 19.595000000000027 Z"/></g><g id="Light-L" transform="matrix(1 0 0 1 1082.77 1556)"><path d="M74.10066375 -4.592661249999978 H81.4186725 V-41.67999999999998 H74.10066375 V-4.592661249999978 Z M77.3970975 -51.99983874999998 Q79.254375 -51.99983874999998 80.52260625000001 -53.21985624999998 Q81.79083750000001 -54.439712499999985 81.79083750000001 -56.29150749999998 Q81.79083750000001 -58.21844499999999 80.52550875 -59.500059999999976 Q79.26001875 -60.78167499999998 77.4029025 -60.78167499999998 Q75.483705 -60.78167499999998 74.24643375 -59.500059999999976 Q73.0091625 -58.21844499999999 73.0091625 -56.29150749999998 Q73.0091625 -54.439712499999985 74.27449125000001 -53.21985624999998 Q75.53998125 -51.99983874999998 77.3970975 -51.99983874999998 Z M77.45369625000001 26.044838750000025 Q64.7222025 26.044838750000025 53.605305 21.22023875000002 Q42.48840750000001 16.395638750000018 34.13356125 8.044501250000025 Q25.77855375 -0.3067974999999876 20.9518575 -11.430789999999988 Q16.12516125 -22.554782499999988 16.12516125 -35.29982124999998 Q16.12516125 -47.982939999999985 20.949761249999998 -59.14289124999999 Q25.774361250000002 -70.30284249999997 34.12549875 -78.57706374999998 Q42.4767975 -86.85144624999998 53.60079 -91.67814249999998 Q64.7247825 -96.50483874999998 77.46982125 -96.50483874999998 Q90.15294 -96.50483874999998 101.31289125 -91.68023874999999 Q112.4728425 -86.85563874999998 120.74706375 -78.58512624999999 Q129.02144625 -70.31445249999999 133.8481425 -59.13369999999999 Q138.67483875000002 -47.953108749999984 138.67483875000002 -35.28369624999998 Q138.67483875000002 -22.552202499999993 133.85023875 -11.435304999999985 Q129.02563875 -0.3184074999999922 120.75512625 8.00676875000002 Q112.4844525 16.33194500000002 101.3037 21.188311250000027 Q90.12310875 26.044838750000025 77.45369625000001 26.044838750000025 Z M77.480625 18.726668750000016 Q99.925335 18.726668750000016 115.6410825 2.9614175000000103 Q131.35666875 -12.803833749999981 131.35666875 -35.31062499999999 Q131.35666875 -57.75533499999999 115.67123625 -73.47108249999998 Q99.98580375 -89.18666875 77.4 -89.18666875 Q54.973833750000004 -89.18666875 39.2085825 -73.50123624999998 Q23.44333125 -57.815803749999986 23.44333125 -35.22999999999999 Q23.44333125 -12.803833749999981 39.2085825 2.9614175000000103 Q54.973833750000004 18.726668750000016 77.480625 18.726668750000016 Z"/></g><g id="Thin-L" transform="matrix(1 0 0 1 787.282 1556)"><path d="M75.15491625 -6.204999999999984 H80.1164175 V-41.67999999999998 H75.15491625 V-6.204999999999984 Z M77.3970975 -50.38749999999999 Q78.85125000000001 -50.38749999999999 79.85599875 -51.343873749999986 Q80.8607475 -52.30024749999998 80.8607475 -53.81099874999998 Q80.8607475 -55.33481124999999 79.85874 -56.32182249999998 Q78.85689375000001 -57.30883374999998 77.4029025 -57.30883374999998 Q75.82474875 -57.30883374999998 74.88208125 -56.32182249999998 Q73.93925250000001 -55.33481124999999 73.93925250000001 -53.81099874999998 Q73.93925250000001 -52.30024749999998 74.94126 -51.343873749999986 Q75.94310625 -50.38749999999999 77.3970975 -50.38749999999999 Z M77.4645 22.82000000000002 Q65.34237 22.82000000000002 54.8420925 18.250336250000004 Q44.341653750000006 13.680511250000023 36.41976375 5.766038750000035 Q28.498035 -2.148433749999981 23.9240175 -12.650807499999985 Q19.35 -23.15334249999998 19.35 -35.289017499999986 Q19.35 -47.300691249999986 23.91966375 -57.87514374999998 Q28.48948875 -68.44959624999998 36.40396125 -76.29086124999998 Q44.318433750000004 -84.13196499999998 54.8208075 -88.70598249999998 Q65.3233425 -93.27999999999999 77.4590175 -93.27999999999999 Q89.47069125 -93.27999999999999 100.04514375 -88.71033624999998 Q110.61959625000001 -84.14051124999999 118.46086125 -76.30666374999998 Q126.30196500000001 -68.47281624999998 130.8759825 -57.882722499999986 Q135.45000000000002 -47.29246749999999 135.45000000000002 -35.294499999999985 Q135.45000000000002 -23.172369999999987 130.88033625 -12.672092499999977 Q126.31051125 -2.171653749999976 118.47666375000001 5.720405000000028 Q110.64281625000001 13.612625000000008 100.0527225 18.216312500000015 Q89.4624675 22.82000000000002 77.4645 22.82000000000002 Z M77.480625 17.858498750000024 Q99.55333125 17.858498750000024 115.020915 2.372210000000024 Q130.48849875 -13.113917499999985 130.48849875 -35.31062499999999 Q130.48849875 -57.38333124999998 115.05106875 -72.85091499999999 Q99.6138 -88.31849874999997 77.4 -88.31849874999997 Q55.2839175 -88.31849874999997 39.79779 -72.88106874999998 Q24.311501250000003 -57.44379999999998 24.311501250000003 -35.22999999999999 Q24.311501250000003 -13.113917499999985 39.79779 2.372210000000024 Q55.2839175 17.858498750000024 77.480625 17.858498750000024 Z"/></g><g id="Ultralight-L" transform="matrix(1 0 0 1 491.205 1556)"><path d="M75.78750000000001 -7.172499999999985 H79.33500000000001 V-41.67999999999998 H75.78750000000001 V-7.172499999999985 Z M77.3970975 -49.41999999999999 Q78.609375 -49.41999999999999 79.4559375 -50.218187499999985 Q80.30250000000001 -51.01637499999998 80.30250000000001 -52.32249999999998 Q80.30250000000001 -53.604437499999975 79.45884 -54.41471874999999 Q78.61501875 -55.22499999999998 77.4029025 -55.22499999999998 Q76.029375 -55.22499999999998 75.26343750000001 -54.41471874999999 Q74.4975 -53.604437499999975 74.4975 -52.32249999999998 Q74.4975 -51.01637499999998 75.34116 -50.218187499999985 Q76.18498124999999 -49.41999999999999 77.3970975 -49.41999999999999 Z M77.47095 20.88500000000002 Q65.714535 20.88500000000002 55.584165000000006 16.46820125000002 Q45.45363375 12.051241250000004 37.79167875 4.3989612500000135 Q30.129885 -3.253479999999982 25.7074425 -13.383043749999985 Q21.285 -23.512446249999982 21.285 -35.282567499999985 Q21.285 -46.89143874999999 25.70179875 -57.11452749999998 Q30.118758749999998 -67.33761625 37.77103875 -74.91878499999999 Q45.423480000000005 -82.500115 55.55304375 -86.92255749999998 Q65.68244625000001 -91.34499999999998 77.4525675 -91.34499999999998 Q89.06143875 -91.34499999999998 99.2845275 -86.92820124999999 Q109.50761625 -82.51124124999998 117.088785 -74.93958624999999 Q124.67011500000001 -67.36776999999998 129.0925575 -57.131942499999994 Q133.51500000000001 -46.89611499999998 133.51500000000001 -35.300949999999986 Q133.51500000000001 -23.544534999999982 129.09820125000002 -13.414164999999983 Q124.68124125 -3.283633749999993 117.10958624999999 4.348490000000027 Q109.53777 11.980775000000023 99.30194250000001 16.43288750000002 Q89.066115 20.88500000000002 77.47095 20.88500000000002 Z M77.480625 17.337500000000006 Q99.33 17.337500000000006 114.64875 2.0187500000000114 Q129.9675 -13.299999999999983 129.9675 -35.31062499999999 Q129.9675 -57.15999999999998 114.679065 -72.47874999999999 Q99.39046875 -87.79749999999999 77.4 -87.79749999999999 Q55.47 -87.79749999999999 40.151250000000005 -72.50906499999998 Q24.8325 -57.22046874999998 24.8325 -35.22999999999999 Q24.8325 -13.299999999999983 40.151250000000005 2.0187500000000114 Q55.47 17.337500000000006 77.480625 17.337500000000006 Z"/></g><g id="Bold-M" transform="matrix(1 0 0 1 2281.8 1126)"><path d="M53.125 -8.35499999999999 H66.875 V-40.22999999999999 H53.125 V-8.35499999999999 Z M60.0 -47.72999999999999 Q63.1875 -47.72999999999999 65.34375 -49.88624999999999 Q67.5 -52.04249999999999 67.5 -55.22999999999999 Q67.5 -58.41749999999999 65.34375 -60.57374999999999 Q63.1875 -62.72999999999999 60.0 -62.72999999999999 Q56.8125 -62.72999999999999 54.65625 -60.57374999999999 Q52.5 -58.41749999999999 52.5 -55.22999999999999 Q52.5 -52.04249999999999 54.65625 -49.88624999999999 Q56.8125 -47.72999999999999 60.0 -47.72999999999999 Z M60.0 19.02000000000001 Q48.625 19.02000000000001 38.751625 14.759500000000017 Q28.878125 10.499125000000006 21.5745 3.1955000000000098 Q14.270875 -4.108124999999987 10.0105 -13.981624999999994 Q5.75 -23.85499999999999 5.75 -35.22999999999999 Q5.75 -46.60499999999999 10.0105 -56.47837499999999 Q14.270875 -66.35187499999999 21.5745 -73.65549999999999 Q28.878125 -80.95912499999999 38.751625 -85.21949999999998 Q48.625 -89.47999999999999 60.0 -89.47999999999999 Q71.375 -89.47999999999999 81.248375 -85.21949999999998 Q91.121875 -80.95912499999999 98.4255 -73.65549999999999 Q105.729125 -66.35187499999999 109.9895 -56.47837499999999 Q114.25 -46.60499999999999 114.25 -35.22999999999999 Q114.25 -23.85499999999999 109.9895 -13.981624999999994 Q105.729125 -4.108124999999987 98.4255 3.1955000000000098 Q91.121875 10.499125000000006 81.248375 14.759500000000017 Q71.375 19.02000000000001 60.0 19.02000000000001 Z M60.0 3.2700000000000102 Q76.25 3.2700000000000102 87.375 -7.85499999999999 Q98.5 -18.97999999999999 98.5 -35.22999999999999 Q98.5 -51.47999999999999 87.375 -62.60499999999999 Q76.25 -73.72999999999999 60.0 -73.72999999999999 Q43.75 -73.72999999999999 32.625 -62.60499999999999 Q21.5 -51.47999999999999 21.5 -35.22999999999999 Q21.5 -18.97999999999999 32.625 -7.85499999999999 Q43.75 3.2700000000000102 60.0 3.2700000000000102 Z"/></g><g id="Semibold-M" transform="matrix(1 0 0 1 1985.97 1126)"><path d="M53.940125 -9.170124999999985 H66.059875 V-40.22999999999999 H53.940125 V-9.170124999999985 Z M60.0 -48.81687499999999 Q62.725625 -48.81687499999999 64.569375 -50.66062499999999 Q66.413125 -52.50437499999999 66.413125 -55.22999999999999 Q66.413125 -57.95562499999999 64.569375 -59.79937499999999 Q62.725625 -61.64312499999999 60.0 -61.64312499999999 Q57.274375 -61.64312499999999 55.430625 -59.79937499999999 Q53.586875 -57.95562499999999 53.586875 -55.22999999999999 Q53.586875 -52.50437499999999 55.430625 -50.66062499999999 Q57.274375 -48.81687499999999 60.0 -48.81687499999999 Z M60.0 17.172250000000005 Q49.05975 17.172250000000005 39.51175 13.052250000000015 Q29.963625 8.93225000000001 22.90075 1.869250000000008 Q15.83775 -5.193624999999983 11.71775 -14.741749999999996 Q7.59775 -24.289749999999984 7.59775 -35.22999999999999 Q7.59775 -46.17024999999999 11.71775 -55.71824999999999 Q15.83775 -65.26637499999998 22.90075 -72.32924999999999 Q29.963625 -79.39224999999999 39.51175 -83.51225 Q49.05975 -87.63224999999998 60.0 -87.63224999999998 Q70.94025 -87.63224999999998 80.48825 -83.51225 Q90.036375 -79.39224999999999 97.09925 -72.32924999999999 Q104.16225 -65.26637499999998 108.28225 -55.71824999999999 Q112.40225 -46.17024999999999 112.40225 -35.22999999999999 Q112.40225 -24.289749999999984 108.28225 -14.741749999999996 Q104.16225 -5.193624999999983 97.09925 1.869250000000008 Q90.036375 8.93225000000001 80.48825 13.052250000000015 Q70.94025 17.172250000000005 60.0 17.172250000000005 Z M60.0 3.9221250000000083 Q76.467375 3.9221250000000083 87.80975 -7.420249999999996 Q99.152125 -18.762624999999986 99.152125 -35.22999999999999 Q99.152125 -51.69737499999999 87.80975 -63.03974999999999 Q76.467375 -74.38212499999999 60.0 -74.38212499999999 Q43.532625 -74.38212499999999 32.19025 -63.03974999999999 Q20.847875 -51.69737499999999 20.847875 -35.22999999999999 Q20.847875 -18.762624999999986 32.19025 -7.420249999999996 Q43.532625 3.9221250000000083 60.0 3.9221250000000083 Z"/></g><g id="Medium-M" transform="matrix(1 0 0 1 1689.91 1126)"><path d="M54.551625 -9.781624999999991 H65.448375 V-40.22999999999999 H54.551625 V-9.781624999999991 Z M60.0 -49.63212499999999 Q62.379125 -49.63212499999999 63.9885 -51.24149999999999 Q65.597875 -52.85087499999999 65.597875 -55.22999999999999 Q65.597875 -57.60912499999999 63.9885 -59.21849999999999 Q62.379125 -60.82787499999999 60.0 -60.82787499999999 Q57.620875 -60.82787499999999 56.0115 -59.21849999999999 Q54.402125 -57.60912499999999 54.402125 -55.22999999999999 Q54.402125 -52.85087499999999 56.0115 -51.24149999999999 Q57.620875 -49.63212499999999 60.0 -49.63212499999999 Z M60.0 15.786375000000007 Q49.385875 15.786375000000007 40.081875 11.771625000000014 Q30.777875 7.756875000000008 23.8955 0.8745000000000118 Q17.013125 -6.007874999999984 12.998375 -15.311874999999986 Q8.983625 -24.61587499999999 8.983625 -35.22999999999999 Q8.983625 -45.84412499999999 12.998375 -55.14812499999999 Q17.013125 -64.452125 23.8955 -71.33449999999999 Q30.777875 -78.21687499999999 40.081875 -82.231625 Q49.385875 -86.24637499999999 60.0 -86.24637499999999 Q70.614125 -86.24637499999999 79.918125 -82.231625 Q89.222125 -78.21687499999999 96.1045 -71.33449999999999 Q102.986875 -64.452125 107.001625 -55.14812499999999 Q111.016375 -45.84412499999999 111.016375 -35.22999999999999 Q111.016375 -24.61587499999999 107.001625 -15.311874999999986 Q102.986875 -6.007874999999984 96.1045 0.8745000000000118 Q89.222125 7.756875000000008 79.918125 11.771625000000014 Q70.614125 15.786375000000007 60.0 15.786375000000007 Z M60.0 4.41125000000001 Q76.630375 4.41125000000001 88.135875 -7.094124999999991 Q99.64125 -18.59962499999999 99.64125 -35.22999999999999 Q99.64125 -51.86037499999999 88.135875 -63.36587499999999 Q76.630375 -74.87124999999999 60.0 -74.87124999999999 Q43.369625 -74.87124999999999 31.864125 -63.36587499999999 Q20.35875 -51.86037499999999 20.35875 -35.22999999999999 Q20.35875 -18.59962499999999 31.864125 -7.094124999999991 Q43.369625 4.41125000000001 60.0 4.41125000000001 Z"/></g><g id="Regular-M" transform="matrix(1 0 0 1 1394.06 1126)"><path d="M55.0 -10.22999999999999 H65.0 V-40.22999999999999 H55.0 V-10.22999999999999 Z M60.0 -50.22999999999999 Q62.125 -50.22999999999999 63.5625 -51.66749999999999 Q65.0 -53.10499999999999 65.0 -55.22999999999999 Q65.0 -57.35499999999999 63.5625 -58.79249999999999 Q62.125 -60.22999999999999 60.0 -60.22999999999999 Q57.875 -60.22999999999999 56.4375 -58.79249999999999 Q55.0 -57.35499999999999 55.0 -55.22999999999999 Q55.0 -53.10499999999999 56.4375 -51.66749999999999 Q57.875 -50.22999999999999 60.0 -50.22999999999999 Z M60.0 14.77000000000001 Q49.625 14.77000000000001 40.5 10.83250000000001 Q31.375 6.89500000000001 24.625 0.14500000000001023 Q17.875 -6.60499999999999 13.9375 -15.72999999999999 Q10.0 -24.85499999999999 10.0 -35.22999999999999 Q10.0 -45.60499999999999 13.9375 -54.72999999999999 Q17.875 -63.85499999999999 24.625 -70.60499999999999 Q31.375 -77.35499999999999 40.5 -81.29249999999999 Q49.625 -85.22999999999999 60.0 -85.22999999999999 Q70.375 -85.22999999999999 79.5 -81.29249999999999 Q88.625 -77.35499999999999 95.375 -70.60499999999999 Q102.125 -63.85499999999999 106.0625 -54.72999999999999 Q110.0 -45.60499999999999 110.0 -35.22999999999999 Q110.0 -24.85499999999999 106.0625 -15.72999999999999 Q102.125 -6.60499999999999 95.375 0.14500000000001023 Q88.625 6.89500000000001 79.5 10.83250000000001 Q70.375 14.77000000000001 60.0 14.77000000000001 Z M60.0 4.77000000000001 Q76.75 4.77000000000001 88.375 -6.85499999999999 Q100.0 -18.47999999999999 100.0 -35.22999999999999 Q100.0 -51.97999999999999 88.375 -63.60499999999999 Q76.75 -75.22999999999999 60.0 -75.22999999999999 Q43.25 -75.22999999999999 31.625 -63.60499999999999 Q20.0 -51.97999999999999 20.0 -35.22999999999999 Q20.0 -18.47999999999999 31.625 -6.85499999999999 Q43.25 4.77000000000001 60.0 4.77000000000001 Z"/></g><g id="Light-M" transform="matrix(1 0 0 1 1098.18 1126)"><path d="M56.250125 -11.480124999999987 H63.749875 V-40.22999999999999 H56.250125 V-11.480124999999987 Z M60.0 -48.78762499999999 Q61.716375 -48.78762499999999 62.877375 -49.94862499999999 Q64.038375 -51.10962499999999 64.038375 -52.825999999999986 Q64.038375 -54.54224999999999 62.877375 -55.70337499999999 Q61.716375 -56.86437499999999 60.0 -56.86437499999999 Q58.283625 -56.86437499999999 57.122625 -55.70337499999999 Q55.961625 -54.54224999999999 55.961625 -52.825999999999986 Q55.961625 -51.10962499999999 57.122625 -49.94862499999999 Q58.283625 -48.78762499999999 60.0 -48.78762499999999 Z M60.008375 12.269875000000013 Q50.153875 12.269875000000013 41.482875 8.529875000000004 Q32.81175 4.789875000000009 26.397625 -1.6213749999999862 Q19.983375 -8.032749999999993 16.24175 -16.69999999999999 Q12.500125 -25.367124999999987 12.500125 -35.22162499999999 Q12.500125 -45.07612499999999 16.240125 -53.74712499999999 Q19.980125 -62.418249999999986 26.391375 -68.83237499999998 Q32.80275 -75.246625 41.47 -78.98825 Q50.137125 -82.72987499999999 59.991625 -82.72987499999999 Q69.846125 -82.72987499999999 78.517125 -78.98987499999998 Q87.18825 -75.24987499999999 93.602375 -68.838625 Q100.016625 -62.42724999999999 103.75825 -53.75999999999999 Q107.499875 -45.09287499999999 107.499875 -35.23837499999999 Q107.499875 -25.38387499999999 103.759875 -16.712874999999997 Q100.019875 -8.041749999999993 93.608625 -1.6276249999999948 Q87.19725 4.786625000000015 78.53 8.528250000000014 Q69.862875 12.269875000000013 60.008375 12.269875000000013 Z M60.0 4.77000000000001 Q76.75 4.77000000000001 88.375 -6.85499999999999 Q100.0 -18.47999999999999 100.0 -35.22999999999999 Q100.0 -51.97999999999999 88.375 -63.60499999999999 Q76.75 -75.22999999999999 60.0 -75.22999999999999 Q43.25 -75.22999999999999 31.625 -63.60499999999999 Q20.0 -51.97999999999999 20.0 -35.22999999999999 Q20.0 -18.47999999999999 31.625 -6.85499999999999 Q43.25 4.77000000000001 60.0 4.77000000000001 Z"/></g><g id="Thin-M" transform="matrix(1 0 0 1 802.565 1126)"><path d="M57.5 -12.72999999999999 H62.5 V-40.22999999999999 H57.5 V-12.72999999999999 Z M60.0 -47.34537499999999 Q61.30775 -47.34537499999999 62.192375 -48.22999999999999 Q63.076875 -49.11462499999999 63.076875 -50.42237499999999 Q63.076875 -51.72999999999999 62.192375 -52.61462499999999 Q61.30775 -53.49924999999999 60.0 -53.49924999999999 Q58.69225 -53.49924999999999 57.807625 -52.61462499999999 Q56.923125 -51.72999999999999 56.923125 -50.42237499999999 Q56.923125 -49.11462499999999 57.807625 -48.22999999999999 Q58.69225 -47.34537499999999 60.0 -47.34537499999999 Z M60.01675 9.77000000000001 Q50.682625 9.77000000000001 42.4655 6.227625000000003 Q34.248375 2.6851250000000135 28.169875 -3.3876249999999857 Q22.0915 -9.460374999999985 18.54575 -17.669749999999993 Q15.0 -25.879249999999985 15.0 -35.21324999999999 Q15.0 -44.54737499999999 18.542375 -52.76449999999999 Q22.084875 -60.98162499999999 28.157625 -67.060125 Q34.230375 -73.1385 42.43975 -76.68424999999999 Q50.64925 -80.22999999999999 59.98325 -80.22999999999999 Q69.317375 -80.22999999999999 77.5345 -76.687625 Q85.751625 -73.145125 91.830125 -67.072375 Q97.9085 -60.99962499999999 101.45425 -52.79024999999999 Q105.0 -44.58074999999999 105.0 -35.24674999999999 Q105.0 -25.91262499999999 101.457625 -17.695499999999996 Q97.915125 -9.478374999999986 91.842375 -3.3998749999999944 Q85.769625 2.678500000000014 77.56025 6.224250000000012 Q69.35075 9.77000000000001 60.01675 9.77000000000001 Z M60.0 4.77000000000001 Q76.75 4.77000000000001 88.375 -6.85499999999999 Q100.0 -18.47999999999999 100.0 -35.22999999999999 Q100.0 -51.97999999999999 88.375 -63.60499999999999 Q76.75 -75.22999999999999 60.0 -75.22999999999999 Q43.25 -75.22999999999999 31.625 -63.60499999999999 Q20.0 -51.97999999999999 20.0 -35.22999999999999 Q20.0 -18.47999999999999 31.625 -6.85499999999999 Q43.25 4.77000000000001 60.0 4.77000000000001 Z"/></g><g id="Ultralight-M" transform="matrix(1 0 0 1 506.415 1126)"><path d="M58.25 -13.47999999999999 H61.75 V-40.22999999999999 H58.25 V-13.47999999999999 Z M60.0 -46.47999999999999 Q61.0625 -46.47999999999999 61.78125 -47.19874999999999 Q62.5 -47.91749999999999 62.5 -48.97999999999999 Q62.5 -50.04249999999999 61.78125 -50.76124999999999 Q61.0625 -51.47999999999999 60.0 -51.47999999999999 Q58.9375 -51.47999999999999 58.21875 -50.76124999999999 Q57.5 -50.04249999999999 57.5 -48.97999999999999 Q57.5 -47.91749999999999 58.21875 -47.19874999999999 Q58.9375 -46.47999999999999 60.0 -46.47999999999999 Z M60.02175 8.27000000000001 Q51.0 8.27000000000001 43.05525 4.846125000000015 Q35.110375 1.4221250000000083 29.233375 -4.447374999999994 Q23.3565 -10.316999999999993 19.92825 -18.251749999999987 Q16.5 -26.186499999999995 16.5 -35.20824999999999 Q16.5 -44.22999999999999 19.923875 -52.17474999999999 Q23.347875 -60.11962499999999 29.217375 -65.9965 Q35.087 -71.87349999999999 43.02175 -75.30175 Q50.9565 -78.72999999999999 59.97825 -78.72999999999999 Q69.0 -78.72999999999999 76.94475 -75.306125 Q84.889625 -71.88212499999999 90.7665 -66.01262499999999 Q96.6435 -60.14299999999999 100.07175 -52.20824999999999 Q103.5 -44.27349999999999 103.5 -35.25174999999999 Q103.5 -26.22999999999999 100.076125 -18.28524999999999 Q96.652125 -10.340374999999995 90.782625 -4.463374999999985 Q84.913 1.4135000000000133 76.97825 4.841750000000005 Q69.0435 8.27000000000001 60.02175 8.27000000000001 Z M60.0 4.77000000000001 Q76.75 4.77000000000001 88.375 -6.85499999999999 Q100.0 -18.47999999999999 100.0 -35.22999999999999 Q100.0 -51.97999999999999 88.375 -63.60499999999999 Q76.75 -75.22999999999999 60.0 -75.22999999999999 Q43.25 -75.22999999999999 31.625 -63.60499999999999 Q20.0 -51.97999999999999 20.0 -35.22999999999999 Q20.0 -18.47999999999999 31.625 -6.85499999999999 Q43.25 4.77000000000001 60.0 4.77000000000001 Z"/></g><g id="Bold-S" transform="matrix(1 0 0 1 2294.23 696)"><path d="M42.310125 -14.814624999999992 H52.369875 V-39.96399999999999 H42.310125 V-14.814624999999992 Z M47.319190125 -45.092499999999994 Q49.6576875 -45.092499999999994 51.260343750000004 -46.67434637499999 Q52.863 -48.256291374999996 52.863 -50.59469012499999 Q52.863 -52.933187499999995 51.281153625 -54.53584375 Q49.699208625000004 -56.13849999999999 47.360809875 -56.13849999999999 Q45.022312500000005 -56.13849999999999 43.41965625 -54.556653624999996 Q41.817 -52.97470862499999 41.817 -50.636309874999995 Q41.817 -48.29781249999999 43.398846375 -46.69515625 Q44.980791375 -45.092499999999994 47.319190125 -45.092499999999994 Z M47.3672205 5.995250000000013 Q38.759625 5.995250000000013 31.265407125 2.7816530000000057 Q23.771090625000003 -0.43184537499999465 18.156468 -6.04646799999999 Q12.541845375000001 -11.661090624999986 9.328347 -19.151264874999995 Q6.11475 -26.64143912499999 6.11475 -35.27517024999999 Q6.11475 -43.90899999999999 9.328347 -51.353905375 Q12.541845375000001 -58.798909375 18.156468 -64.413532 Q23.771090625000003 -70.028154625 31.261264875000002 -73.241653 Q38.751439125 -76.45524999999999 47.38517025 -76.45524999999999 Q56.019000000000005 -76.45524999999999 63.463905374999996 -73.241653 Q70.90890937500001 -70.028154625 76.523532 -64.413532 Q82.138154625 -58.798909375 85.35165300000001 -51.331813374999996 Q88.56525 -43.86471737499999 88.56525 -35.25722049999999 Q88.56525 -26.649625 85.35165300000001 -19.155407124999996 Q82.138154625 -11.661090624999986 76.523532 -6.04646799999999 Q70.90890937500001 -0.43184537499999465 63.44181337500001 2.7816530000000057 Q55.974717375000004 5.995250000000013 47.3672205 5.995250000000013 Z M47.34 -5.642499999999998 Q59.76675 -5.642499999999998 68.347125 -14.222874999999988 Q76.92750000000001 -22.80324999999999 76.92750000000001 -35.23 Q76.92750000000001 -47.656749999999995 68.347125 -56.23712499999999 Q59.76675 -64.8175 47.34 -64.8175 Q34.913250000000005 -64.8175 26.332875 -56.23712499999999 Q17.7525 -47.656749999999995 17.7525 -35.23 Q17.7525 -22.80324999999999 26.332875 -14.222874999999988 Q34.913250000000005 -5.642499999999998 47.34 -5.642499999999998 Z"/></g><g id="Semibold-S" transform="matrix(1 0 0 1 1998.1 696)"><path d="M42.953258625000004 -15.457758624999983 H51.726741375 V-39.96399999999999 H42.953258625000004 V-15.457758624999983 Z M47.319190125 -45.950044375 Q49.293268125000004 -45.950044375 50.649361875 -47.285426875 Q52.005455624999996 -48.62071074999999 52.005455624999996 -50.59469012499999 Q52.005455624999996 -52.568768125 50.670073125 -53.924861875 Q49.33478925 -55.280955625 47.360809875 -55.280955625 Q45.386731875 -55.280955625 44.030638125 -53.945573124999996 Q42.674544375 -52.610289249999994 42.674544375 -50.636309874999995 Q42.674544375 -48.662231874999996 44.009926875000005 -47.306138125 Q45.34521075 -45.950044375 47.319190125 -45.950044375 Z M47.3672205 4.537375249999997 Q39.10264275 4.537375249999997 31.86514575 1.4346327500000058 Q24.627550125000003 -1.6681097499999993 19.20287925 -7.092879249999996 Q13.77810975 -12.517550124999985 10.67536725 -19.751003499999996 Q7.57262475 -26.984456874999992 7.57262475 -35.27517024999999 Q7.57262475 -43.56598224999999 10.67536725 -50.754166749999996 Q13.77810975 -57.942449874999994 19.20287925 -63.36712075 Q24.627550125000003 -68.79189025 31.861003500000002 -71.89463275 Q39.094456875 -74.99737524999999 47.38517025 -74.99737524999999 Q55.675982250000004 -74.99737524999999 62.864166749999995 -71.89463275 Q70.05244987500001 -68.79189025 75.47712075 -63.36712075 Q80.90189025000001 -57.942449874999994 84.00463275000001 -50.732074749999995 Q87.10737525 -43.52169962499999 87.10737525 -35.25722049999999 Q87.10737525 -26.992642749999987 84.00463275000001 -19.755145749999997 Q80.90189025000001 -12.517550124999985 75.47712075 -7.092879249999996 Q70.05244987500001 -1.6681097499999993 62.84207475 1.4346327500000058 Q55.631699625 4.537375249999997 47.3672205 4.537375249999997 Z M47.34 -5.127973374999996 Q59.938258875 -5.127973374999996 68.69014274999999 -13.87985725 Q77.442026625 -22.63174112499999 77.442026625 -35.23 Q77.442026625 -47.82825887499999 68.69014274999999 -56.58014274999999 Q59.938258875 -65.332026625 47.34 -65.332026625 Q34.741741125000004 -65.332026625 25.98985725 -56.58014274999999 Q17.237973375 -47.82825887499999 17.237973375 -35.23 Q17.237973375 -22.63174112499999 25.98985725 -13.87985725 Q34.741741125000004 -5.127973374999996 47.34 -5.127973374999996 Z"/></g><g id="Medium-S" transform="matrix(1 0 0 1 1701.85 696)"><path d="M43.435732125 -15.940232124999994 H51.244267875 V-39.96399999999999 H43.435732125 V-15.940232124999994 Z M47.319190125 -46.593276624999994 Q49.019879625 -46.593276624999994 50.1910515 -47.743737249999995 Q51.362223375000006 -48.89409925 51.362223375000006 -50.59469012499999 Q51.362223375000006 -52.295379624999995 50.21176275 -53.466551499999994 Q49.061400750000004 -54.63772337499999 47.360809875 -54.63772337499999 Q45.660120375 -54.63772337499999 44.4889485 -53.48726274999999 Q43.317776625 -52.33690075 43.317776625 -50.636309874999995 Q43.317776625 -48.93562037499999 44.46823725 -47.76444849999999 Q45.61859925 -46.593276624999994 47.319190125 -46.593276624999994 Z M47.3672205 3.443919875000006 Q39.359955375 3.443919875000006 32.314974375 0.4242196250000063 Q25.269993375000002 -2.5954806249999933 19.987737 -7.877736999999996 Q14.705480625 -13.159993374999985 11.685780375 -20.200832125000005 Q8.666080125 -27.24176949999999 8.666080125 -35.27517024999999 Q8.666080125 -43.30866962499999 11.685780375 -50.304338125 Q14.705480625 -57.300006624999995 19.987737 -62.582263 Q25.269993375000002 -67.864519375 32.310832125000005 -70.884219625 Q39.3517695 -73.903919875 47.38517025 -73.903919875 Q55.41866962500001 -73.903919875 62.41433812500001 -70.884219625 Q69.41000662500001 -67.864519375 74.69226300000001 -62.582263 Q79.974519375 -57.300006624999995 82.99421962500001 -50.282147499999994 Q86.013919875 -43.26438699999999 86.013919875 -35.25722049999999 Q86.013919875 -27.249955375 82.99421962500001 -20.204974374999992 Q79.974519375 -13.159993374999985 74.69226300000001 -7.877736999999996 Q69.41000662500001 -2.5954806249999933 62.3921475 0.4242196250000063 Q55.374387000000006 3.443919875000006 47.3672205 3.443919875000006 Z M47.34 -4.742053749999997 Q60.066865875000005 -4.742053749999997 68.947455375 -13.622544624999989 Q77.82794625 -22.50313412499999 77.82794625 -35.23 Q77.82794625 -47.956865875 68.947455375 -56.837455375 Q60.066865875000005 -65.71794625 47.34 -65.71794625 Q34.613134125 -65.71794625 25.732544625000003 -56.837455375 Q16.85205375 -47.956865875 16.85205375 -35.23 Q16.85205375 -22.50313412499999 25.732544625000003 -13.622544624999989 Q34.613134125 -4.742053749999997 47.34 -4.742053749999997 Z"/></g><g id="Regular-S" transform="matrix(1 0 0 1 1405.73 696)"><path d="M43.789500000000004 -16.293999999999997 H50.8905 V-39.96399999999999 H43.789500000000004 V-16.293999999999997 Z M47.319190125 -47.065 Q48.819375 -47.065 49.854937500000005 -48.07975262499999 Q50.8905 -49.094603875 50.8905 -50.59469012499999 Q50.8905 -52.094874999999995 49.875747375 -53.13043749999999 Q48.860896125000004 -54.166 47.360809875 -54.166 Q45.860625 -54.166 44.8250625 -53.151247375 Q43.789500000000004 -52.136396125 43.789500000000004 -50.636309874999995 Q43.789500000000004 -49.13612499999999 44.804252625000004 -48.100562499999995 Q45.819103875 -47.065 47.319190125 -47.065 Z M47.3672205 2.64200000000001 Q39.548625 2.64200000000001 32.644875 -0.316749999999999 Q25.741125 -3.275499999999994 20.563312500000002 -8.453312499999996 Q15.3855 -13.631124999999997 12.42675 -20.530732749999984 Q9.468 -27.430439124999992 9.468 -35.27517024999999 Q9.468 -43.12 12.42675 -49.97443749999999 Q15.3855 -56.828875 20.563312500000002 -62.0066875 Q25.741125 -67.1845 32.640732750000005 -70.14325 Q39.540439125 -73.102 47.38517025 -73.102 Q55.230000000000004 -73.102 62.0844375 -70.14325 Q68.93887500000001 -67.1845 74.1166875 -62.0066875 Q79.2945 -56.828875 82.25325000000001 -49.95234549999999 Q85.212 -43.075717374999996 85.212 -35.25722049999999 Q85.212 -27.438624999999988 82.25325000000001 -20.534875 Q79.2945 -13.631124999999997 74.1166875 -8.453312499999996 Q68.93887500000001 -3.275499999999994 62.0623455 -0.316749999999999 Q55.18571737500001 2.64200000000001 47.3672205 2.64200000000001 Z M47.34 -4.458999999999989 Q60.16125 -4.458999999999989 69.136125 -13.433874999999986 Q78.111 -22.408749999999998 78.111 -35.23 Q78.111 -48.051249999999996 69.136125 -57.02612499999999 Q60.16125 -66.00099999999999 47.34 -66.00099999999999 Q34.518750000000004 -66.00099999999999 25.543875 -57.02612499999999 Q16.569 -48.051249999999996 16.569 -35.23 Q16.569 -22.408749999999998 25.543875 -13.433874999999986 Q34.518750000000004 -4.458999999999989 47.34 -4.458999999999989 Z"/></g><g id="Light-S" transform="matrix(1 0 0 1 1109.75 696)"><path d="M44.775848625 -17.280348624999988 H49.904151375000005 V-39.96399999999999 H44.775848625 V-17.280348624999988 Z M47.319190125 -45.92696612499999 Q48.496969875000005 -45.92696612499999 49.314373875 -46.72356025 Q50.131777875000004 -47.520253 50.131777875000004 -48.697934124999996 Q50.131777875000004 -49.875615249999996 49.335085125 -50.69311787499999 Q48.538491 -51.510521874999995 47.360809875 -51.510521874999995 Q46.183030125 -51.510521874999995 45.365626125 -50.713829125 Q44.548222125 -49.91713637499999 44.548222125 -48.73945525 Q44.548222125 -47.56177412499999 45.344914875 -46.744370124999996 Q46.141509000000006 -45.92696612499999 47.319190125 -45.92696612499999 Z M47.373828375 0.6694013750000067 Q39.965907375 0.6694013750000067 33.420363375 -2.1335211250000015 Q26.874720750000005 -4.9364436249999954 21.961913625 -9.846982374999996 Q17.049007875 -14.75761974999999 14.24480325 -21.29606274999999 Q11.440598625000002 -27.83450574999999 11.440598625000002 -35.26856237499999 Q11.440598625000002 -42.702717625 14.243521125 -49.19894912499999 Q17.046443625000002 -55.69527924999999 21.956982375000003 -60.608086375 Q26.867619750000003 -65.52099212499999 33.406062750000004 -68.32519675 Q39.944505750000005 -71.129401375 47.378562375 -71.129401375 Q54.812717625000005 -71.129401375 61.308949125 -68.32647887499999 Q67.80527925 -65.523556375 72.718086375 -60.613017625 Q77.630992125 -55.70238024999999 80.43519675 -49.187015499999994 Q83.239401375 -42.67165075 83.239401375 -35.26382837499999 Q83.239401375 -27.855907374999987 80.43647887499999 -21.310363374999994 Q77.633556375 -14.764720749999995 72.72301762500001 -9.851913624999995 Q67.81238025 -4.939007874999987 61.2970155 -2.1348032499999903 Q54.78165075 0.6694013750000067 47.373828375 0.6694013750000067 Z M47.34 -4.458999999999989 Q60.16125 -4.458999999999989 69.136125 -13.433874999999986 Q78.111 -22.408749999999998 78.111 -35.23 Q78.111 -48.051249999999996 69.136125 -57.02612499999999 Q60.16125 -66.00099999999999 47.34 -66.00099999999999 Q34.518750000000004 -66.00099999999999 25.543875 -57.02612499999999 Q16.569 -48.051249999999996 16.569 -35.23 Q16.569 -22.408749999999998 25.543875 -13.433874999999986 Q34.518750000000004 -4.458999999999989 47.34 -4.458999999999989 Z"/></g><g id="Thin-S" transform="matrix(1 0 0 1 814.015 696)"><path d="M45.762 -18.266499999999994 H48.918 V-39.96399999999999 H45.762 V-18.266499999999994 Z M47.319190125 -44.789030874999995 Q48.17456475 -44.789030874999995 48.773908875000004 -45.36766375 Q49.373154375000006 -45.946197999999995 49.373154375000006 -46.80147399999999 Q49.373154375000006 -47.656749999999995 48.794620125 -48.256094125 Q48.216085875 -48.85543824999999 47.360809875 -48.85543824999999 Q46.505435250000005 -48.85543824999999 45.906091125 -48.276903999999995 Q45.306845625 -47.69827112499999 45.306845625 -46.842995124999995 Q45.306845625 -45.98771912499999 45.885379875 -45.388374999999996 Q46.463914125 -44.789030874999995 47.319190125 -44.789030874999995 Z M47.380337625 -1.3029999999999973 Q40.383091125 -1.3029999999999973 34.1956545 -3.949996374999998 Q28.008217875000003 -6.597091374999991 23.360218875 -11.24055362499999 Q18.712318500000002 -15.884015874999989 16.062659250000003 -22.06129412499999 Q13.413 -28.23857237499999 13.413 -35.262053125 Q13.413 -42.28553387499999 16.059996375 -48.423657999999996 Q18.707091375 -54.56178212499999 23.350553625 -59.209781125 Q27.994015875000002 -63.85768149999999 34.171294124999996 -66.50734075 Q40.348572375 -69.157 47.372053125 -69.157 Q54.395533875 -69.157 60.533657999999996 -66.510003625 Q66.67178212500001 -63.862908625 71.319781125 -59.21944637499999 Q75.96768150000001 -54.57598412499999 78.61734075000001 -48.421784124999995 Q81.26700000000001 -42.267584125 81.26700000000001 -35.270337624999996 Q81.26700000000001 -28.273091124999993 78.620003625 -22.085654500000004 Q75.972908625 -15.898217874999986 71.329446375 -11.250218875000002 Q66.685984125 -6.6023184999999955 60.531784124999994 -3.9526592499999964 Q54.377584125 -1.3029999999999973 47.380337625 -1.3029999999999973 Z M47.34 -4.458999999999989 Q60.16125 -4.458999999999989 69.136125 -13.433874999999986 Q78.111 -22.408749999999998 78.111 -35.23 Q78.111 -48.051249999999996 69.136125 -57.02612499999999 Q60.16125 -66.00099999999999 47.34 -66.00099999999999 Q34.518750000000004 -66.00099999999999 25.543875 -57.02612499999999 Q16.569 -48.051249999999996 16.569 -35.23 Q16.569 -22.408749999999998 25.543875 -13.433874999999986 Q34.518750000000004 -4.458999999999989 47.34 -4.458999999999989 Z"/></g><g id="Ultralight-S" transform="matrix(1 0 0 1 517.792 696)"><path d="M46.353750000000005 -18.858249999999998 H48.32625 V-39.96399999999999 H46.353750000000005 V-18.858249999999998 Z M47.319190125 -44.106249999999996 Q47.9810625 -44.106249999999996 48.44953125 -44.55390887499999 Q48.918 -45.00166637499999 48.918 -45.663440124999994 Q48.918 -46.325312499999995 48.470341125000004 -46.793781249999995 Q48.022583625 -47.262249999999995 47.360809875 -47.262249999999995 Q46.6989375 -47.262249999999995 46.23046875 -46.81459112499999 Q45.762 -46.36683362499999 45.762 -45.705059874999996 Q45.762 -45.043187499999995 46.209658875 -44.574718749999995 Q46.657416375000004 -44.106249999999996 47.319190125 -44.106249999999996 Z M47.384381250000004 -2.4864999999999924 Q40.633500000000005 -2.4864999999999924 34.66096725 -5.039999874999992 Q28.688335875 -7.593598374999999 24.199320375 -12.076696374999997 Q19.7104035 -16.559893000000002 17.15345175 -22.520393499999983 Q14.5965 -28.480992624999992 14.5965 -35.25800949999999 Q14.5965 -42.035124999999994 17.149999875 -47.958345249999994 Q19.703598375 -53.881664125 24.186696375 -58.370580999999994 Q28.669893000000005 -62.859596499999995 34.630393500000004 -65.41654825 Q40.590992625000005 -67.9735 47.3680095 -67.9735 Q54.145125 -67.9735 60.06834525 -65.420000125 Q65.991664125 -62.866401624999995 70.480581 -58.383303624999996 Q74.96959650000001 -53.90010699999999 77.52654825 -47.962684749999994 Q80.0835 -42.025163875 80.0835 -35.27438125 Q80.0835 -28.52349999999999 77.530000125 -22.55096725 Q74.97640162500001 -16.578335874999993 70.493303625 -12.089320374999986 Q66.010107 -7.6004034999999845 60.07268475 -5.043451750000003 Q54.135163875 -2.4864999999999924 47.384381250000004 -2.4864999999999924 Z M47.34 -4.458999999999989 Q60.16125 -4.458999999999989 69.136125 -13.433874999999986 Q78.111 -22.408749999999998 78.111 -35.23 Q78.111 -48.051249999999996 69.136125 -57.02612499999999 Q60.16125 -66.00099999999999 47.34 -66.00099999999999 Q34.518750000000004 -66.00099999999999 25.543875 -57.02612499999999 Q16.569 -48.051249999999996 16.569 -35.23 Q16.569 -22.408749999999998 25.543875 -13.433874999999986 Q34.518750000000004 -4.458999999999989 47.34 -4.458999999999989 Z"/></g></g></svg>