<svg xmlns="http://www.w3.org/2000/svg" version="1.1" width="3300" height="2000"><g id="Notes"><style>
    text {
      font-family: monospace;
      text-anchor: middle;
    }
    text.emphasis {
      font-weight:bold;
    }
    text.lanchor {
      text-anchor: start;
    }
  </style><rect height="2200" id="artboard" fill="white" width="3300" x="0" y="0"/><line id="" style="fill:none;stroke:black;stroke-width:0.5;" x1="263" x2="3036" y1="292" y2="292"/><text class="lanchor emphasis" transform="matrix(1 0 0 1 263 322)">Weight/Scale Variations</text><text transform="matrix(1 0 0 1 559.711 322)">Ultralight</text><text transform="matrix(1 0 0 1 856.422 322)">Thin</text><text transform="matrix(1 0 0 1 1153.13 322)">Light</text><text transform="matrix(1 0 0 1 1449.84 322)">Regular</text><text transform="matrix(1 0 0 1 1746.56 322)">Medium</text><text transform="matrix(1 0 0 1 2043.27 322)">Semibold</text><text transform="matrix(1 0 0 1 2339.98 322)">Bold</text><text transform="matrix(1 0 0 1 2636.69 322)">Heavy</text><text transform="matrix(1 0 0 1 2933.4 322)">Black</text><text id="template-version" style="text-anchor: end;" transform="matrix(1 0 0 1 3036 1933)">Template v.1.0</text><text class="lanchor" transform="matrix(1 0 0 1 263 726)">Small</text><text class="lanchor" transform="matrix(1 0 0 1 263 1156)">Medium</text><text class="lanchor" transform="matrix(1 0 0 1 263 1586)">Large</text></g><g id="Guides"><g id="H-reference" style="fill:#27AAE1;stroke:none;" transform="matrix(1 0 0 1 339 696)"><path d="M 54.9316 0 L 57.666 0 L 30.5664 -70.459 L 28.0762 -70.459 L 0.976562 0 L 3.66211 0 L 12.9395 -24.4629 L 45.7031 -24.4629 Z M 29.1992 -67.0898 L 29.4434 -67.0898 L 44.8242 -26.709 L 13.8184 -26.709 Z"/></g><line id="Baseline-S" style="fill:none;stroke:#27AAE1;opacity:1;stroke-width:0.577;" x1="263" x2="3036" y1="696" y2="696"/><line id="Capline-S" style="fill:none;stroke:#27AAE1;opacity:1;stroke-width:0.577;" x1="263" x2="3036" y1="625.541" y2="625.541"/><g id="H-reference" style="fill:#27AAE1;stroke:none;" transform="matrix(1 0 0 1 339 1126)"><path d="M 54.9316 0 L 57.666 0 L 30.5664 -70.459 L 28.0762 -70.459 L 0.976562 0 L 3.66211 0 L 12.9395 -24.4629 L 45.7031 -24.4629 Z M 29.1992 -67.0898 L 29.4434 -67.0898 L 44.8242 -26.709 L 13.8184 -26.709 Z"/></g><line id="Baseline-M" style="fill:none;stroke:#27AAE1;opacity:1;stroke-width:0.577;" x1="263" x2="3036" y1="1126" y2="1126"/><line id="Capline-M" style="fill:none;stroke:#27AAE1;opacity:1;stroke-width:0.577;" x1="263" x2="3036" y1="1055.54" y2="1055.54"/><g id="H-reference" style="fill:#27AAE1;stroke:none;" transform="matrix(1 0 0 1 339 1556)"><path d="M 54.9316 0 L 57.666 0 L 30.5664 -70.459 L 28.0762 -70.459 L 0.976562 0 L 3.66211 0 L 12.9395 -24.4629 L 45.7031 -24.4629 Z M 29.1992 -67.0898 L 29.4434 -67.0898 L 44.8242 -26.709 L 13.8184 -26.709 Z"/></g><line id="Baseline-L" style="fill:none;stroke:#27AAE1;opacity:1;stroke-width:0.577;" x1="263" x2="3036" y1="1556" y2="1556"/><line id="Capline-L" style="fill:none;stroke:#27AAE1;opacity:1;stroke-width:0.577;" x1="263" x2="3036" y1="1485.54" y2="1485.54"/><rect height="119.336" id="left-margin" style="fill:darkred;stroke:none;opacity:0.4;" width="12.4512" x="1394.06" y="1030.79"/><rect height="119.336" id="right-margin" style="fill:darkgreen;stroke:none;opacity:0.4;" width="12.4512" x="1502.5112" y="1030.79"/><rect x="1406.5112" y="1045" width="96" height="96" fill="none" stroke="blue" stroke-dasharray="5"/><rect x="1394.06" y="1030.79" width="120.9024" height="119.336" fill="none" stroke="blue"/></g><g id="Symbols"><g id="Bold-L" transform="matrix(1 0 0 1 2266 1556)"><path d="M14.35125 5.40500000000003 V-9.913749999999979 H108.52125000000001 V5.40500000000003 H14.35125 Z M14.35125 -27.651249999999976 V-42.80874999999999 H108.52125000000001 V-27.651249999999976 H14.35125 Z M14.35125 -60.546249999999986 V-75.86499999999998 H108.52125000000001 V-60.546249999999986 H14.35125 Z M132.82759125 5.40500000000003 Q129.645 5.40500000000003 127.468125 3.1999062500000264 Q125.29125 0.9946512500000324 125.29125 -2.2825937499999753 Q125.29125 -5.559999999999988 127.49634375 -7.7368749999999835 Q129.70159875000002 -9.913749999999979 132.88419 -9.913749999999979 Q136.06678125000002 -9.913749999999979 138.33831 -7.70865624999999 Q140.61 -5.503401249999982 140.61 -2.2261562499999883 Q140.61 1.0512500000000102 138.31009125 3.2281250000000057 Q136.0101825 5.40500000000003 132.82759125 5.40500000000003 Z M132.82759125 -27.651249999999976 Q129.645 -27.651249999999976 127.468125 -29.85634374999998 Q125.29125 -32.06159874999999 125.29125 -35.25821874999997 Q125.29125 -38.454999999999984 127.49634375 -40.63187499999998 Q129.70159875000002 -42.80874999999999 132.88419 -42.80874999999999 Q136.06678125000002 -42.80874999999999 138.33831 -40.603656249999986 Q140.61 -38.39840124999998 140.61 -35.201781249999996 Q140.61 -32.00499999999998 138.31009125 -29.828124999999986 Q136.0101825 -27.651249999999976 132.82759125 -27.651249999999976 Z M132.82759125 -60.546249999999986 Q129.645 -60.546249999999986 127.468125 -62.75134374999999 Q125.29125 -64.95659874999998 125.29125 -68.23384374999998 Q125.29125 -71.51124999999999 127.49634375 -73.68812499999999 Q129.70159875000002 -75.86499999999998 132.88419 -75.86499999999998 Q136.06678125000002 -75.86499999999998 138.33831 -73.65990624999998 Q140.61 -71.45465124999998 140.61 -68.17740624999999 Q140.61 -64.89999999999998 138.31009125 -62.72312499999998 Q136.0101825 -60.546249999999986 132.82759125 -60.546249999999986 Z"/></g><g id="Semibold-L" transform="matrix(1 0 0 1 1970.27 1556)"><path d="M16.52441625 1.7596212500000092 V-11.105548749999983 H108.31098 V1.7596212500000092 H16.52441625 Z M16.52441625 -28.84304874999998 V-41.616951249999985 H108.31098 V-28.84304874999998 H16.52441625 Z M16.52441625 -59.35445124999998 V-72.21962124999999 H108.31098 V-59.35445124999998 H16.52441625 Z M131.85219 1.7596212500000092 Q129.15431625 1.7596212500000092 127.3278375 -0.09507624999997688 Q125.50152 -1.9497737499999772 125.50152 -4.701182499999973 Q125.50152 -7.452752499999988 127.35621750000001 -9.279231249999995 Q129.210915 -11.105548749999983 131.90878875 -11.105548749999983 Q134.60682375 -11.105548749999983 136.48667625 -9.250851249999982 Q138.36669 -7.396153749999968 138.36669 -4.644744999999972 Q138.36669 -1.8931749999999852 136.4584575 -0.06669624999997836 Q134.55022499999998 1.7596212500000092 131.85219 1.7596212500000092 Z M131.85219 -28.84304874999998 Q129.15431625 -28.84304874999998 127.3278375 -30.69758499999999 Q125.50152 -32.55228249999999 125.50152 -35.25821874999997 Q125.50152 -37.96431624999998 127.35621750000001 -39.790633749999984 Q129.210915 -41.616951249999985 131.90878875 -41.616951249999985 Q134.60682375 -41.616951249999985 136.48667625 -39.762414999999976 Q138.36669 -37.907717499999976 138.36669 -35.201781249999996 Q138.36669 -32.49568374999998 136.4584575 -30.66936624999998 Q134.55022499999998 -28.84304874999998 131.85219 -28.84304874999998 Z M131.85219 -59.35445124999998 Q129.15431625 -59.35445124999998 127.3278375 -61.20914874999998 Q125.50152 -63.06384624999998 125.50152 -65.81525499999998 Q125.50152 -68.566825 127.35621750000001 -70.39330374999999 Q129.210915 -72.21962124999999 131.90878875 -72.21962124999999 Q134.60682375 -72.21962124999999 136.48667625 -70.36492374999999 Q138.36669 -68.51022624999999 138.36669 -65.75881749999999 Q138.36669 -63.00724749999998 136.4584575 -61.180768749999984 Q134.55022499999998 -59.35445124999998 131.85219 -59.35445124999998 Z"/></g><g id="Medium-L" transform="matrix(1 0 0 1 1674.31 1556)"><path d="M18.15465375 -0.9748562499999878 V-11.999518749999979 H108.15311625 V-0.9748562499999878 H18.15465375 Z M18.15465375 -29.737018749999976 V-40.72298124999999 H108.15311625 V-29.737018749999976 H18.15465375 Z M18.15465375 -58.46048124999999 V-69.48514374999999 H108.15311625 V-58.46048124999999 H18.15465375 Z M131.12059875 -0.9748562499999878 Q128.7861825 -0.9748562499999878 127.2227025 -2.566554999999994 Q125.65938375 -4.158253749999986 125.65938375 -6.51540624999997 Q125.65938375 -8.872558749999982 127.25108250000001 -10.43603874999998 Q128.84278125 -11.999518749999979 131.1771975 -11.999518749999979 Q133.511775 -11.999518749999979 135.09783000000002 -10.407819999999973 Q136.683885 -8.81595999999999 136.683885 -6.458807499999978 Q136.683885 -4.10165499999998 135.06961125 -2.538336249999972 Q133.45517625 -0.9748562499999878 131.12059875 -0.9748562499999878 Z M131.12059875 -29.737018749999976 Q128.7861825 -29.737018749999976 127.2227025 -31.328717499999982 Q125.65938375 -32.92041624999999 125.65938375 -35.25821874999997 Q125.65938375 -37.59618249999998 127.25108250000001 -39.15966249999998 Q128.84278125 -40.72298124999999 131.1771975 -40.72298124999999 Q133.511775 -40.72298124999999 135.09783000000002 -39.13128249999998 Q136.683885 -37.53958374999998 136.683885 -35.201781249999996 Q136.683885 -32.86381749999998 135.06961125 -31.300337499999983 Q133.45517625 -29.737018749999976 131.12059875 -29.737018749999976 Z M131.12059875 -58.46048124999999 Q128.7861825 -58.46048124999999 127.2227025 -60.05217999999998 Q125.65938375 -61.644039999999976 125.65938375 -64.00119249999999 Q125.65938375 -66.35834499999999 127.25108250000001 -67.92166374999998 Q128.84278125 -69.48514374999999 131.1771975 -69.48514374999999 Q133.511775 -69.48514374999999 135.09783000000002 -67.89344499999999 Q136.683885 -66.30174624999998 136.683885 -63.94459374999998 Q136.683885 -61.58744124999998 135.06961125 -60.023961249999985 Q133.45517625 -58.46048124999999 131.12059875 -58.46048124999999 Z"/></g><g id="Regular-L" transform="matrix(1 0 0 1 1378.56 1556)"><path d="M19.35 -2.9799999999999756 V-12.654999999999987 H108.03750000000001 V-2.9799999999999756 H19.35 Z M19.35 -30.392499999999984 V-40.06749999999998 H108.03750000000001 V-30.392499999999984 H19.35 Z M19.35 -57.80499999999998 V-67.47999999999999 H108.03750000000001 V-57.80499999999998 H19.35 Z M130.58428125 -2.9799999999999756 Q128.51625 -2.9799999999999756 127.14562500000001 -4.378843749999973 Q125.775 -5.7778487499999756 125.775 -7.845718749999975 Q125.775 -9.913749999999979 127.17384375 -11.284374999999983 Q128.57284875 -12.654999999999987 130.64071875 -12.654999999999987 Q132.70875 -12.654999999999987 134.079375 -11.25615624999999 Q135.45000000000002 -9.857151249999987 135.45000000000002 -7.789281249999988 Q135.45000000000002 -5.7212499999999835 134.05115625000002 -4.3506249999999795 Q132.65215125 -2.9799999999999756 130.58428125 -2.9799999999999756 Z M130.58428125 -30.392499999999984 Q128.51625 -30.392499999999984 127.14562500000001 -31.79134374999998 Q125.775 -33.190348749999984 125.775 -35.25821874999997 Q125.775 -37.32624999999999 127.17384375 -38.69687499999998 Q128.57284875 -40.06749999999998 130.64071875 -40.06749999999998 Q132.70875 -40.06749999999998 134.079375 -38.668656249999984 Q135.45000000000002 -37.26965124999998 135.45000000000002 -35.201781249999996 Q135.45000000000002 -33.13374999999998 134.05115625000002 -31.763124999999988 Q132.65215125 -30.392499999999984 130.58428125 -30.392499999999984 Z M130.58428125 -57.80499999999998 Q128.51625 -57.80499999999998 127.14562500000001 -59.20384374999999 Q125.775 -60.60284874999998 125.775 -62.67071874999999 Q125.775 -64.73874999999998 127.17384375 -66.10937499999999 Q128.57284875 -67.47999999999999 130.64071875 -67.47999999999999 Q132.70875 -67.47999999999999 134.079375 -66.08115624999999 Q135.45000000000002 -64.68215124999998 135.45000000000002 -62.614281249999976 Q135.45000000000002 -60.546249999999986 134.05115625000002 -59.17562499999998 Q132.65215125 -57.80499999999998 130.58428125 -57.80499999999998 Z"/></g><g id="Light-L" transform="matrix(1 0 0 1 1082.77 1556)"><path d="M21.52090875 -4.592661249999978 V-11.910669999999982 H108.6576675 V-4.592661249999978 H21.52090875 Z M21.52090875 -31.570914999999985 V-38.88908499999998 H108.6576675 V-31.570914999999985 H21.52090875 Z M21.52090875 -58.54932999999998 V-65.86733874999999 H108.6576675 V-58.54932999999998 H21.52090875 Z M129.10981125 -4.096494999999976 Q127.337835 -4.096494999999976 126.1532925 -5.2950662499999765 Q124.96875 -6.493798749999996 124.96875 -8.265774999999977 Q124.96875 -10.037751249999985 126.16732125 -11.222293749999977 Q127.36605374999999 -12.406836249999984 129.13803000000001 -12.406836249999984 Q130.91000625 -12.406836249999984 132.09454875 -11.208264999999983 Q133.27909125000002 -10.009532499999992 133.27909125000002 -8.237556249999983 Q133.27909125000002 -6.465579999999974 132.08052 -5.281037499999982 Q130.8817875 -4.096494999999976 129.10981125 -4.096494999999976 Z M129.10981125 -31.074748749999983 Q127.337835 -31.074748749999983 126.1532925 -32.273481249999975 Q124.96875 -33.472213749999995 124.96875 -35.244189999999975 Q124.96875 -37.01616624999998 126.16732125 -38.20070874999999 Q127.36605374999999 -39.38525124999998 129.13803000000001 -39.38525124999998 Q130.91000625 -39.38525124999998 132.09454875 -38.18651874999999 Q133.27909125000002 -36.98778624999997 133.27909125000002 -35.21580999999999 Q133.27909125000002 -33.44383374999998 132.08052 -32.259291249999976 Q130.8817875 -31.074748749999983 129.10981125 -31.074748749999983 Z M129.10981125 -58.05316374999998 Q127.337835 -58.05316374999998 126.1532925 -59.25173499999998 Q124.96875 -60.45046749999999 124.96875 -62.22244374999998 Q124.96875 -63.99441999999999 126.16732125 -65.17896249999998 Q127.36605374999999 -66.36350499999999 129.13803000000001 -66.36350499999999 Q130.91000625 -66.36350499999999 132.09454875 -65.16493374999999 Q133.27909125000002 -63.96620124999998 133.27909125000002 -62.19422499999999 Q133.27909125000002 -60.42224874999998 132.08052 -59.23770624999999 Q130.8817875 -58.05316374999998 129.10981125 -58.05316374999998 Z"/></g><g id="Thin-L" transform="matrix(1 0 0 1 787.282 1556)"><path d="M23.691333750000002 -6.204999999999984 V-11.166501249999982 H109.27783500000001 V-6.204999999999984 H23.691333750000002 Z M23.691333750000002 -32.74916874999998 V-37.710831249999984 H109.27783500000001 V-32.74916874999998 H23.691333750000002 Z M23.691333750000002 -59.29349874999998 V-64.25499999999998 H109.27783500000001 V-59.29349874999998 H23.691333750000002 Z M127.63566375 -5.212667499999981 Q126.15958125 -5.212667499999981 125.16096 -6.211127499999989 Q124.16250000000001 -7.209748749999974 124.16250000000001 -8.685831249999978 Q124.16250000000001 -10.161752499999977 125.16096 -11.160373749999977 Q126.15958125 -12.158833749999985 127.63566375 -12.158833749999985 Q129.111585 -12.158833749999985 130.11020625 -11.160373749999977 Q131.10866625 -10.161752499999977 131.10866625 -8.685831249999978 Q131.10866625 -7.209748749999974 130.11020625 -6.211127499999989 Q129.111585 -5.212667499999981 127.63566375 -5.212667499999981 Z M127.63566375 -31.756836249999978 Q126.15958125 -31.756836249999978 125.16096 -32.75545749999998 Q124.16250000000001 -33.753917499999986 124.16250000000001 -35.22999999999999 Q124.16250000000001 -36.70608249999998 125.16096 -37.70454249999999 Q126.15958125 -38.70316374999999 127.63566375 -38.70316374999999 Q129.111585 -38.70316374999999 130.11020625 -37.70454249999999 Q131.10866625 -36.70608249999998 131.10866625 -35.22999999999999 Q131.10866625 -33.753917499999986 130.11020625 -32.75545749999998 Q129.111585 -31.756836249999978 127.63566375 -31.756836249999978 Z M127.63566375 -58.30116624999998 Q126.15958125 -58.30116624999998 125.16096 -59.29962624999999 Q124.16250000000001 -60.29824749999999 124.16250000000001 -61.77416874999999 Q124.16250000000001 -63.25025124999999 125.16096 -64.24887249999998 Q126.15958125 -65.24733249999998 127.63566375 -65.24733249999998 Q129.111585 -65.24733249999998 130.11020625 -64.24887249999998 Q131.10866625 -63.25025124999999 131.10866625 -61.77416874999999 Q131.10866625 -60.29824749999999 130.11020625 -59.29962624999999 Q129.111585 -58.30116624999998 127.63566375 -58.30116624999998 Z"/></g><g id="Ultralight-L" transform="matrix(1 0 0 1 491.205 1556)"><path d="M24.993750000000002 -7.172499999999985 V-10.719999999999985 H109.65 V-7.172499999999985 H24.993750000000002 Z M24.993750000000002 -33.45624999999998 V-37.00374999999998 H109.65 V-33.45624999999998 H24.993750000000002 Z M24.993750000000002 -59.73999999999998 V-63.28749999999998 H109.65 V-59.73999999999998 H24.993750000000002 Z M126.75104625 -5.882499999999979 Q125.4525 -5.882499999999979 124.565625 -6.7608287499999875 Q123.67875000000001 -7.639318749999973 123.67875000000001 -8.937703749999983 Q123.67875000000001 -10.236249999999984 124.55707875 -11.123124999999987 Q125.43556875 -12.009999999999977 126.73395375 -12.009999999999977 Q128.0325 -12.009999999999977 128.919375 -11.131671249999982 Q129.80625 -10.253181249999983 129.80625 -8.954796249999987 Q129.80625 -7.656249999999986 128.92792125 -6.769374999999982 Q128.04943125 -5.882499999999979 126.75104625 -5.882499999999979 Z M126.75104625 -32.16624999999998 Q125.4525 -32.16624999999998 124.565625 -33.044578749999985 Q123.67875000000001 -33.923068749999985 123.67875000000001 -35.22145374999998 Q123.67875000000001 -36.51999999999998 124.55707875 -37.406874999999985 Q125.43556875 -38.29374999999999 126.73395375 -38.29374999999999 Q128.0325 -38.29374999999999 128.919375 -37.41542124999998 Q129.80625 -36.53693124999998 129.80625 -35.238546249999985 Q129.80625 -33.93999999999998 128.92792125 -33.05312499999998 Q128.04943125 -32.16624999999998 126.75104625 -32.16624999999998 Z M126.75104625 -58.44999999999999 Q125.4525 -58.44999999999999 124.565625 -59.32832874999998 Q123.67875000000001 -60.20681874999998 123.67875000000001 -61.50520374999998 Q123.67875000000001 -62.80374999999998 124.55707875 -63.69062499999998 Q125.43556875 -64.57749999999999 126.73395375 -64.57749999999999 Q128.0325 -64.57749999999999 128.919375 -63.69917124999998 Q129.80625 -62.82068124999999 129.80625 -61.52229624999998 Q129.80625 -60.22374999999998 128.92792125 -59.33687499999998 Q128.04943125 -58.44999999999999 126.75104625 -58.44999999999999 Z"/></g><g id="Bold-M" transform="matrix(1 0 0 1 2281.8 1126)"><path d="M9.75 -1.6049999999999898 V-17.35499999999999 H85.5 V-1.6049999999999898 H9.75 Z M9.75 -27.35499999999999 V-43.10499999999999 H85.5 V-27.35499999999999 H9.75 Z M9.75 -53.10499999999999 V-68.85499999999999 H85.5 V-53.10499999999999 H9.75 Z M102.375 -1.6049999999999898 Q99.125 -1.6049999999999898 96.8125 -3.9174999999999898 Q94.5 -6.22999999999999 94.5 -9.47999999999999 Q94.5 -12.72999999999999 96.8125 -15.04249999999999 Q99.125 -17.35499999999999 102.375 -17.35499999999999 Q105.625 -17.35499999999999 107.9375 -15.04249999999999 Q110.25 -12.72999999999999 110.25 -9.47999999999999 Q110.25 -6.22999999999999 107.9375 -3.9174999999999898 Q105.625 -1.6049999999999898 102.375 -1.6049999999999898 Z M102.375 -27.35499999999999 Q99.125 -27.35499999999999 96.8125 -29.66749999999999 Q94.5 -31.97999999999999 94.5 -35.22999999999999 Q94.5 -38.47999999999999 96.8125 -40.79249999999999 Q99.125 -43.10499999999999 102.375 -43.10499999999999 Q105.625 -43.10499999999999 107.9375 -40.79249999999999 Q110.25 -38.47999999999999 110.25 -35.22999999999999 Q110.25 -31.97999999999999 107.9375 -29.66749999999999 Q105.625 -27.35499999999999 102.375 -27.35499999999999 Z M102.375 -53.10499999999999 Q99.125 -53.10499999999999 96.8125 -55.41749999999999 Q94.5 -57.72999999999999 94.5 -60.97999999999999 Q94.5 -64.22999999999999 96.8125 -66.54249999999999 Q99.125 -68.85499999999999 102.375 -68.85499999999999 Q105.625 -68.85499999999999 107.9375 -66.54249999999999 Q110.25 -64.22999999999999 110.25 -60.97999999999999 Q110.25 -57.72999999999999 107.9375 -55.41749999999999 Q105.625 -53.10499999999999 102.375 -53.10499999999999 Z"/></g><g id="Semibold-M" transform="matrix(1 0 0 1 1985.97 1126)"><path d="M12.0325 -5.354749999999996 V-18.604874999999993 H85.282625 V-5.354749999999996 H12.0325 Z M12.0325 -28.604874999999993 V-41.85512499999999 H85.282625 V-28.604874999999993 H12.0325 Z M12.0325 -51.85512499999999 V-65.10524999999998 H85.282625 V-51.85512499999999 H12.0325 Z M101.3425 -5.354749999999996 Q98.5815 -5.354749999999996 96.6495 -7.286874999999995 Q94.717375 -9.218874999999983 94.717375 -11.979874999999993 Q94.717375 -14.740749999999991 96.6495 -16.67287499999999 Q98.5815 -18.604874999999993 101.3425 -18.604874999999993 Q104.103375 -18.604874999999993 106.0355 -16.67287499999999 Q107.9675 -14.740749999999991 107.9675 -11.979874999999993 Q107.9675 -9.218874999999983 106.0355 -7.286874999999995 Q104.103375 -5.354749999999996 101.3425 -5.354749999999996 Z M101.3425 -28.604874999999993 Q98.5815 -28.604874999999993 96.6495 -30.536999999999992 Q94.717375 -32.46912499999999 94.717375 -35.22999999999999 Q94.717375 -37.99087499999999 96.6495 -39.92299999999999 Q98.5815 -41.85512499999999 101.3425 -41.85512499999999 Q104.103375 -41.85512499999999 106.0355 -39.92299999999999 Q107.9675 -37.99087499999999 107.9675 -35.22999999999999 Q107.9675 -32.46912499999999 106.0355 -30.536999999999992 Q104.103375 -28.604874999999993 101.3425 -28.604874999999993 Z M101.3425 -51.85512499999999 Q98.5815 -51.85512499999999 96.6495 -53.78712499999999 Q94.717375 -55.71924999999999 94.717375 -58.48012499999999 Q94.717375 -61.24112499999999 96.6495 -63.17312499999999 Q98.5815 -65.10524999999998 101.3425 -65.10524999999998 Q104.103375 -65.10524999999998 106.0355 -63.17312499999999 Q107.9675 -61.24112499999999 107.9675 -58.48012499999999 Q107.9675 -55.71924999999999 106.0355 -53.78712499999999 Q104.103375 -51.85512499999999 101.3425 -51.85512499999999 Z"/></g><g id="Medium-M" transform="matrix(1 0 0 1 1689.91 1126)"><path d="M13.7445 -8.16749999999999 V-19.54249999999999 H85.119625 V-8.16749999999999 H13.7445 Z M13.7445 -29.54249999999999 V-40.91749999999999 H85.119625 V-29.54249999999999 H13.7445 Z M13.7445 -50.91749999999999 V-62.29249999999999 H85.119625 V-50.91749999999999 H13.7445 Z M100.568 -8.16749999999999 Q98.173875 -8.16749999999999 96.527125 -9.814249999999987 Q94.880375 -11.460999999999984 94.880375 -13.85499999999999 Q94.880375 -16.248999999999995 96.527125 -17.895749999999992 Q98.173875 -19.54249999999999 100.568 -19.54249999999999 Q102.962 -19.54249999999999 104.60875 -17.895749999999992 Q106.2555 -16.248999999999995 106.2555 -13.85499999999999 Q106.2555 -11.460999999999984 104.60875 -9.814249999999987 Q102.962 -8.16749999999999 100.568 -8.16749999999999 Z M100.568 -29.54249999999999 Q98.173875 -29.54249999999999 96.527125 -31.189249999999987 Q94.880375 -32.835999999999984 94.880375 -35.22999999999999 Q94.880375 -37.623999999999995 96.527125 -39.27074999999999 Q98.173875 -40.91749999999999 100.568 -40.91749999999999 Q102.962 -40.91749999999999 104.60875 -39.27074999999999 Q106.2555 -37.623999999999995 106.2555 -35.22999999999999 Q106.2555 -32.835999999999984 104.60875 -31.189249999999987 Q102.962 -29.54249999999999 100.568 -29.54249999999999 Z M100.568 -50.91749999999999 Q98.173875 -50.91749999999999 96.527125 -52.56424999999999 Q94.880375 -54.21099999999999 94.880375 -56.60499999999999 Q94.880375 -58.99899999999999 96.527125 -60.64574999999999 Q98.173875 -62.29249999999999 100.568 -62.29249999999999 Q102.962 -62.29249999999999 104.60875 -60.64574999999999 Q106.2555 -58.99899999999999 106.2555 -56.60499999999999 Q106.2555 -54.21099999999999 104.60875 -52.56424999999999 Q102.962 -50.91749999999999 100.568 -50.91749999999999 Z"/></g><g id="Regular-M" transform="matrix(1 0 0 1 1394.06 1126)"><path d="M15.0 -10.22999999999999 V-20.22999999999999 H85.0 V-10.22999999999999 H15.0 Z M15.0 -30.22999999999999 V-40.22999999999999 H85.0 V-30.22999999999999 H15.0 Z M15.0 -50.22999999999999 V-60.22999999999999 H85.0 V-50.22999999999999 H15.0 Z M100.0 -10.22999999999999 Q97.875 -10.22999999999999 96.4375 -11.66749999999999 Q95.0 -13.10499999999999 95.0 -15.22999999999999 Q95.0 -17.35499999999999 96.4375 -18.79249999999999 Q97.875 -20.22999999999999 100.0 -20.22999999999999 Q102.125 -20.22999999999999 103.5625 -18.79249999999999 Q105.0 -17.35499999999999 105.0 -15.22999999999999 Q105.0 -13.10499999999999 103.5625 -11.66749999999999 Q102.125 -10.22999999999999 100.0 -10.22999999999999 Z M100.0 -30.22999999999999 Q97.875 -30.22999999999999 96.4375 -31.66749999999999 Q95.0 -33.10499999999999 95.0 -35.22999999999999 Q95.0 -37.35499999999999 96.4375 -38.79249999999999 Q97.875 -40.22999999999999 100.0 -40.22999999999999 Q102.125 -40.22999999999999 103.5625 -38.79249999999999 Q105.0 -37.35499999999999 105.0 -35.22999999999999 Q105.0 -33.10499999999999 103.5625 -31.66749999999999 Q102.125 -30.22999999999999 100.0 -30.22999999999999 Z M100.0 -50.22999999999999 Q97.875 -50.22999999999999 96.4375 -51.66749999999999 Q95.0 -53.10499999999999 95.0 -55.22999999999999 Q95.0 -57.35499999999999 96.4375 -58.79249999999999 Q97.875 -60.22999999999999 100.0 -60.22999999999999 Q102.125 -60.22999999999999 103.5625 -58.79249999999999 Q105.0 -57.35499999999999 105.0 -55.22999999999999 Q105.0 -53.10499999999999 103.5625 -51.66749999999999 Q102.125 -50.22999999999999 100.0 -50.22999999999999 Z"/></g><g id="Light-M" transform="matrix(1 0 0 1 1098.18 1126)"><path d="M16.682875 -11.480124999999987 V-18.979874999999993 H85.14425 V-11.480124999999987 H16.682875 Z M16.682875 -31.480124999999987 V-38.97987499999999 H85.14425 V-31.480124999999987 H16.682875 Z M16.682875 -51.48012499999999 V-58.97987499999999 H85.14425 V-51.48012499999999 H16.682875 Z M99.1945 -11.095499999999987 Q97.44225 -11.095499999999987 96.245125 -12.280749999999983 Q95.048125 -13.465999999999994 95.048125 -15.218249999999983 Q95.048125 -16.97037499999999 96.233375 -18.16749999999999 Q97.418625 -19.364499999999992 99.170875 -19.364499999999992 Q100.923 -19.364499999999992 102.120125 -18.179249999999996 Q103.317125 -16.993999999999986 103.317125 -15.241749999999996 Q103.317125 -13.48962499999999 102.131875 -12.29249999999999 Q100.946625 -11.095499999999987 99.1945 -11.095499999999987 Z M99.1945 -31.095499999999987 Q97.44225 -31.095499999999987 96.245125 -32.28074999999998 Q95.048125 -33.465999999999994 95.048125 -35.21824999999998 Q95.048125 -36.97037499999999 96.233375 -38.16749999999999 Q97.418625 -39.36449999999999 99.170875 -39.36449999999999 Q100.923 -39.36449999999999 102.120125 -38.179249999999996 Q103.317125 -36.993999999999986 103.317125 -35.241749999999996 Q103.317125 -33.48962499999999 102.131875 -32.29249999999999 Q100.946625 -31.095499999999987 99.1945 -31.095499999999987 Z M99.1945 -51.09549999999999 Q97.44225 -51.09549999999999 96.245125 -52.28074999999999 Q95.048125 -53.46599999999999 95.048125 -55.21824999999999 Q95.048125 -56.97037499999999 96.233375 -58.16749999999999 Q97.418625 -59.36449999999999 99.170875 -59.36449999999999 Q100.923 -59.36449999999999 102.120125 -58.17924999999999 Q103.317125 -56.99399999999999 103.317125 -55.24174999999999 Q103.317125 -53.48962499999999 102.131875 -52.29249999999999 Q100.946625 -51.09549999999999 99.1945 -51.09549999999999 Z"/></g><g id="Thin-M" transform="matrix(1 0 0 1 802.565 1126)"><path d="M18.365375 -12.72999999999999 V-17.72999999999999 H85.2885 V-12.72999999999999 H18.365375 Z M18.365375 -32.72999999999999 V-37.72999999999999 H85.2885 V-32.72999999999999 H18.365375 Z M18.365375 -52.72999999999999 V-57.72999999999999 H85.2885 V-52.72999999999999 H18.365375 Z M98.389 -11.96074999999999 Q97.009625 -11.96074999999999 96.052875 -12.893874999999994 Q95.096125 -13.826999999999984 95.096125 -15.206374999999994 Q95.096125 -16.58574999999999 96.02925 -17.54249999999999 Q96.962375 -18.49924999999999 98.34175 -18.49924999999999 Q99.721125 -18.49924999999999 100.677875 -17.566124999999985 Q101.634625 -16.632999999999996 101.634625 -15.253624999999985 Q101.634625 -13.87424999999999 100.7015 -12.91749999999999 Q99.768375 -11.96074999999999 98.389 -11.96074999999999 Z M98.389 -31.96074999999999 Q97.009625 -31.96074999999999 96.052875 -32.893874999999994 Q95.096125 -33.826999999999984 95.096125 -35.206374999999994 Q95.096125 -36.58574999999999 96.02925 -37.54249999999999 Q96.962375 -38.49924999999999 98.34175 -38.49924999999999 Q99.721125 -38.49924999999999 100.677875 -37.566124999999985 Q101.634625 -36.632999999999996 101.634625 -35.253624999999985 Q101.634625 -33.87424999999999 100.7015 -32.91749999999999 Q99.768375 -31.96074999999999 98.389 -31.96074999999999 Z M98.389 -51.96074999999999 Q97.009625 -51.96074999999999 96.052875 -52.89387499999999 Q95.096125 -53.82699999999999 95.096125 -55.20637499999999 Q95.096125 -56.58574999999999 96.02925 -57.54249999999999 Q96.962375 -58.49924999999999 98.34175 -58.49924999999999 Q99.721125 -58.49924999999999 100.677875 -57.56612499999999 Q101.634625 -56.63299999999999 101.634625 -55.25362499999999 Q101.634625 -53.87424999999999 100.7015 -52.91749999999999 Q99.768375 -51.96074999999999 98.389 -51.96074999999999 Z"/></g><g id="Ultralight-M" transform="matrix(1 0 0 1 506.415 1126)"><path d="M19.375 -13.47999999999999 V-16.97999999999999 H85.375 V-13.47999999999999 H19.375 Z M19.375 -33.47999999999999 V-36.97999999999999 H85.375 V-33.47999999999999 H19.375 Z M19.375 -53.47999999999999 V-56.97999999999999 H85.375 V-53.47999999999999 H19.375 Z M97.90575 -12.47999999999999 Q96.75 -12.47999999999999 95.9375 -13.261749999999992 Q95.125 -14.043624999999992 95.125 -15.199249999999992 Q95.125 -16.35499999999999 95.90675 -17.16749999999999 Q96.688625 -17.97999999999999 97.84425 -17.97999999999999 Q99.0 -17.97999999999999 99.8125 -17.198249999999987 Q100.625 -16.416374999999988 100.625 -15.260749999999987 Q100.625 -14.10499999999999 99.84325 -13.29249999999999 Q99.061375 -12.47999999999999 97.90575 -12.47999999999999 Z M97.90575 -32.47999999999999 Q96.75 -32.47999999999999 95.9375 -33.26174999999999 Q95.125 -34.04362499999999 95.125 -35.19924999999999 Q95.125 -36.35499999999999 95.90675 -37.16749999999999 Q96.688625 -37.97999999999999 97.84425 -37.97999999999999 Q99.0 -37.97999999999999 99.8125 -37.19824999999999 Q100.625 -36.41637499999999 100.625 -35.26074999999999 Q100.625 -34.10499999999999 99.84325 -33.29249999999999 Q99.061375 -32.47999999999999 97.90575 -32.47999999999999 Z M97.90575 -52.47999999999999 Q96.75 -52.47999999999999 95.9375 -53.26174999999999 Q95.125 -54.04362499999999 95.125 -55.19924999999999 Q95.125 -56.35499999999999 95.90675 -57.16749999999999 Q96.688625 -57.97999999999999 97.84425 -57.97999999999999 Q99.0 -57.97999999999999 99.8125 -57.19824999999999 Q100.625 -56.41637499999999 100.625 -55.26074999999999 Q100.625 -54.10499999999999 99.84325 -53.29249999999999 Q99.061375 -52.47999999999999 97.90575 -52.47999999999999 Z"/></g><g id="Bold-S" transform="matrix(1 0 0 1 2294.23 696)"><path d="M10.059750000000001 -9.488874999999993 V-21.12662499999999 H66.6705 V-9.488874999999993 H10.059750000000001 Z M10.059750000000001 -29.41112499999999 V-41.048874999999995 H66.6705 V-29.41112499999999 H10.059750000000001 Z M10.059750000000001 -49.333375 V-60.971124999999994 H66.6705 V-49.333375 H10.059750000000001 Z M78.822184875 -9.488874999999993 Q76.434375 -9.488874999999993 74.7084375 -11.194002624999996 Q72.9825 -12.899228874999991 72.9825 -15.286940124999987 Q72.9825 -17.67474999999999 74.687627625 -19.40068749999999 Q76.392853875 -21.12662499999999 78.780565125 -21.12662499999999 Q81.168375 -21.12662499999999 82.8943125 -19.421497375 Q84.62025 -17.71627112499999 84.62025 -15.328559874999996 Q84.62025 -12.940749999999994 82.91512237500001 -11.214812499999994 Q81.20989612500001 -9.488874999999993 78.822184875 -9.488874999999993 Z M78.822184875 -29.41112499999999 Q76.434375 -29.41112499999999 74.7084375 -31.116252624999994 Q72.9825 -32.82147887499999 72.9825 -35.20919012499999 Q72.9825 -37.596999999999994 74.687627625 -39.322937499999995 Q76.392853875 -41.048874999999995 78.780565125 -41.048874999999995 Q81.168375 -41.048874999999995 82.8943125 -39.34374737499999 Q84.62025 -37.638521125 84.62025 -35.250809874999995 Q84.62025 -32.86299999999999 82.91512237500001 -31.137062499999992 Q81.20989612500001 -29.41112499999999 78.822184875 -29.41112499999999 Z M78.822184875 -49.333375 Q76.434375 -49.333375 74.7084375 -51.03850262499999 Q72.9825 -52.743728874999995 72.9825 -55.13144012499999 Q72.9825 -57.51924999999999 74.687627625 -59.24518749999999 Q76.392853875 -60.971124999999994 78.780565125 -60.971124999999994 Q81.168375 -60.971124999999994 82.8943125 -59.265997375 Q84.62025 -57.560771124999995 84.62025 -55.173059875 Q84.62025 -52.78525 82.91512237500001 -51.0593125 Q81.20989612500001 -49.333375 78.822184875 -49.333375 Z"/></g><g id="Semibold-S" transform="matrix(1 0 0 1 1998.1 696)"><path d="M11.8606425 -12.447427750000003 V-22.112776374999996 H66.498991125 V-12.447427750000003 H11.8606425 Z M11.8606425 -30.397276374999997 V-40.06272362499999 H66.498991125 V-30.397276374999997 H11.8606425 Z M11.8606425 -48.34722362499999 V-58.01257225 H66.498991125 V-48.34722362499999 H11.8606425 Z M78.00744375000001 -12.447427750000003 Q76.0055535 -12.447427750000003 74.5798305 -13.852439500000003 Q73.154008875 -15.257451249999988 73.154008875 -17.25934149999999 Q73.154008875 -19.261231749999993 74.559020625 -20.68705337499999 Q75.964032375 -22.112776374999996 77.965922625 -22.112776374999996 Q79.967812875 -22.112776374999996 81.3936345 -20.707764624999996 Q82.81935750000001 -19.30275287499998 82.81935750000001 -17.300862624999993 Q82.81935750000001 -15.298972374999991 81.41434575000001 -13.873249375 Q80.00933400000001 -12.447427750000003 78.00744375000001 -12.447427750000003 Z M78.00744375000001 -30.397276374999997 Q76.0055535 -30.397276374999997 74.5798305 -31.80238674999999 Q73.154008875 -33.20739849999999 73.154008875 -35.20919012499999 Q73.154008875 -37.211080374999995 74.559020625 -38.63690199999999 Q75.964032375 -40.06272362499999 77.965922625 -40.06272362499999 Q79.967812875 -40.06272362499999 81.3936345 -38.65761325 Q82.81935750000001 -37.2526015 82.81935750000001 -35.250809874999995 Q82.81935750000001 -33.24891962499999 81.41434575000001 -31.823097999999995 Q80.00933400000001 -30.397276374999997 78.00744375000001 -30.397276374999997 Z M78.00744375000001 -48.34722362499999 Q76.0055535 -48.34722362499999 74.5798305 -49.752235375 Q73.154008875 -51.157247125 73.154008875 -53.15913737499999 Q73.154008875 -55.161027624999996 74.559020625 -56.58675062499999 Q75.964032375 -58.01257225 77.965922625 -58.01257225 Q79.967812875 -58.01257225 81.3936345 -56.60756049999999 Q82.81935750000001 -55.20254874999999 82.81935750000001 -53.200658499999996 Q82.81935750000001 -51.19876824999999 81.41434575000001 -49.772946624999996 Q80.00933400000001 -48.34722362499999 78.00744375000001 -48.34722362499999 Z"/></g><g id="Medium-S" transform="matrix(1 0 0 1 1701.85 696)"><path d="M13.2114105 -14.666687499999995 V-22.85256249999999 H66.370384125 V-14.666687499999995 H13.2114105 Z M13.2114105 -31.137062499999992 V-39.322937499999995 H66.370384125 V-31.137062499999992 H13.2114105 Z M13.2114105 -47.607437499999996 V-55.79331249999999 H66.370384125 V-47.607437499999996 H13.2114105 Z M77.39636325000001 -14.666687499999995 Q75.683937375 -14.666687499999995 74.483276625 -15.846538374999994 Q73.282615875 -17.026487875 73.282615875 -18.738815124999988 Q73.282615875 -20.451240999999996 74.462565375 -21.651901749999993 Q75.64241625000001 -22.85256249999999 77.354842125 -22.85256249999999 Q79.06726800000001 -22.85256249999999 80.26792875000001 -21.672612999999984 Q81.46858950000001 -20.492762124999985 81.46858950000001 -18.78033624999999 Q81.46858950000001 -17.06800899999999 80.28864 -15.867348249999992 Q79.108789125 -14.666687499999995 77.39636325000001 -14.666687499999995 Z M77.39636325000001 -31.137062499999992 Q75.683937375 -31.137062499999992 74.483276625 -32.31691337499999 Q73.282615875 -33.496862875 73.282615875 -35.20919012499999 Q73.282615875 -36.921616 74.462565375 -38.12227675 Q75.64241625000001 -39.322937499999995 77.354842125 -39.322937499999995 Q79.06726800000001 -39.322937499999995 80.26792875000001 -38.143086624999995 Q81.46858950000001 -36.96313712499999 81.46858950000001 -35.250809874999995 Q81.46858950000001 -33.538383999999986 80.28864 -32.33772324999999 Q79.108789125 -31.137062499999992 77.39636325000001 -31.137062499999992 Z M77.39636325000001 -47.607437499999996 Q75.683937375 -47.607437499999996 74.483276625 -48.787386999999995 Q73.282615875 -49.967237874999995 73.282615875 -51.679663749999996 Q73.282615875 -53.39199099999999 74.462565375 -54.592651749999995 Q75.64241625000001 -55.79331249999999 77.354842125 -55.79331249999999 Q79.06726800000001 -55.79331249999999 80.26792875000001 -54.61346162499999 Q81.46858950000001 -53.43361075 81.46858950000001 -51.721184875 Q81.46858950000001 -50.008759 80.28864 -48.80809824999999 Q79.108789125 -47.607437499999996 77.39636325000001 -47.607437499999996 Z"/></g><g id="Regular-S" transform="matrix(1 0 0 1 1405.73 696)"><path d="M14.202 -16.293999999999997 V-23.394999999999996 H66.276 V-16.293999999999997 H14.202 Z M14.202 -31.679499999999997 V-38.780499999999996 H66.276 V-31.679499999999997 H14.202 Z M14.202 -47.065 V-54.166 H66.276 V-47.065 H14.202 Z M76.948309875 -16.293999999999997 Q75.448125 -16.293999999999997 74.4125625 -17.308752624999997 Q73.37700000000001 -18.32360387499999 73.37700000000001 -19.823690125 Q73.37700000000001 -21.323874999999987 74.391752625 -22.3594375 Q75.406603875 -23.394999999999996 76.906690125 -23.394999999999996 Q78.406875 -23.394999999999996 79.4424375 -22.380247374999996 Q80.47800000000001 -21.365396125000004 80.47800000000001 -19.865309874999994 Q80.47800000000001 -18.365124999999992 79.46324737500001 -17.329562499999994 Q78.448396125 -16.293999999999997 76.948309875 -16.293999999999997 Z M76.948309875 -31.679499999999997 Q75.448125 -31.679499999999997 74.4125625 -32.69425262499999 Q73.37700000000001 -33.70910387499999 73.37700000000001 -35.20919012499999 Q73.37700000000001 -36.709374999999994 74.391752625 -37.74493749999999 Q75.406603875 -38.780499999999996 76.906690125 -38.780499999999996 Q78.406875 -38.780499999999996 79.4424375 -37.765747375 Q80.47800000000001 -36.750896125 80.47800000000001 -35.250809874999995 Q80.47800000000001 -33.75062499999999 79.46324737500001 -32.715062499999995 Q78.448396125 -31.679499999999997 76.948309875 -31.679499999999997 Z M76.948309875 -47.065 Q75.448125 -47.065 74.4125625 -48.07975262499999 Q73.37700000000001 -49.094603875 73.37700000000001 -50.59469012499999 Q73.37700000000001 -52.094874999999995 74.391752625 -53.13043749999999 Q75.406603875 -54.166 76.906690125 -54.166 Q78.406875 -54.166 79.4424375 -53.151247375 Q80.47800000000001 -52.136396125 80.47800000000001 -50.636309874999995 Q80.47800000000001 -49.13612499999999 79.46324737500001 -48.100562499999995 Q78.448396125 -47.065 76.948309875 -47.065 Z"/></g><g id="Light-S" transform="matrix(1 0 0 1 1109.75 696)"><path d="M15.529788375 -17.280348624999988 V-22.40865137499999 H66.38981325 V-17.280348624999988 H15.529788375 Z M15.529788375 -32.665848624999995 V-37.794151375 H66.38981325 V-32.665848624999995 H15.529788375 Z M15.529788375 -48.051348624999996 V-53.179651375 H66.38981325 V-48.051348624999996 H15.529788375 Z M76.31267174999999 -16.976879499999995 Q75.10668525 -16.976879499999995 74.260778625 -17.792606875000004 Q73.41497062500001 -18.60843287499999 73.41497062500001 -19.814419375 Q73.41497062500001 -21.020405874999994 74.230698 -21.866312499999992 Q75.046524 -22.712120499999997 76.2525105 -22.712120499999997 Q77.45849700000001 -22.712120499999997 78.304403625 -21.89639312499999 Q79.15021162500001 -21.080567125 79.15021162500001 -19.874580624999993 Q79.15021162500001 -18.668594125 78.33448425 -17.822687499999986 Q77.51865825 -16.976879499999995 76.31267174999999 -16.976879499999995 Z M76.31267174999999 -32.36237949999999 Q75.10668525 -32.36237949999999 74.260778625 -33.178106875 Q73.41497062500001 -33.99393287499999 73.41497062500001 -35.199919375 Q73.41497062500001 -36.405905874999995 74.230698 -37.25181249999999 Q75.046524 -38.0976205 76.2525105 -38.0976205 Q77.45849700000001 -38.0976205 78.304403625 -37.28189312499999 Q79.15021162500001 -36.466067124999995 79.15021162500001 -35.260080624999986 Q79.15021162500001 -34.05409412499999 78.33448425 -33.208187499999994 Q77.51865825 -32.36237949999999 76.31267174999999 -32.36237949999999 Z M76.31267174999999 -47.74787949999999 Q75.10668525 -47.74787949999999 74.260778625 -48.56360687499999 Q73.41497062500001 -49.37943287499999 73.41497062500001 -50.585419374999994 Q73.41497062500001 -51.791405874999995 74.230698 -52.63731249999999 Q75.046524 -53.4831205 76.2525105 -53.4831205 Q77.45849700000001 -53.4831205 78.304403625 -52.667393125 Q79.15021162500001 -51.851567124999995 79.15021162500001 -50.645580624999994 Q79.15021162500001 -49.43959412499999 78.33448425 -48.593687499999994 Q77.51865825 -47.74787949999999 76.31267174999999 -47.74787949999999 Z"/></g><g id="Thin-S" transform="matrix(1 0 0 1 814.015 696)"><path d="M16.857280875 -18.266499999999994 V-21.4225 H66.5036265 V-18.266499999999994 H16.857280875 Z M16.857280875 -33.651999999999994 V-36.80799999999999 H66.5036265 V-33.651999999999994 H16.857280875 Z M16.857280875 -49.037499999999994 V-52.19349999999999 H66.5036265 V-49.037499999999994 H16.857280875 Z M75.677230875 -17.659561749999995 Q74.765344125 -17.659561749999995 74.109093375 -18.27636249999999 Q73.452842625 -18.893261874999993 73.452842625 -19.805148624999987 Q73.452842625 -20.716936749999988 74.069742 -21.3731875 Q74.68654275 -22.02943825 75.59842950000001 -22.02943825 Q76.51021762500001 -22.02943825 77.16646837500001 -21.412637499999988 Q77.822719125 -20.795738124999986 77.822719125 -19.883851374999992 Q77.822719125 -18.97206324999999 77.205918375 -18.315812499999993 Q76.58901900000001 -17.659561749999995 75.677230875 -17.659561749999995 Z M75.677230875 -33.045061749999995 Q74.765344125 -33.045061749999995 74.109093375 -33.6618625 Q73.452842625 -34.278761874999994 73.452842625 -35.190648624999994 Q73.452842625 -36.102436749999995 74.069742 -36.75868749999999 Q74.68654275 -37.41493824999999 75.59842950000001 -37.41493824999999 Q76.51021762500001 -37.41493824999999 77.16646837500001 -36.79813749999999 Q77.822719125 -36.18123812499999 77.822719125 -35.26935137499999 Q77.822719125 -34.35756324999999 77.205918375 -33.70131249999999 Q76.58901900000001 -33.045061749999995 75.677230875 -33.045061749999995 Z M75.677230875 -48.430561749999995 Q74.765344125 -48.430561749999995 74.109093375 -49.0473625 Q73.452842625 -49.664261874999994 73.452842625 -50.576148624999995 Q73.452842625 -51.487936749999996 74.069742 -52.144187499999994 Q74.68654275 -52.80043824999999 75.59842950000001 -52.80043824999999 Q76.51021762500001 -52.80043824999999 77.16646837500001 -52.183637499999996 Q77.822719125 -51.56673812499999 77.822719125 -50.65485137499999 Q77.822719125 -49.74306324999999 77.205918375 -49.08681249999999 Q76.58901900000001 -48.430561749999995 75.677230875 -48.430561749999995 Z"/></g><g id="Ultralight-S" transform="matrix(1 0 0 1 517.792 696)"><path d="M17.653875 -18.858249999999998 V-20.830749999999995 H66.571875 V-18.858249999999998 H17.653875 Z M17.653875 -34.24374999999999 V-36.216249999999995 H66.571875 V-34.24374999999999 H17.653875 Z M17.653875 -49.62924999999999 V-51.601749999999996 H66.571875 V-49.62924999999999 H17.653875 Z M75.295848 -18.069249999999997 Q74.5605 -18.069249999999997 74.0180625 -18.56671449999999 Q73.47562500000001 -19.064178999999996 73.47562500000001 -19.799526999999998 Q73.47562500000001 -20.534875 73.9730895 -21.07731249999999 Q74.47055399999999 -21.619749999999996 75.205902 -21.619749999999996 Q75.94125 -21.619749999999996 76.4836875 -21.12228549999999 Q77.02612500000001 -20.624820999999997 77.02612500000001 -19.889472999999995 Q77.02612500000001 -19.154124999999993 76.5286605 -18.611687499999988 Q76.03119600000001 -18.069249999999997 75.295848 -18.069249999999997 Z M75.295848 -33.45475 Q74.5605 -33.45475 74.0180625 -33.95221449999999 Q73.47562500000001 -34.44967899999999 73.47562500000001 -35.18502699999999 Q73.47562500000001 -35.92037499999999 73.9730895 -36.46281249999999 Q74.47055399999999 -37.00525 75.205902 -37.00525 Q75.94125 -37.00525 76.4836875 -36.5077855 Q77.02612500000001 -36.010321 77.02612500000001 -35.274972999999996 Q77.02612500000001 -34.539624999999994 76.5286605 -33.997187499999995 Q76.03119600000001 -33.45475 75.295848 -33.45475 Z M75.295848 -48.84025 Q74.5605 -48.84025 74.0180625 -49.33771449999999 Q73.47562500000001 -49.835179 73.47562500000001 -50.57052699999999 Q73.47562500000001 -51.30587499999999 73.9730895 -51.84831249999999 Q74.47055399999999 -52.39075 75.205902 -52.39075 Q75.94125 -52.39075 76.4836875 -51.8932855 Q77.02612500000001 -51.39582099999999 77.02612500000001 -50.660472999999996 Q77.02612500000001 -49.925124999999994 76.5286605 -49.382687499999996 Q76.03119600000001 -48.84025 75.295848 -48.84025 Z"/></g></g></svg>