<svg xmlns="http://www.w3.org/2000/svg" version="1.1" width="3300" height="2000"><g id="Notes"><style>
    text {
      font-family: monospace;
      text-anchor: middle;
    }
    text.emphasis {
      font-weight:bold;
    }
    text.lanchor {
      text-anchor: start;
    }
  </style><rect height="2200" id="artboard" fill="white" width="3300" x="0" y="0"/><line id="" style="fill:none;stroke:black;stroke-width:0.5;" x1="263" x2="3036" y1="292" y2="292"/><text class="lanchor emphasis" transform="matrix(1 0 0 1 263 322)">Weight/Scale Variations</text><text transform="matrix(1 0 0 1 559.711 322)">Ultralight</text><text transform="matrix(1 0 0 1 856.422 322)">Thin</text><text transform="matrix(1 0 0 1 1153.13 322)">Light</text><text transform="matrix(1 0 0 1 1449.84 322)">Regular</text><text transform="matrix(1 0 0 1 1746.56 322)">Medium</text><text transform="matrix(1 0 0 1 2043.27 322)">Semibold</text><text transform="matrix(1 0 0 1 2339.98 322)">Bold</text><text transform="matrix(1 0 0 1 2636.69 322)">Heavy</text><text transform="matrix(1 0 0 1 2933.4 322)">Black</text><text id="template-version" style="text-anchor: end;" transform="matrix(1 0 0 1 3036 1933)">Template v.1.0</text><text class="lanchor" transform="matrix(1 0 0 1 263 726)">Small</text><text class="lanchor" transform="matrix(1 0 0 1 263 1156)">Medium</text><text class="lanchor" transform="matrix(1 0 0 1 263 1586)">Large</text></g><g id="Guides"><g id="H-reference" style="fill:#27AAE1;stroke:none;" transform="matrix(1 0 0 1 339 696)"><path d="M 54.9316 0 L 57.666 0 L 30.5664 -70.459 L 28.0762 -70.459 L 0.976562 0 L 3.66211 0 L 12.9395 -24.4629 L 45.7031 -24.4629 Z M 29.1992 -67.0898 L 29.4434 -67.0898 L 44.8242 -26.709 L 13.8184 -26.709 Z"/></g><line id="Baseline-S" style="fill:none;stroke:#27AAE1;opacity:1;stroke-width:0.577;" x1="263" x2="3036" y1="696" y2="696"/><line id="Capline-S" style="fill:none;stroke:#27AAE1;opacity:1;stroke-width:0.577;" x1="263" x2="3036" y1="625.541" y2="625.541"/><g id="H-reference" style="fill:#27AAE1;stroke:none;" transform="matrix(1 0 0 1 339 1126)"><path d="M 54.9316 0 L 57.666 0 L 30.5664 -70.459 L 28.0762 -70.459 L 0.976562 0 L 3.66211 0 L 12.9395 -24.4629 L 45.7031 -24.4629 Z M 29.1992 -67.0898 L 29.4434 -67.0898 L 44.8242 -26.709 L 13.8184 -26.709 Z"/></g><line id="Baseline-M" style="fill:none;stroke:#27AAE1;opacity:1;stroke-width:0.577;" x1="263" x2="3036" y1="1126" y2="1126"/><line id="Capline-M" style="fill:none;stroke:#27AAE1;opacity:1;stroke-width:0.577;" x1="263" x2="3036" y1="1055.54" y2="1055.54"/><g id="H-reference" style="fill:#27AAE1;stroke:none;" transform="matrix(1 0 0 1 339 1556)"><path d="M 54.9316 0 L 57.666 0 L 30.5664 -70.459 L 28.0762 -70.459 L 0.976562 0 L 3.66211 0 L 12.9395 -24.4629 L 45.7031 -24.4629 Z M 29.1992 -67.0898 L 29.4434 -67.0898 L 44.8242 -26.709 L 13.8184 -26.709 Z"/></g><line id="Baseline-L" style="fill:none;stroke:#27AAE1;opacity:1;stroke-width:0.577;" x1="263" x2="3036" y1="1556" y2="1556"/><line id="Capline-L" style="fill:none;stroke:#27AAE1;opacity:1;stroke-width:0.577;" x1="263" x2="3036" y1="1485.54" y2="1485.54"/><rect height="119.336" id="left-margin" style="fill:darkred;stroke:none;opacity:0.4;" width="12.4512" x="1394.06" y="1030.79"/><rect height="119.336" id="right-margin" style="fill:darkgreen;stroke:none;opacity:0.4;" width="12.4512" x="1502.5112" y="1030.79"/><rect x="1406.5112" y="1045" width="96" height="96" fill="none" stroke="blue" stroke-dasharray="5"/><rect x="1394.06" y="1030.79" width="120.9024" height="119.336" fill="none" stroke="blue"/></g><g id="Symbols"><g id="Bold-L" transform="matrix(1 0 0 1 2266 1556)"><path d="M46.1175 -3.9474999999999767 H133.51500000000001 Q133.51500000000001 -3.9474999999999767 133.51500000000001 -3.9474999999999767 Q133.51500000000001 -3.9474999999999767 133.51500000000001 -3.9474999999999767 V-91.34499999999998 Q133.51500000000001 -91.34499999999998 133.51500000000001 -91.34499999999998 Q133.51500000000001 -91.34499999999998 133.51500000000001 -91.34499999999998 H125.775 V-46.517499999999984 L110.77875 -55.70874999999998 L95.7825 -46.517499999999984 V-91.34499999999998 H46.1175 Q46.1175 -91.34499999999998 46.1175 -91.34499999999998 Q46.1175 -91.34499999999998 46.1175 -91.34499999999998 V-3.9474999999999767 Q46.1175 -3.9474999999999767 46.1175 -3.9474999999999767 Q46.1175 -3.9474999999999767 46.1175 -3.9474999999999767 Z M46.1175 11.210000000000008 Q39.8206875 11.210000000000008 35.39034375 6.779656250000016 Q30.96 2.349312500000025 30.96 -3.9474999999999767 V-91.34499999999998 Q30.96 -97.70840874999999 35.39034375 -102.18599874999998 Q39.8206875 -106.66375 46.1175 -106.66375 H133.51500000000001 Q139.87840875 -106.66375 144.35599875 -102.18599874999998 Q148.83375 -97.70840874999999 148.83375 -91.34499999999998 V-3.9474999999999767 Q148.83375 2.349312500000025 144.35599875 6.779656250000016 Q139.87840875 11.210000000000008 133.51500000000001 11.210000000000008 H46.1175 Z M21.285 36.203750000000014 Q14.92159125 36.203750000000014 10.444001250000001 31.72599875000003 Q5.9662500000000005 27.24840875000001 5.9662500000000005 20.88500000000002 V-81.66999999999999 H21.285 V20.88500000000002 Q21.285 20.88500000000002 21.285 20.88500000000002 Q21.285 20.88500000000002 21.285 20.88500000000002 H123.84 V36.203750000000014 H21.285 Z"/></g><g id="Semibold-L" transform="matrix(1 0 0 1 1970.27 1556)"><path d="M44.29473000000001 -2.1247299999999854 H132.9541725 Q132.9541725 -2.1247299999999854 132.9541725 -2.1247299999999854 Q132.9541725 -2.1247299999999854 132.9541725 -2.1247299999999854 V-90.78417249999998 Q132.9541725 -90.78417249999998 132.9541725 -90.78417249999998 Q132.9541725 -90.78417249999998 132.9541725 -90.78417249999998 H124.37293125 V-45.95667249999998 L109.37668124999999 -55.14792249999998 L94.38043125 -45.95667249999998 V-90.78417249999998 H44.29473000000001 Q44.29473000000001 -90.78417249999998 44.29473000000001 -90.78417249999998 Q44.29473000000001 -90.78417249999998 44.29473000000001 -90.78417249999998 V-2.1247299999999854 Q44.29473000000001 -2.1247299999999854 44.29473000000001 -2.1247299999999854 Q44.29473000000001 -2.1247299999999854 44.29473000000001 -2.1247299999999854 Z M44.29473000000001 10.64917250000002 Q39.05297625 10.64917250000002 35.2869825 6.883017500000022 Q31.520827500000003 3.1170237500000155 31.520827500000003 -2.1247299999999854 V-90.78417249999998 Q31.520827500000003 -96.06349749999998 35.2869825 -99.85641999999999 Q39.05297625 -103.64934249999999 44.29473000000001 -103.64934249999999 H132.9541725 Q138.2334975 -103.64934249999999 142.02642 -99.85641999999999 Q145.8193425 -96.06349749999998 145.8193425 -90.78417249999998 V-2.1247299999999854 Q145.8193425 3.1170237500000155 142.02642 6.883017500000022 Q138.2334975 10.64917250000002 132.9541725 10.64917250000002 H44.29473000000001 Z M21.845827500000002 33.1899875 Q16.566502500000002 33.1899875 12.773579999999999 29.396420000000006 Q8.980657500000001 25.603497500000003 8.980657500000001 20.32417250000003 V-81.10917249999999 H21.845827500000002 V20.32417250000003 Q21.845827500000002 20.32417250000003 21.845827500000002 20.32417250000003 Q21.845827500000002 20.32417250000003 21.845827500000002 20.32417250000003 H123.27917250000002 V33.1899875 H21.845827500000002 Z M44.29473000000001 -90.78417249999998 Q44.29473000000001 -90.78417249999998 44.29473000000001 -90.78417249999998 Q44.29473000000001 -90.78417249999998 44.29473000000001 -90.78417249999998 Q44.29473000000001 -90.78417249999998 44.29473000000001 -90.78417249999998 Q44.29473000000001 -90.78417249999998 44.29473000000001 -90.78417249999998 H94.38043125 H109.37668124999999 H124.37293125 H132.9541725 Q132.9541725 -90.78417249999998 132.9541725 -90.78417249999998 Q132.9541725 -90.78417249999998 132.9541725 -90.78417249999998 Q132.9541725 -90.78417249999998 132.9541725 -90.78417249999998 Q132.9541725 -90.78417249999998 132.9541725 -90.78417249999998 H44.29473000000001 Z"/></g><g id="Medium-L" transform="matrix(1 0 0 1 1674.31 1556)"><path d="M42.9276525 -0.7576524999999776 H132.53347125000002 Q132.53347125000002 -0.7576524999999776 132.53347125000002 -0.7576524999999776 Q132.53347125000002 -0.7576524999999776 132.53347125000002 -0.7576524999999776 V-90.36347124999999 Q132.53347125000002 -90.36347124999999 132.53347125000002 -90.36347124999999 Q132.53347125000002 -90.36347124999999 132.53347125000002 -90.36347124999999 H123.32125875000001 V-45.53597124999999 L108.32500875000001 -54.727221249999985 L93.32875875 -45.53597124999999 V-90.36347124999999 H42.9276525 Q42.9276525 -90.36347124999999 42.9276525 -90.36347124999999 Q42.9276525 -90.36347124999999 42.9276525 -90.36347124999999 V-0.7576524999999776 Q42.9276525 -0.7576524999999776 42.9276525 -0.7576524999999776 Q42.9276525 -0.7576524999999776 42.9276525 -0.7576524999999776 Z M42.9276525 10.228471250000013 Q38.47731375 10.228471250000013 35.209421250000005 6.960578750000025 Q31.94152875 3.6926862500000084 31.94152875 -0.7576524999999776 V-90.36347124999999 Q31.94152875 -94.82977374999999 35.209421250000005 -98.10895374999998 Q38.47731375 -101.38813374999998 42.9276525 -101.38813374999998 H132.53347125000002 Q136.99977375 -101.38813374999998 140.27895375 -98.10895374999998 Q143.55813375 -94.82977374999999 143.55813375 -90.36347124999999 V-0.7576524999999776 Q143.55813375 3.6926862500000084 140.27895375 6.960578750000025 Q136.99977375 10.228471250000013 132.53347125000002 10.228471250000013 H42.9276525 Z M22.26652875 30.92813375000003 Q17.80022625 30.92813375000003 14.52104625 27.648953750000032 Q11.24186625 24.369773750000007 11.24186625 19.903471250000024 V-80.68847124999999 H22.26652875 V19.903471250000024 Q22.26652875 19.903471250000024 22.26652875 19.903471250000024 Q22.26652875 19.903471250000024 22.26652875 19.903471250000024 H122.85847125000001 V30.92813375000003 H22.26652875 Z M42.9276525 -90.36347124999999 Q42.9276525 -90.36347124999999 42.9276525 -90.36347124999999 Q42.9276525 -90.36347124999999 42.9276525 -90.36347124999999 Q42.9276525 -90.36347124999999 42.9276525 -90.36347124999999 Q42.9276525 -90.36347124999999 42.9276525 -90.36347124999999 H93.32875875 H108.32500875000001 H123.32125875000001 H132.53347125000002 Q132.53347125000002 -90.36347124999999 132.53347125000002 -90.36347124999999 Q132.53347125000002 -90.36347124999999 132.53347125000002 -90.36347124999999 Q132.53347125000002 -90.36347124999999 132.53347125000002 -90.36347124999999 Q132.53347125000002 -90.36347124999999 132.53347125000002 -90.36347124999999 H42.9276525 Z"/></g><g id="Regular-L" transform="matrix(1 0 0 1 1378.56 1556)"><path d="M41.925000000000004 0.24500000000000455 H132.225 Q132.225 0.24500000000000455 132.225 0.24500000000000455 Q132.225 0.24500000000000455 132.225 0.24500000000000455 V-90.05499999999998 Q132.225 -90.05499999999998 132.225 -90.05499999999998 Q132.225 -90.05499999999998 132.225 -90.05499999999998 H122.55 V-45.22749999999998 L107.55375000000001 -54.41874999999999 L92.5575 -45.22749999999998 V-90.05499999999998 H41.925000000000004 Q41.925000000000004 -90.05499999999998 41.925000000000004 -90.05499999999998 Q41.925000000000004 -90.05499999999998 41.925000000000004 -90.05499999999998 V0.24500000000000455 Q41.925000000000004 0.24500000000000455 41.925000000000004 0.24500000000000455 Q41.925000000000004 0.24500000000000455 41.925000000000004 0.24500000000000455 Z M41.925000000000004 9.920000000000016 Q38.055 9.920000000000016 35.1525 7.0175000000000125 Q32.25 4.115000000000009 32.25 0.24500000000000455 V-90.05499999999998 Q32.25 -93.92499999999998 35.1525 -96.82749999999999 Q38.055 -99.72999999999999 41.925000000000004 -99.72999999999999 H132.225 Q136.095 -99.72999999999999 138.9975 -96.82749999999999 Q141.9 -93.92499999999998 141.9 -90.05499999999998 V0.24500000000000455 Q141.9 4.115000000000009 138.9975 7.0175000000000125 Q136.095 9.920000000000016 132.225 9.920000000000016 H41.925000000000004 Z M22.575 29.27000000000001 Q18.705000000000002 29.27000000000001 15.8025 26.367500000000007 Q12.9 23.465000000000032 12.9 19.595000000000027 V-80.37999999999998 H22.575 V19.595000000000027 Q22.575 19.595000000000027 22.575 19.595000000000027 Q22.575 19.595000000000027 22.575 19.595000000000027 H122.55 V29.27000000000001 H22.575 Z"/></g><g id="Light-L" transform="matrix(1 0 0 1 1082.77 1556)"><path d="M44.902158750000005 -2.3599937499999726 H127.75934250000002 Q128.50351125 -2.3599937499999726 129.12384 -2.9801612499999806 Q129.7440075 -3.6004899999999793 129.7440075 -4.344819999999984 V-87.20184249999998 Q129.7440075 -87.94617249999999 129.12384 -88.56650124999999 Q128.50351125 -89.18666875 127.75934250000002 -89.18666875 H119.20067625000001 V-47.150244999999984 L105.50700375000001 -55.47316374999998 L91.81317 -47.150244999999984 V-89.18666875 H44.902158750000005 Q44.15782875 -89.18666875 43.53766125 -88.56650124999999 Q42.9173325 -87.94617249999999 42.9173325 -87.20184249999998 V-4.344819999999984 Q42.9173325 -3.6004899999999793 43.53766125 -2.9801612499999806 Q44.15782875 -2.3599937499999726 44.902158750000005 -2.3599937499999726 Z M44.902158750000005 4.958176250000037 Q41.1081075 4.958176250000037 38.353635000000004 2.2037037500000167 Q35.599323749999996 -0.5507687499999747 35.599323749999996 -4.344819999999984 V-87.20184249999998 Q35.599323749999996 -90.99589375 38.353635000000004 -93.75036624999998 Q41.1081075 -96.50483874999998 44.902158750000005 -96.50483874999998 H127.75934250000002 Q131.5532325 -96.50483874999998 134.307705 -93.75036624999998 Q137.06217750000002 -90.99589375 137.06217750000002 -87.20184249999998 V-4.344819999999984 Q137.06217750000002 -0.5507687499999747 134.307705 2.2037037500000167 Q131.5532325 4.958176250000037 127.75934250000002 4.958176250000037 H44.902158750000005 Z M27.0406575 22.81951625000002 Q23.2467675 22.81951625000002 20.492295000000002 20.06504375 Q17.7378225 17.3107325 17.7378225 13.516681250000005 V-76.65851124999998 H25.0559925 V13.516681250000005 Q25.0559925 14.261011250000024 25.67616 14.881178750000032 Q26.29648875 15.50150750000003 27.0406575 15.50150750000003 H117.21601125000001 V22.81951625000002 H27.0406575 Z"/></g><g id="Thin-L" transform="matrix(1 0 0 1 787.282 1556)"><path d="M47.87883375 -4.9645037499999916 H123.29433 Q124.7826675 -4.9645037499999916 126.02316375 -6.204999999999984 Q127.26349875 -7.445334999999986 127.26349875 -8.933833749999977 V-84.34932999999998 Q127.26349875 -85.83766749999998 126.02316375 -87.07816374999999 Q124.7826675 -88.31849874999997 123.29433 -88.31849874999997 H115.8519975 V-49.07266749999998 L103.46058000000001 -56.52741624999999 L91.06900125 -49.07266749999998 V-88.31849874999997 H47.87883375 Q46.390335 -88.31849874999997 45.15 -87.07816374999999 Q43.909665 -85.83766749999998 43.909665 -84.34932999999998 V-8.933833749999977 Q43.909665 -7.445334999999986 45.15 -6.204999999999984 Q46.390335 -4.9645037499999916 47.87883375 -4.9645037499999916 Z M47.87883375 -0.003002499999979591 Q44.160731250000005 -0.003002499999979591 41.5544475 -2.6094474999999875 Q38.9480025 -5.21573124999999 38.9480025 -8.933833749999977 V-84.34932999999998 Q38.9480025 -88.06727124999998 41.5544475 -90.67371624999998 Q44.160731250000005 -93.27999999999999 47.87883375 -93.27999999999999 H123.29433 Q127.01227125 -93.27999999999999 129.61871625 -90.67371624999998 Q132.225 -88.06727124999998 132.225 -84.34932999999998 V-8.933833749999977 Q132.225 -5.21573124999999 129.61871625 -2.6094474999999875 Q127.01227125 -0.003002499999979591 123.29433 -0.003002499999979591 H47.87883375 Z M31.50567 16.370000000000033 Q27.78772875 16.370000000000033 25.181283750000002 13.763716250000016 Q22.575 11.157432500000027 22.575 7.439330000000012 V-72.93766749999998 H27.53650125 V7.439330000000012 Q27.53650125 8.927828750000003 28.776836250000002 10.16816375000002 Q30.017332500000002 11.408498750000007 31.50567 11.408498750000007 H111.88282875 V16.370000000000033 H31.50567 Z M91.06900125 -88.31849874999997 H103.46058000000001 H115.8519975 H91.06900125 Z"/></g><g id="Ultralight-L" transform="matrix(1 0 0 1 491.205 1556)"><path d="M49.665 -6.527499999999975 H120.61500000000001 Q122.55 -6.527499999999975 124.16250000000001 -8.139999999999986 Q125.775 -9.752499999999984 125.775 -11.687499999999986 V-82.63749999999999 Q125.775 -84.57249999999999 124.16250000000001 -86.18499999999997 Q122.55 -87.79749999999999 120.61500000000001 -87.79749999999999 H113.8425 V-50.22624999999998 L102.2325 -57.15999999999998 L90.6225 -50.22624999999998 V-87.79749999999999 H49.665 Q47.730000000000004 -87.79749999999999 46.1175 -86.18499999999997 Q44.505 -84.57249999999999 44.505 -82.63749999999999 V-11.687499999999986 Q44.505 -9.752499999999984 46.1175 -8.139999999999986 Q47.730000000000004 -6.527499999999975 49.665 -6.527499999999975 Z M49.665 -2.9799999999999756 Q45.992531250000006 -2.9799999999999756 43.474935 -5.497434999999982 Q40.9575 -8.015031249999979 40.9575 -11.687499999999986 V-82.63749999999999 Q40.9575 -86.30996874999998 43.474935 -88.82756499999999 Q45.992531250000006 -91.34499999999998 49.665 -91.34499999999998 H120.61500000000001 Q124.28746875 -91.34499999999998 126.80506500000001 -88.82756499999999 Q129.3225 -86.30996874999998 129.3225 -82.63749999999999 V-11.687499999999986 Q129.3225 -8.015031249999979 126.80506500000001 -5.497434999999982 Q124.28746875 -2.9799999999999756 120.61500000000001 -2.9799999999999756 H49.665 Z M34.185 12.500000000000028 Q30.51253125 12.500000000000028 27.99509625 9.982565000000022 Q25.4775 7.4649687500000255 25.4775 3.792500000000018 V-70.70499999999998 H29.025000000000002 V3.792500000000018 Q29.025000000000002 5.7275000000000205 30.6375 7.340000000000032 Q32.25 8.952500000000015 34.185 8.952500000000015 H108.6825 V12.500000000000028 H34.185 Z"/></g><g id="Bold-M" transform="matrix(1 0 0 1 2281.8 1126)"><path d="M44.375 -19.60499999999999 H101.375 Q101.375 -19.60499999999999 101.375 -19.60499999999999 Q101.375 -19.60499999999999 101.375 -19.60499999999999 V-76.60499999999999 Q101.375 -76.60499999999999 101.375 -76.60499999999999 Q101.375 -76.60499999999999 101.375 -76.60499999999999 H93.25 V-41.60499999999999 L80.75 -49.10499999999999 L68.25 -41.60499999999999 V-76.60499999999999 H44.375 Q44.375 -76.60499999999999 44.375 -76.60499999999999 Q44.375 -76.60499999999999 44.375 -76.60499999999999 V-19.60499999999999 Q44.375 -19.60499999999999 44.375 -19.60499999999999 Q44.375 -19.60499999999999 44.375 -19.60499999999999 Z M44.375 -3.8549999999999898 Q37.75 -3.8549999999999898 33.1875 -8.41749999999999 Q28.625 -12.97999999999999 28.625 -19.60499999999999 V-76.60499999999999 Q28.625 -83.22999999999999 33.1875 -87.79249999999999 Q37.75 -92.35499999999999 44.375 -92.35499999999999 H101.375 Q108.0 -92.35499999999999 112.5625 -87.79249999999999 Q117.125 -83.22999999999999 117.125 -76.60499999999999 V-19.60499999999999 Q117.125 -12.97999999999999 112.5625 -8.41749999999999 Q108.0 -3.8549999999999898 101.375 -3.8549999999999898 H44.375 Z M18.625 21.89500000000001 Q12.0 21.89500000000001 7.4375 17.33250000000001 Q2.875 12.77000000000001 2.875 6.14500000000001 V-66.60499999999999 H18.625 V6.14500000000001 Q18.625 6.14500000000001 18.625 6.14500000000001 Q18.625 6.14500000000001 18.625 6.14500000000001 H91.375 V21.89500000000001 H18.625 Z"/></g><g id="Semibold-M" transform="matrix(1 0 0 1 1985.97 1126)"><path d="M42.473 -17.70299999999999 H100.77725 Q100.77725 -17.70299999999999 100.77725 -17.70299999999999 Q100.77725 -17.70299999999999 100.77725 -17.70299999999999 V-76.00724999999998 Q100.77725 -76.00724999999998 100.77725 -76.00724999999998 Q100.77725 -76.00724999999998 100.77725 -76.00724999999998 H91.837 V-41.007249999999985 L79.337 -48.50724999999999 L66.837 -41.007249999999985 V-76.00724999999998 H42.473 Q42.473 -76.00724999999998 42.473 -76.00724999999998 Q42.473 -76.00724999999998 42.473 -76.00724999999998 V-17.70299999999999 Q42.473 -17.70299999999999 42.473 -17.70299999999999 Q42.473 -17.70299999999999 42.473 -17.70299999999999 Z M42.473 -4.452749999999995 Q36.934875 -4.452749999999995 33.07875 -8.30874999999999 Q29.22275 -12.164874999999995 29.22275 -17.70299999999999 V-76.00724999999998 Q29.22275 -81.54537499999999 33.07875 -85.40137499999999 Q36.934875 -89.257375 42.473 -89.257375 H100.77725 Q106.315375 -89.257375 110.171375 -85.40137499999999 Q114.027375 -81.54537499999999 114.027375 -76.00724999999998 V-17.70299999999999 Q114.027375 -12.164874999999995 110.171375 -8.30874999999999 Q106.315375 -4.452749999999995 100.77725 -4.452749999999995 H42.473 Z M19.22275 18.797500000000014 Q13.684625 18.797500000000014 9.828625 14.941375000000008 Q5.972625 11.085375000000013 5.972625 5.547250000000005 V-66.00725 H19.22275 V5.547250000000005 Q19.22275 5.547250000000005 19.22275 5.547250000000005 Q19.22275 5.547250000000005 19.22275 5.547250000000005 H90.77725 V18.797500000000014 H19.22275 Z M42.473 -76.00724999999998 Q42.473 -76.00724999999998 42.473 -76.00724999999998 Q42.473 -76.00724999999998 42.473 -76.00724999999998 Q42.473 -76.00724999999998 42.473 -76.00724999999998 Q42.473 -76.00724999999998 42.473 -76.00724999999998 H66.837 H79.337 H91.837 H100.77725 Q100.77725 -76.00724999999998 100.77725 -76.00724999999998 Q100.77725 -76.00724999999998 100.77725 -76.00724999999998 Q100.77725 -76.00724999999998 100.77725 -76.00724999999998 Q100.77725 -76.00724999999998 100.77725 -76.00724999999998 H42.473 Z"/></g><g id="Medium-M" transform="matrix(1 0 0 1 1689.91 1126)"><path d="M41.04625 -16.27624999999999 H100.32875 Q100.32875 -16.27624999999999 100.32875 -16.27624999999999 Q100.32875 -16.27624999999999 100.32875 -16.27624999999999 V-75.55874999999999 Q100.32875 -75.55874999999999 100.32875 -75.55874999999999 Q100.32875 -75.55874999999999 100.32875 -75.55874999999999 H90.77725 V-40.55874999999999 L78.27725 -48.05874999999999 L65.77725 -40.55874999999999 V-75.55874999999999 H41.04625 Q41.04625 -75.55874999999999 41.04625 -75.55874999999999 Q41.04625 -75.55874999999999 41.04625 -75.55874999999999 V-16.27624999999999 Q41.04625 -16.27624999999999 41.04625 -16.27624999999999 Q41.04625 -16.27624999999999 41.04625 -16.27624999999999 Z M41.04625 -4.90124999999999 Q36.323375 -4.90124999999999 32.99725 -8.227249999999984 Q29.67125 -11.553374999999988 29.67125 -16.27624999999999 V-75.55874999999999 Q29.67125 -80.28162499999999 32.99725 -83.60774999999998 Q36.323375 -86.93387499999999 41.04625 -86.93387499999999 H100.32875 Q105.051625 -86.93387499999999 108.37775 -83.60774999999998 Q111.703875 -80.28162499999999 111.703875 -75.55874999999999 V-16.27624999999999 Q111.703875 -11.553374999999988 108.37775 -8.227249999999984 Q105.051625 -4.90124999999999 100.32875 -4.90124999999999 H41.04625 Z M19.67125 16.473875000000007 Q14.948375 16.473875000000007 11.62225 13.147750000000016 Q8.296125 9.821625000000012 8.296125 5.09875000000001 V-65.55874999999999 H19.67125 V5.09875000000001 Q19.67125 5.09875000000001 19.67125 5.09875000000001 Q19.67125 5.09875000000001 19.67125 5.09875000000001 H90.32875 V16.473875000000007 H19.67125 Z"/></g><g id="Regular-M" transform="matrix(1 0 0 1 1394.06 1126)"><path d="M40.0 -15.22999999999999 H100.0 Q100.0 -15.22999999999999 100.0 -15.22999999999999 Q100.0 -15.22999999999999 100.0 -15.22999999999999 V-75.22999999999999 Q100.0 -75.22999999999999 100.0 -75.22999999999999 Q100.0 -75.22999999999999 100.0 -75.22999999999999 H90.0 V-40.22999999999999 L77.5 -47.72999999999999 L65.0 -40.22999999999999 V-75.22999999999999 H40.0 Q40.0 -75.22999999999999 40.0 -75.22999999999999 Q40.0 -75.22999999999999 40.0 -75.22999999999999 V-15.22999999999999 Q40.0 -15.22999999999999 40.0 -15.22999999999999 Q40.0 -15.22999999999999 40.0 -15.22999999999999 Z M40.0 -5.22999999999999 Q35.875 -5.22999999999999 32.9375 -8.16749999999999 Q30.0 -11.10499999999999 30.0 -15.22999999999999 V-75.22999999999999 Q30.0 -79.35499999999999 32.9375 -82.29249999999999 Q35.875 -85.22999999999999 40.0 -85.22999999999999 H100.0 Q104.125 -85.22999999999999 107.0625 -82.29249999999999 Q110.0 -79.35499999999999 110.0 -75.22999999999999 V-15.22999999999999 Q110.0 -11.10499999999999 107.0625 -8.16749999999999 Q104.125 -5.22999999999999 100.0 -5.22999999999999 H40.0 Z M20.0 14.77000000000001 Q15.875 14.77000000000001 12.9375 11.83250000000001 Q10.0 8.89500000000001 10.0 4.77000000000001 V-65.22999999999999 H20.0 V4.77000000000001 Q20.0 4.77000000000001 20.0 4.77000000000001 Q20.0 4.77000000000001 20.0 4.77000000000001 H90.0 V14.77000000000001 H20.0 Z"/></g><g id="Light-M" transform="matrix(1 0 0 1 1098.18 1126)"><path d="M40.2885 -15.22999999999999 H97.211375 Q97.78825 -15.22999999999999 98.269125 -15.71074999999999 Q98.749875 -16.191624999999988 98.749875 -16.768624999999986 V-73.691375 Q98.749875 -74.26837499999999 98.269125 -74.74924999999999 Q97.78825 -75.22999999999999 97.211375 -75.22999999999999 H88.749875 V-42.441749999999985 L77.5 -49.17237499999999 L66.250125 -42.441749999999985 V-75.22999999999999 H40.2885 Q39.7115 -75.22999999999999 39.23075 -74.74924999999999 Q38.749875 -74.26837499999999 38.749875 -73.691375 V-16.768624999999986 Q38.749875 -16.191624999999988 39.23075 -15.71074999999999 Q39.7115 -15.22999999999999 40.2885 -15.22999999999999 Z M40.2885 -7.730124999999987 Q36.5 -7.730124999999987 33.875125 -10.355124999999987 Q31.250125 -12.980124999999987 31.250125 -16.768624999999986 V-73.691375 Q31.250125 -77.47987499999999 33.875125 -80.10487499999999 Q36.5 -82.72987499999999 40.2885 -82.72987499999999 H97.211375 Q100.99975 -82.72987499999999 103.62475 -80.10487499999999 Q106.24975 -77.47987499999999 106.24975 -73.691375 V-16.768624999999986 Q106.24975 -12.980124999999987 103.62475 -10.355124999999987 Q100.99975 -7.730124999999987 97.211375 -7.730124999999987 H40.2885 Z M22.788625 9.769625000000005 Q19.00025 9.769625000000005 16.37525 7.144625000000005 Q13.75025 4.519625000000005 13.75025 0.731250000000017 V-63.69137499999999 H21.250125 V0.731250000000017 Q21.250125 1.3082500000000152 21.730875 1.7890000000000157 Q22.21175 2.269875000000013 22.788625 2.269875000000013 H87.211375 V9.769625000000005 H22.788625 Z"/></g><g id="Thin-M" transform="matrix(1 0 0 1 802.565 1126)"><path d="M40.576875 -15.22999999999999 H94.423125 Q95.577 -15.22999999999999 96.5385 -16.19149999999999 Q97.5 -17.15312499999999 97.5 -18.30687499999999 V-72.15312499999999 Q97.5 -73.30687499999999 96.5385 -74.26849999999999 Q95.577 -75.22999999999999 94.423125 -75.22999999999999 H87.5 V-44.65299999999999 L77.5 -50.61462499999999 L67.5 -44.65299999999999 V-75.22999999999999 H40.576875 Q39.423125 -75.22999999999999 38.4615 -74.26849999999999 Q37.5 -73.30687499999999 37.5 -72.15312499999999 V-18.30687499999999 Q37.5 -17.15312499999999 38.4615 -16.19149999999999 Q39.423125 -15.22999999999999 40.576875 -15.22999999999999 Z M40.576875 -10.22999999999999 Q37.125 -10.22999999999999 34.8125 -12.54249999999999 Q32.5 -14.85499999999999 32.5 -18.30687499999999 V-72.15312499999999 Q32.5 -75.60499999999999 34.8125 -77.91749999999999 Q37.125 -80.22999999999999 40.576875 -80.22999999999999 H94.423125 Q97.875 -80.22999999999999 100.1875 -77.91749999999999 Q102.5 -75.60499999999999 102.5 -72.15312499999999 V-18.30687499999999 Q102.5 -14.85499999999999 100.1875 -12.54249999999999 Q97.875 -10.22999999999999 94.423125 -10.22999999999999 H40.576875 Z M25.576875 4.77000000000001 Q22.125 4.77000000000001 19.8125 2.4575000000000102 Q17.5 0.14500000000001023 17.5 -3.306874999999991 V-62.15312499999999 H22.5 V-3.306874999999991 Q22.5 -2.1529999999999916 23.4615 -1.1914999999999907 Q24.423 -0.22999999999998977 25.576875 -0.22999999999998977 H84.423125 V4.77000000000001 H25.576875 Z"/></g><g id="Ultralight-M" transform="matrix(1 0 0 1 506.415 1126)"><path d="M40.75 -15.22999999999999 H92.75 Q94.25 -15.22999999999999 95.5 -16.47999999999999 Q96.75 -17.72999999999999 96.75 -19.22999999999999 V-71.22999999999999 Q96.75 -72.72999999999999 95.5 -73.97999999999999 Q94.25 -75.22999999999999 92.75 -75.22999999999999 H86.75 V-45.97999999999999 L77.5 -51.47999999999999 L68.25 -45.97999999999999 V-75.22999999999999 H40.75 Q39.25 -75.22999999999999 38.0 -73.97999999999999 Q36.75 -72.72999999999999 36.75 -71.22999999999999 V-19.22999999999999 Q36.75 -17.72999999999999 38.0 -16.47999999999999 Q39.25 -15.22999999999999 40.75 -15.22999999999999 Z M40.75 -11.72999999999999 Q37.5 -11.72999999999999 35.375 -13.85499999999999 Q33.25 -15.97999999999999 33.25 -19.22999999999999 V-71.22999999999999 Q33.25 -74.47999999999999 35.375 -76.60499999999999 Q37.5 -78.72999999999999 40.75 -78.72999999999999 H92.75 Q96.0 -78.72999999999999 98.125 -76.60499999999999 Q100.25 -74.47999999999999 100.25 -71.22999999999999 V-19.22999999999999 Q100.25 -15.97999999999999 98.125 -13.85499999999999 Q96.0 -11.72999999999999 92.75 -11.72999999999999 H40.75 Z M27.25 1.7700000000000102 Q24.0 1.7700000000000102 21.875 -0.35499999999998977 Q19.75 -2.4799999999999898 19.75 -5.72999999999999 V-61.22999999999999 H23.25 V-5.72999999999999 Q23.25 -4.22999999999999 24.5 -2.9799999999999898 Q25.75 -1.7299999999999898 27.25 -1.7299999999999898 H82.75 V1.7700000000000102 H27.25 Z"/></g><g id="Bold-S" transform="matrix(1 0 0 1 2294.23 696)"><path d="M34.222875 -22.11287499999999 H79.195875 Q79.195875 -22.11287499999999 79.195875 -22.11287499999999 Q79.195875 -22.11287499999999 79.195875 -22.11287499999999 V-67.08587499999999 Q79.195875 -67.08587499999999 79.195875 -67.08587499999999 Q79.195875 -67.08587499999999 79.195875 -67.08587499999999 H73.57425 V-36.314874999999994 L64.10625 -41.048874999999995 L54.63825 -36.314874999999994 V-67.08587499999999 H34.222875 Q34.222875 -67.08587499999999 34.222875 -67.08587499999999 Q34.222875 -67.08587499999999 34.222875 -67.08587499999999 V-22.11287499999999 Q34.222875 -22.11287499999999 34.222875 -22.11287499999999 Q34.222875 -22.11287499999999 34.222875 -22.11287499999999 Z M34.222875 -10.475124999999991 Q29.39025 -10.475124999999991 25.9876875 -13.877687499999993 Q22.585125 -17.280249999999995 22.585125 -22.11287499999999 V-67.08587499999999 Q22.585125 -71.9875375 25.9876875 -75.35558125 Q29.39025 -78.723625 34.222875 -78.723625 H79.195875 Q84.0975375 -78.723625 87.46558125 -75.35558125 Q90.833625 -71.9875375 90.833625 -67.08587499999999 V-22.11287499999999 Q90.833625 -17.280249999999995 87.46558125 -13.877687499999993 Q84.0975375 -10.475124999999991 79.195875 -10.475124999999991 H34.222875 Z M15.484125 8.263625000000005 Q10.6515 8.263625000000005 7.2489375 4.861062500000003 Q3.846375 1.4585000000000008 3.846375 -3.3741249999999923 V-59.984874999999995 H15.484125 V-3.3741249999999923 Q15.484125 -3.3741249999999923 15.484125 -3.3741249999999923 Q15.484125 -3.3741249999999923 15.484125 -3.3741249999999923 H72.094875 V8.263625000000005 H15.484125 Z"/></g><g id="Semibold-S" transform="matrix(1 0 0 1 1998.1 696)"><path d="M32.722197 -20.612196999999995 H78.72425025 Q78.72425025 -20.612196999999995 78.72425025 -20.612196999999995 Q78.72425025 -20.612196999999995 78.72425025 -20.612196999999995 V-66.61425025 Q78.72425025 -66.61425025 78.72425025 -66.61425025 Q78.72425025 -66.61425025 78.72425025 -66.61425025 H72.459393 V-35.84325024999999 L62.991393 -40.57725024999999 L53.523393000000006 -35.84325024999999 V-66.61425025 H32.722197 Q32.722197 -66.61425025 32.722197 -66.61425025 Q32.722197 -66.61425025 32.722197 -66.61425025 V-20.612196999999995 Q32.722197 -20.612196999999995 32.722197 -20.612196999999995 Q32.722197 -20.612196999999995 32.722197 -20.612196999999995 Z M32.722197 -10.946749749999995 Q28.747116375 -10.946749749999995 25.90188375 -13.791883749999997 Q23.05674975 -16.63711637499999 23.05674975 -20.612196999999995 V-66.61425025 Q23.05674975 -70.658368375 25.90188375 -73.46898362499999 Q28.747116375 -76.27959887499999 32.722197 -76.27959887499999 H78.72425025 Q82.768368375 -76.27959887499999 85.578983625 -73.46898362499999 Q88.389598875 -70.658368375 88.389598875 -66.61425025 V-20.612196999999995 Q88.389598875 -16.63711637499999 85.578983625 -13.791883749999997 Q82.768368375 -10.946749749999995 78.72425025 -10.946749749999995 H32.722197 Z M15.955749750000003 5.819598875000011 Q11.980669125 5.819598875000011 9.135535125 2.9744648750000096 Q6.290401125 0.12933087500000795 6.290401125 -3.845749749999996 V-59.51325025 H15.955749750000003 V-3.845749749999996 Q15.955749750000003 -3.845749749999996 15.955749750000003 -3.845749749999996 Q15.955749750000003 -3.845749749999996 15.955749750000003 -3.845749749999996 H71.62325025 V5.819598875000011 H15.955749750000003 Z M53.523393000000006 -66.61425025 H61.413393000000006 H72.459393 H53.523393000000006 Z M32.722197 -66.61425025 Q32.722197 -66.61425025 32.722197 -66.61425025 Q32.722197 -66.61425025 32.722197 -66.61425025 Q32.722197 -66.61425025 32.722197 -66.61425025 Q32.722197 -66.61425025 32.722197 -66.61425025 H53.523393000000006 H61.413393000000006 H72.459393 H78.72425025 Q78.72425025 -66.61425025 78.72425025 -66.61425025 Q78.72425025 -66.61425025 78.72425025 -66.61425025 Q78.72425025 -66.61425025 78.72425025 -66.61425025 Q78.72425025 -66.61425025 78.72425025 -66.61425025 H32.722197 Z"/></g><g id="Medium-S" transform="matrix(1 0 0 1 1701.85 696)"><path d="M31.596491250000003 -19.48649125 H78.37038375 Q78.37038375 -19.48649125 78.37038375 -19.48649125 Q78.37038375 -19.48649125 78.37038375 -19.48649125 V-66.26038374999999 Q78.37038375 -66.26038374999999 78.37038375 -66.26038374999999 Q78.37038375 -66.26038374999999 78.37038375 -66.26038374999999 H71.62325025 V-35.489383749999995 L62.15525025 -40.223383749999996 L52.68725025 -35.489383749999995 V-66.26038374999999 H31.596491250000003 Q31.596491250000003 -66.26038374999999 31.596491250000003 -66.26038374999999 Q31.596491250000003 -66.26038374999999 31.596491250000003 -66.26038374999999 V-19.48649125 Q31.596491250000003 -19.48649125 31.596491250000003 -19.48649125 Q31.596491250000003 -19.48649125 31.596491250000003 -19.48649125 Z M31.596491250000003 -11.30061624999999 Q28.264642875 -11.30061624999999 25.837580250000002 -13.727580249999988 Q23.41061625 -16.154642874999993 23.41061625 -19.48649125 V-66.26038374999999 Q23.41061625 -69.66126962499999 25.837580250000002 -72.05381349999999 Q28.264642875 -74.44635737499999 31.596491250000003 -74.44635737499999 H78.37038375 Q81.771269625 -74.44635737499999 84.1638135 -72.05381349999999 Q86.556357375 -69.66126962499999 86.556357375 -66.26038374999999 V-19.48649125 Q86.556357375 -16.154642874999993 84.1638135 -13.727580249999988 Q81.771269625 -11.30061624999999 78.37038375 -11.30061624999999 H31.596491250000003 Z M16.30961625 3.9863573750000114 Q12.977767875 3.9863573750000114 10.55070525 1.5592947500000065 Q8.123642625 -0.8677678749999984 8.123642625 -4.199616249999991 V-59.159383749999996 H16.30961625 V-4.199616249999991 Q16.30961625 -4.199616249999991 16.30961625 -4.199616249999991 Q16.30961625 -4.199616249999991 16.30961625 -4.199616249999991 H71.26938375 V3.9863573750000114 H16.30961625 Z"/></g><g id="Regular-S" transform="matrix(1 0 0 1 1405.73 696)"><path d="M30.771 -18.660999999999987 H78.111 Q78.111 -18.660999999999987 78.111 -18.660999999999987 Q78.111 -18.660999999999987 78.111 -18.660999999999987 V-66.00099999999999 Q78.111 -66.00099999999999 78.111 -66.00099999999999 Q78.111 -66.00099999999999 78.111 -66.00099999999999 H71.01 V-35.23 L61.542 -39.96399999999999 L52.074000000000005 -35.23 V-66.00099999999999 H30.771 Q30.771 -66.00099999999999 30.771 -66.00099999999999 Q30.771 -66.00099999999999 30.771 -66.00099999999999 V-18.660999999999987 Q30.771 -18.660999999999987 30.771 -18.660999999999987 Q30.771 -18.660999999999987 30.771 -18.660999999999987 Z M30.771 -11.559999999999988 Q27.910875 -11.559999999999988 25.7904375 -13.680437499999996 Q23.67 -15.80087499999999 23.67 -18.660999999999987 V-66.00099999999999 Q23.67 -68.9301625 25.7904375 -71.01608125 Q27.910875 -73.102 30.771 -73.102 H78.111 Q81.04016250000001 -73.102 83.12608125000001 -71.01608125 Q85.212 -68.9301625 85.212 -66.00099999999999 V-18.660999999999987 Q85.212 -15.80087499999999 83.12608125000001 -13.680437499999996 Q81.04016250000001 -11.559999999999988 78.111 -11.559999999999988 H30.771 Z M16.569 2.64200000000001 Q13.708875 2.64200000000001 11.588437500000001 0.5215625000000017 Q9.468 -1.5988749999999925 9.468 -4.458999999999989 V-58.9 H16.569 V-4.458999999999989 Q16.569 -4.458999999999989 16.569 -4.458999999999989 Q16.569 -4.458999999999989 16.569 -4.458999999999989 H71.01 V2.64200000000001 H16.569 Z"/></g><g id="Light-S" transform="matrix(1 0 0 1 1109.75 696)"><path d="M30.9986265 -18.660999999999987 H75.910774875 Q76.36592925000001 -18.660999999999987 76.745339625 -19.04031175 Q77.124651375 -19.419722124999993 77.124651375 -19.87497512499999 V-64.78702487499999 Q77.124651375 -65.242277875 76.745339625 -65.62168824999999 Q76.36592925000001 -66.00099999999999 75.910774875 -66.00099999999999 H70.023651375 V-36.97507074999999 L61.542 -41.102033875 L53.060348625 -36.97507074999999 V-66.00099999999999 H30.9986265 Q30.5433735 -66.00099999999999 30.164061750000002 -65.62168824999999 Q29.784651375000003 -65.242277875 29.784651375000003 -64.78702487499999 V-19.87497512499999 Q29.784651375000003 -19.419722124999993 30.164061750000002 -19.04031175 Q30.5433735 -18.660999999999987 30.9986265 -18.660999999999987 Z M30.9986265 -13.532598624999991 Q28.404 -13.532598624999991 26.530223624999998 -15.40647362499999 Q24.656348625000003 -17.280348624999988 24.656348625000003 -19.87497512499999 V-64.78702487499999 Q24.656348625000003 -67.450688875 26.530223624999998 -69.29004512499999 Q28.404 -71.129401375 30.9986265 -71.129401375 H75.910774875 Q78.57434025 -71.129401375 80.4136965 -69.29004512499999 Q82.25305275000001 -67.450688875 82.25305275000001 -64.78702487499999 V-19.87497512499999 Q82.25305275000001 -17.280348624999988 80.4136965 -15.40647362499999 Q78.57434025 -13.532598624999991 75.910774875 -13.532598624999991 H30.9986265 Z M18.769225125000002 -1.3032958750000034 Q16.17469725 -1.3032958750000034 14.300822250000001 -3.1771708750000016 Q12.42694725 -5.051045875 12.42694725 -7.645573749999983 V-57.686024874999994 H17.555348625 V-7.645573749999983 Q17.555348625 -7.190320749999984 17.934660375 -6.811008999999984 Q18.31407075 -6.431598624999992 18.769225125000002 -6.431598624999992 H68.809774875 V-1.3032958750000034 H18.769225125000002 Z"/></g><g id="Thin-S" transform="matrix(1 0 0 1 814.015 696)"><path d="M31.226154375000004 -18.660999999999987 H73.710845625 Q74.621253 -18.660999999999987 75.37987650000001 -19.4196235 Q76.13850000000001 -20.17834562499999 76.13850000000001 -21.08865437499999 V-63.573345624999995 Q76.13850000000001 -64.483654375 75.37987650000001 -65.24237649999999 Q74.621253 -66.00099999999999 73.710845625 -66.00099999999999 H69.03750000000001 V-38.719747 L61.542 -42.239969124999995 L54.0465 -38.719747 V-66.00099999999999 H31.226154375000004 Q30.315845625 -66.00099999999999 29.557123500000003 -65.24237649999999 Q28.7985 -64.483654375 28.7985 -63.573345624999995 V-21.08865437499999 Q28.7985 -20.17834562499999 29.557123500000003 -19.4196235 Q30.315845625 -18.660999999999987 31.226154375000004 -18.660999999999987 Z M31.226154375000004 -15.504999999999995 Q28.897125000000003 -15.504999999999995 27.2698125 -17.132312499999998 Q25.642500000000002 -18.759625 25.642500000000002 -21.08865437499999 V-63.573345624999995 Q25.642500000000002 -65.9714125 27.2698125 -67.56420625 Q28.897125000000003 -69.157 31.226154375000004 -69.157 H73.710845625 Q76.1089125 -69.157 77.70170625 -67.56420625 Q79.2945 -65.9714125 79.2945 -63.573345624999995 V-21.08865437499999 Q79.2945 -18.759625 77.70170625 -17.132312499999998 Q76.1089125 -15.504999999999995 73.710845625 -15.504999999999995 H31.226154375000004 Z M20.969154375000002 -5.2479999999999905 Q18.640125 -5.2479999999999905 17.0128125 -6.875312499999993 Q15.3855 -8.502624999999995 15.3855 -10.831654375 V-56.472345624999996 H18.5415 V-10.831654375 Q18.5415 -9.921246999999994 19.3001235 -9.162623499999995 Q20.058747 -8.403999999999996 20.969154375000002 -8.403999999999996 H66.609845625 V-5.2479999999999905 H20.969154375000002 Z"/></g><g id="Ultralight-S" transform="matrix(1 0 0 1 517.792 696)"><path d="M31.362750000000002 -18.660999999999987 H72.39075 Q73.57425 -18.660999999999987 74.5605 -19.64725 Q75.54675 -20.633499999999998 75.54675 -21.816999999999993 V-62.845 Q75.54675 -64.0285 74.5605 -65.01474999999999 Q73.57425 -66.00099999999999 72.39075 -66.00099999999999 H68.44575 V-39.766749999999995 L61.542 -42.92274999999999 L54.63825 -39.766749999999995 V-66.00099999999999 H31.362750000000002 Q30.17925 -66.00099999999999 29.193 -65.01474999999999 Q28.20675 -64.0285 28.20675 -62.845 V-21.816999999999993 Q28.20675 -20.633499999999998 29.193 -19.64725 Q30.17925 -18.660999999999987 31.362750000000002 -18.660999999999987 Z M31.362750000000002 -16.68849999999999 Q29.193 -16.68849999999999 27.713625 -18.167874999999995 Q26.23425 -19.64725 26.23425 -21.816999999999993 V-62.845 Q26.23425 -65.0837875 27.713625 -66.52864375 Q29.193 -67.9735 31.362750000000002 -67.9735 H72.39075 Q74.62953750000001 -67.9735 76.07439375 -66.52864375 Q77.51925 -65.0837875 77.51925 -62.845 V-21.816999999999993 Q77.51925 -19.64725 76.07439375 -18.167874999999995 Q74.62953750000001 -16.68849999999999 72.39075 -16.68849999999999 H31.362750000000002 Z M22.289250000000003 -7.614999999999995 Q20.119500000000002 -7.614999999999995 18.640125 -9.094375 Q17.16075 -10.57374999999999 17.16075 -12.743499999999997 V-55.74399999999999 H19.13325 V-12.743499999999997 Q19.13325 -11.559999999999988 20.119500000000002 -10.57374999999999 Q21.10575 -9.587499999999991 22.289250000000003 -9.587499999999991 H65.28975 V-7.614999999999995 H22.289250000000003 Z"/></g></g></svg>